<mxfile host="app.diagrams.net" modified="2023-04-10T22:22:39.877Z" agent="Mozilla/5.0 (Windows NT 10.0; Win64; x64) AppleWebKit/537.36 (KHTML, like Gecko) Chrome/111.0.0.0 Safari/537.36 OPR/97.0.0.0 (Edition utorrent)" etag="J4ab75GHvmAMFxBtwQBB" version="21.1.5" type="device">
  <diagram name="Page-1" id="lHFqxAjoDA3qk363RSc2">
    <mxGraphModel dx="838" dy="480" grid="1" gridSize="10" guides="1" tooltips="1" connect="1" arrows="1" fold="1" page="1" pageScale="1" pageWidth="850" pageHeight="1100" math="0" shadow="0">
      <root>
        <mxCell id="0" />
        <mxCell id="1" parent="0" />
        <mxCell id="6qSPyEhK7SUAbQqkDkWB-1" value="" style="shape=image;verticalLabelPosition=bottom;labelBackgroundColor=default;verticalAlign=top;aspect=fixed;imageAspect=0;image=data:image/png,iVBORw0KGgoAAAANSUhEUgAAAzEAAAI3CAYAAACruNUpAAAAAXNSR0IArs4c6QAAAARnQU1BAACxjwv8YQUAAAAJcEhZcwAAFiUAABYlAUlSJPAAAP+lSURBVHhe7P0HmGTJdd+JRlV12a5q781093SPtxhgBsAANPAEQD1SK1KWy/ctJa203H0SAVCURGIGzTWy1H4SZXapt5LWSI/f97RPJCXCkABJEWYwAMb7ae9ttaku71/8IjI6b8aNiJv31s1bWdXxB3K6MuLG/57/OScjb2TeONkxMzO3KCIiIiIiIiIiIiIiIlYIOmv/RkRERERERERERERErAh0zszMiPn5+drTOhYWFgV9i4vpL2o4fnZ2tvasDo5lDGNthPjgctkQ4vPZAHx8K0ETfS60QlNevrm5udw+MppcfEV95LIBtMJHLhtCfCtBU14+uIi9jSxNIT6XDVl8Ph8V0eTjC9mQ5aMyNfn4VoIm+lxohaa8fHEO0wjxrQRNefngauc5rBU+ctmQ5aOoqR53F1qhKS9fkTmsFT5y2QBa4aOQps6JiUkxMTFRa65jcpL2SSfx2Ni4GmMbw7GMYawNw2eLgwMuOG1MT8+oMdPT07WWOhjDw+bjuemzAY/mSyeoT5PmC2uanW1eU8hH2u60j4ym8fF8mjiecW4+bJiqtdRR15SOu+HLF/cp1ZdPkz/uYU3Vxt22oVW5vJxxN5pcNrRP3LE9zefTBHxxD2uqNu48bLQql+McFucw0KpcXs64G00uG9o97j5NwBf3sKZq487DRqty2Rd3l6aQj7Tdq20Oc8c9rGllzGGdEmLNmu5acx1r1qwRHR0d8oCuWksdXV1dsi99JxrHMoaxNvSYDuc42ui30dXVqcbwrw1tn+5PwpzDbYOfz6fJnMNl35o1WhM+tOHTFPIRcYCL/iR0G5rcPqLf7SOtybbPtLltCMfd1R7WtEadi3MmkaUJvnyaqou7HtP6XK77KJ+msuNOm0tTKO5dXTrutg11TW4f0Z9Pk379xTnMr8mcw2Wf9mucw8Ka4hwGwpriHAbQQn8+Tf64hzT54h7WpPtc42grK+7mHG4b/Hw+TeYcLvtCPvJpCvloNc5h2q/puGdpYkw+TdXF/bamycnpRf6wjWFFND+/cPvESZjVl00cGrOwsKC+/imTj34dhHofbfTRVqamzs5qfES/rQnA59PEONcYw+eyoRU+KlNTFl9Vmlxx5zxV5DJYCT4qUxPjXGPaRVOcw4ppAis57vTn1ZTFV5WmOIdVq4lxrjHtoinOYcU0gdUa97w2VK0pNIfF6mQRERERERERERERESsKjUubiIiIiIiIiIiIiIiINkdcxERERERERERERERErCh0feELv3iYe87sjTiUcZuamlL3odn3olERYHZ2TnR3N26m5f40Kga47pWbmppW5dDYLGffDwcf57P5uE8OG1z31xk+swHKgHNjQ15NjMmrifNTccGnycXXjCabrxlNLj7GYF9PT0+tRcNocvHNzMzJvgml1earKu4hTSsh7i5NrcplF1+WJnfci+WyrkKS3tAYivvY2JgaW0bcQ5pCcS+Sy+0Ud5emrLgX0eSLe5Ymm28puRznsOrj7tIU57A64hymsRJy2Rf3LE0231JyOc5hrYt7J+XOXGXcaOfBiW0wkIeNubl5NWZmJs3HOehbWNAbeAwwUvOly65xbmOHDZyo+RZqLRo8p51+G4bLrUk7BHuSCGmiTfM1agJ+H/k1+X3k10Tg6eNfG7Rjo60Jfj3GFSc9ZjnjHtLkizuTkrZh+eJeZS5nxd2lKRR3nyagNblzmXHkjI1Q3M25bBSJe0gT7TzKymXDR64lUWXcDVercxn4feTX5I97nMMMfHGPc1gd+jxxDqOdR1m5bPjiHObX5I97nMMM2inuXc8+++xhVoj2pxBUA6CNlZG9aqKPdnulxYJM97n49CcdjLNXgvR1d69x8OkVYE+PywZdFs7m428eWlPjyi2kiTFaky7bZsCfPk2Uf9N86dWt30dhTS4f8TcPlybafZoouaf9amtK8tljdDk7+pJjgF+T6Ssv7n5N4bhrG5Yz7n5N9JWVy7Tn1+SPe5Fc5rwhTcY+m4/2/LncjI/sMSE+tyaofXGva1q+uIc0MUZrinMY56AvOQb4NZm+UNzTuUyfL+5+TXEOA7Tn1+SPe5zDNKD2xb2uKc5hIU3GvkYbiuXynTiHVRn3junpWbX0SQ4EfH1j4Ouz24GvbyljQDvztYMNoEy+PGNAmXymHbQzXzvYAMrkyzMGlMln2kE787WDDaBMvnawAZTJl2cMKJPPtIN25msHG0CZfHnGgDL5TDtoZ752sAGUydcONoAy+fKMAWXymXbQznyxxHJERERERERERERExIpC4/czERERERERERERERERbY5ONtIkv+ZJwt78ZcDx9gYcA98Y4Osr24Y7TZNvTBafDyH78moC7eCjInxRkwZ8eW0ARTT5xoQ0hfiq8lHZNtxpmnxjsvh8WI0+ipo0imiCL68NoCpN7eCjqEmjqCbfmCw+H1ajj1qhqesXfuHzh+fmZtVGnCQoazY5STm0rtSGGsoLUt7M3nREWTjKFS4uLqhNOklQxo3yamzcSW7qwXj4qMbQ29tba9XgHIzjGDYeJTE+Pq4qE7AZKcmHKPrcmqZqmvSmqSR8mqikMD4+IR2c1mR8lE+T30c+TQRX881KvrQmUwYvrWlcaWJTlEsTZfB8mnxxx74y4h7SFIq7T1OVca8ql42P8msKxz2Uy3bcsXd0NH8u133UfC4bH3FMOXGPcxhYjXOY8VGROczloziHaZSdy3fqHFZe3OMcBorG3a8pzmFgNcxhnZQwkzY60KEM6uhIdyLcVc6OYxnDWBs4QvelARecLmgbXHx6XPpcHardpQkenw0+TYAx2G+DMb4+n6awj3yadLvrPGgi0C5wvE8TY0iMNPxxp93Ft5S4uzQBbYObz62purhnaSovl/18IU1+H/k1cW5tX7oPLte5QnGn3ZeX8LltoG/O46P8cQ9p8sV9KblcXtzjHGbgjzt8cx5fVBt3lyagbXDzuTXFOczA7yO/Js6t7Uv3weU6VyjutBeZw7QN5cQ9pKkVuVxe3KvLZc6l7Uv3+TSFfeTT5I87muIcBqqfwzrGx6cWXSsjLnD1D9Y0ljwDOB5Oe3VmhLFyTK72ACfDUBcfdahpYuWbhLEhD5+xIaTJxZelycVXRFMRH5kxtNGXhNYEX+MKGzCGsUV85NJUZtyzNfniVFzTcsY9ZEM7+SiPJsNXrqaVl8sgzmEad1LcszWV//pczriHbGgnH+XRZPhWoqY4h2m0T9zjHNaMprLibjTF6mQRERERERERERERESsKjcuhiIiIiIiIiIiIiIiINkdcxERERERERERERERErCh0UhGA+9FscL8ZfdxzZoN2Hja4f412xtowfBxjQ/OlbeDcPj5sdtkAaM+vyc23NE1pvmY0+fhCmkJ8NoymEF8eTSEfZWlyxb2IJkB7SFN1cU/b0KpcdvFlaQrx+TWVG/e8mnw+akaTO+75NRk+v4+qi3t1uZzma0aTjy+kKcRnw2gK8eXRFPJRliZX3ItoArSHNFUX97QNrcplF1+WphCfX1O5cc+ryeejZjS5455fk+Hz+6i6uFeXy2m+ZjT5+EKaQnw2jKYQXx5NIR9laXLFvYgmQHtIU9lx79RlyqZrzXVQYo4+FzHtPGzMzs6rdsqo2aCNPtsYBGm+iVpLHZybPmyxocek+Xhu+myENU2oPtvBzWjiGBu087AR0kQc6MujaWZmVrXzrw1K09FnazJ8rrgbGyi5Z4N2HjZCPvJpCsfdr0mP8fuI0oQ2qop7lbkc9lH+uBfJZePXYrlcbtxdmsJxd2tqJu62DVXGPawpHPc8uQxo52EjpCk77vlyOc5hGkXi3kwu23EvmsvYTJ9PEw8bYR+17xxmfERu2lhK3F2awnF3a2om7j5NeeOux+SLe1hTnMOA8VHI5zZCcc/KZXfcV8Yc1knVBrtyAzDtrr6enm71sEHVAY63KwwAw2VXJaCwgeZrrCkNzBgeNhjj4uM57S77wnw9aoxVCCKoiTb6OMaG1pTPBtPu0kRlhjVrXHy0M66xcgOghjfjbE3GRz4bGEN9chs+Tca+8uLu18QYNx/VNYjT8sU9rClkQ5FcDvnIrcnwuWxAk457ow1Aa3L7Vedl2gZzHpcmPSZf3Ml9l30hTabd1efTtBrnsJCPfLkMtKZ8Nph2lyYd93y5HOcwDWMDDxu+uFc5h2Ez7clKRcDEyeXzsI/adw7DJp0rcQ5jjIvPaPL53M8X5zAAjz6X2+cuTca+8uLu18QYN1/1c1jH5OT0Iie2jeFrHEqi0W5PTLSDvGPoL5uPoNlgNViFprL5aKff1VdUE/22j8yYInygiA1l8y2nprL5aKe/qlwum883hn5XX8xlDcMX457fR2ZMET5QxIay+VbjHObqi7msYfjiHFZcU9l8vjH0u/pi3DUMXzvMYbHEckRERERERERERETEikLjsiciIiIiIiIiIiIiIqLNERcxERERERERERERERErCl2f+9znD8/PL6Q2zpjqDWzqse9To5LA9PR0ajMQ9wtSiYFb1+x75aiOQDUBF9/Y2JiYm5tPbQaiTJvmY8NS4xiqH2ADm6yS98pR3WB8fFzZYvNRxg3b4cqrifvv7A1JIR9pTXMpG0I+wj/T0/ioURPnRpPLR2ianJxQ509r0j5ijMtH/JtHU9G4T01NqfYkX0gTfuNcrLHtuGdpCsW9iCZX3LNzOR33IrlsfOTTlDfu8KA3b9yL5LKJe55cXlrc4xxWJJfLjnucwzRCuWzi7tNURdzjHKbRTNzvrDmsnLhXmctlxz3OYRrNxN2nqYq4m1zupHza7Gy65Nns7Jx8zEohesNNEjiYcRAnwbGMYawN3T4rRTbywQEXnDYQoG1Il3jTY7DB5lu43WcDHvjgteHThL3Gdhscr/ma1xT2kbHB5jN6XXxaa1hTraGGhQXqa7s1NRN3G1lxZ0w67n5NaKHPHXe3pmbizovSRp2v+bib9lbnMvy0T0+7NdGXL+6az63JHffiuaztI9eSwCYfXz3uoTjVGmowcY9zmF9TKJc5XvOVFXdjg81n9Lr4tNZ8uby0OSxv3BmTjrtfUz2X0/bxetY21BpqqDLupr3VuQw/7XfeHObykVuTiXtZcxiv5ZAmHq2Oe7W5rH0U57Bmcrl5TaG4t9Mc1jE6Or7IqsheNXEis4K1V03GQD41aFyF6ROyYrJXgqz05ufTfBiN06GxbQjx0Y5e24YQX0iTj8/Y0NWVLjWXpQnYpfCyNNHPajSPJsYxpllN8JE0nN9e3TYT9zya4ILT5yOXJviwj/aVGHefJp+PimpiXJ641zU1H3djA8iXy3Oyfz5XLheNO2Ow2eWjrFz2+cidy3EOA1ma6K9qDqOMMn1JlB/3OIeBrLgX0cS4OIcVm8OyfOTO5dU3h5Uf9ziHgXaPu8nlDrmikkN1fWcbGORrB3nGgDL5ssaAMvlc7aBMvqwxoJ352sEGUCafqx2UyZc1BrQzXzvYAMrkc7WDMvmyxoAy+VztoEy+rDGgnfnawQZQJp+rHZTJlzUGtDNfO9gAyuRztYMy+bLGgDL5XO2gTL6sMaCd+drBBlAmn6sdqL6ZWGI5IiIiIiIiIiIiImIFofE7nYiIiIiIiIiIiIiIiDZHJ/epUVHABl/T0OcC7aE+89VQEpwjNCZkQ7vzuUB7qC9qWhmaXHxZNoT6VqOPoqbqNZXN5wLtob6oaWVoij6KmgzaSVPZfC7QHuqLmlaGphBf1y/8wucP601MjZtwKF1GSbbOzo7Upp7R0TG1uaivr7fWomFKqMFnb+qhXBwl0dick9zUg3GUwWPzTm9vIx9tjMOH9sansbFxMT3NBro1DXyIoo8NRL29jeXa6pooGefSNJPazAUPJd7cPtKa2JiVLEGHc+Fjg5OtiXOgCd0+H+XRhA+wQ4gOtQErCZ8mwxeOe6MmsJS425pCcQ9pyoo7G73Qm0QolxmDj/Br0kdJTbaPjCbbR3VN+eJOScK8ucz5VXnBHLkcjrtbE/DHPX8uGx/lzeWsuIdzefnnMJePsjTFOaxoLt+Zc5jto9Ac5ot7XVO+uBeZw8qPu1sTyI77ypvDTNyxwRd3n6Y7YQ4D/rhXN4cZH620OczEvcj1d6VzWO15CtSGplxakjALaMkaA28SHGqXsrOBaBvmHPa5fO3AJIPPPm177UkNtr1JwMOYRAwzYcaEeOVRtX81zBgXjJY8mmz+JOr2pVe+PjQTd/ucHLo0TXafeZ4eUyyXdXxcuWfaki9eEKLn3NoGV9zNwEYCM8YFl11J6HPVntyGf4w5V6tzGfg0mfiYf23oc9l9IU3LP4cZHvuNCJg++1y+dhDnMAP3saBu3501h9ldoTkMHvjsuAfob49xx90MbCQwY1wwWnya9LlqT27DfSzwaQqBHNHn8fO6zrk0TXaf/9zNxN1GM7lsx5BDszTlncN8fHfqHJaG+1hQt2/55jAD37WG+1zmeXpMM7lsdzUzh3VMTEwt8sReGbHy4UG7fVJKmwG75Jn5eocT2xd4tNPv5qMkm9+GPHzGhryaDJ+9ii7KV6aPmrEhxNeOmkA7xL2Ipiw+mmwbivioGU0hvtWYy0X4Wq0J+HK5CF9RTYYvzmHLH/dmNNl8RTVpvjiHZWkCcQ5z2wDiHKaxFE1V+CjOYRqGL1Yni4iIiIiIiIiIiIhYUWhc2kRERERERERERERERLQ54iImIiIiIiIiIiIiImJFoZNqAVQiscF9aOz+p3qBDaoIUBXABscyhrE2uO+Oc7n4tA2ztWd1wEOfiw+b6eOeuSR4HtLk49OapmrP6sBe2rHfBjw+H+EfOG2EfOTTBLSmvD6aVX02jI/yakJPXk3lxz2sqcxchs/lo7Amd9yNDW5N1cQ9pCnkoyK5bHxUVS6XGfcsTW4fFdHk9lGWJh+f1hTnsJCm9oj7ypzDQj6qKu4hTSEfFdFkfFRVLpcZ9yxNbh8V0eT2UZYmP9/yx72qXDY+yqupPeLePnOYWsS4jIGQx9xcWhyGMMYOMhuOzDgbuj3tEGMkpdxsGEe5kpB2F59xPA8b2lHugPk01flcmnS72WhlYAIJpw38yRjK09nQfH5NLr5mNPl95IuTP+4hTX6+fJpCcTdl+vya0nHH19jh5isSd7emUNy1JrcN+jwhHxXLZR+fX1M67s3ksp+vWNyLaYpzmE9Tnc+lSbcXmcP8fPniXlUuA8Nno1W57Ip7kTlM+2h55zBjQ7H3rjtrDqMEro1sTWXPYT4+f9yXew7TpYDTF9t1PlecdPtyzmHGR63OZWD4bLQul9t7Duv65V/+lcNUgrCrQQAKCFC3OV0VYFG2daka0Y1VBihXSN3tnlRlAto5lvrVaT5dlcCubQ3m56kP3Sv5GseYUm12XWlAxQK3pg7VR41v2wbs6+xcE9Dk5uNQ6le7fIQPXJo0X7fDR25N/K19pO1rhF+TiRP2Ne8jf9zn5+t8NvLGPazJH/cimqQJNU3uOIVz2cUXymV/3OHUPmocE85l89ooI+6hXPbHPaTJF3fGuDTxty/uxAlNjCkj7iCkKRz3OIcViXu7z2FJPht54x7WlD2HpeMU0sRxi8pun6Y8cfdpAqG4w0l7s3EH2kfavkYUiXt7z2FAxz3OYaFc9sUdPuawnp6VNYdJKq+mVsUdPht54x7SBFbCHNYxOTmtSizbpByAMbS7jJTdjoT2jwn14SiaXDbQx3ncNugEtcHqzacpzFeNJt+YsKaiPvJr4vg89nEeUIWP8moCobj7bPDxtUJT2Ibq4l6lprx8eTWBdo97WFOcw5aiiePz29cOcV+ZuRy2Ic5hRTSBOIdpVKnJNyasqfxc5vj89rVD3Nsjl2OJ5YiIiIg7CHMzM2Lyxk0xceOGGLt8RcyM3BTzU+mv+COagLzQ6RkaFGt3bhdrN20SfevWib6hoVpnREREREQrERcxEREREXcIhk8cF+f++Nti9toN0TU6JjpGx0XP4ryYn228tzmiSXQIsbBmjZgf6BcL64ZE94YNYtN7HhN3PfW+2gEREREREa1CXMRERERE3AE48ntfF2MvvyLWnr8kOmbnRCe3CizKB1/7x3eBwphfXBTz0oHzXV2iQy5oxjduEJ0P3Svu++xnRZ9c2EREREREtAZdv/ALnz+8sDCvNvwkMT09rSoQcI+afW/b+Pi4oPoGm46S4F648fEJda+avQmHSgLwsXEsycexjKESgs1HCTX6Ojs7pB2N9ydSzYAqKWvWNG6WYoMQY7CliCbGJPmKaAJjY+NBTVw12Hy6QsN0ii+kiXNQ0SPkI5+mUNx9mvLG3aep3eJeVS774p5Xk4l7kVx2xT0rl0M+ypPLxkchTXniHtIU5zCNWTnmB//vfyMWfvCSGLp6TQxK/h7RIbrl+DWdUkuH5oqPYo818tEt/dgrfd4jc6GL18v5C+LksWNi8/33iZ6B/lokNOIcplF/vXcqXUnEOUwjzmEaRTSBeB2mkZXL7RL3IrncifF2aTpAG31UpLLByWZmZhRxEmyy0Xzpms608+AYG3DNzLjrSptxNvQY933cvr6wpjnnGKPJZQM6abc14RdtQ3oM52ZMyOcu+DQZ+1x+JckYY4VJwWcD9b11X5qPdpd9xgZX3LM1lRN3Kor4+sJxz5/LvrgDbYNLkz/uxm402DB9NuDSmlx87lwGPhtCmsy5bJAjuq/5uONmbCM3bRif+/2aV1O5cac9bF85uQx8fWFN7ri/+Vu/LbpfelVsGpsQa1WFmIhWol++QW+Scdp8/KR46d/876l88cX2Tp3DuIizEecwjbLjTnvYvvacw4wmlw2+uMfrsDqyNZUT9+WYw7oOH/7Vw6yY7E9CWH2xymL1w99JsCrTY7oaVmH83dVFebx0CTWeMwa+5BgADyswe7XHcRxPeTWbz9jAyrJZvqVocvuo8zZfGZp4ju/y8pnyc2k+t4+0DUavX5PLRz4bQnEvosnnI471afLxtSKXy4y7sSE/n9Hk5uPfJJ8ekx33fDaUG3dfLnOsL+5+TUkfpW3w+Wg1zWEXXntNXP2PXxE75xbVNy8R1aBT+r+vo1OMX70qJnt7xOZDB2s9/rjzd1lxB5qvvecwM8bHx79JPm2D6StPU5zDsn20XHMYMJrcPvLHHbvyauJ5mXGP12Earchl+IJ7YlgVJQmT8PVVNQa0M19RG3woMgZUda6yxxTpawe+drABhPp8aOcxoOxz+fqqGgNayTd586Z4+V/8hth++rzolxfUEdVjZmFBXNq8QRz8Sz8rth48VGttbdyTqGoMKMIXQpFx7TwGlH0uX19VY0C78/lQ1RjQzvaFxhTpq5ov+M7mGwh8fVWNAe3MV9QGH4qMAVWdq+wxRfraga8dbAChPh/aeQwo+1y+vqrGgFbyXX77XSGOnogLmGVET2enGLgyLM58+7u1Fo1Wxj2JqsaAInwhFBnXzmNA2efy9VU1BrQ7nw9VjQHtbF9oTJG+qvniu1tERETEKsTwW2+LAcf91u2Erf/tXxbde3eLtU89Ibo2b1RtW/7Kf6X+bRa999W/4WhHsA+JWERERERElAu1sd+1OZgqA/TxdY0NjndttOFYxjDWRogPLpcNIT6z6cgF2u8UTYbPpynEl1cTfHk1tYOPsjTFXG5d3F2gPcTnsyEvX5U+ase43zxxQqztbqwQ027oPXCXmL85ImbOnBcL45Oie88uMfDEo6Lv0YdVPwucrT//F8XGP//T6jnoe/A+MfTxHxVb/5ufE4M/9EEx8Ngjt49vR/SuWSNmb4yI6fFx9bzVcTdYTblsUFQTfHk1GT4XaA/x+WzIy1elj1Zj3KvSZPh8mkJ8eTXBl1dTO/goS1PRuHdSFo5yaTampqZUyTiXoZQ8m5iYSBkzOzuvxjDWBuegzxaHIXDxsEFVB8ZQms2Gj4/ntLs0waP50pUTjA22s0J8dR812oBf4MJPNvCntiG/prCPfJry+Sgr7iFNeeKubag27nlyOcTns6FVcQ9pKj+Xq4g7fcufy3Cu1jlsRv47f2tM9K1p70VMR1+fGProD4vZS5fFovQ5Cxoh7Z+7eEn183zsue+L6RMnxdoPPqnaNv70T4rpo8dr7afE3M2bt49vR7DJf1A+bkmNYClxj3OYny/OYRrxOkyjVbkc9lE1cS83l6uNe55cDvEZG9TtZPauf0C1BAiprOBG+j41U3HAdQ9bR+2+bLtPP+U/6THYpW1I22fa0nz6uW+Mj8/YYJtu+Iz9SdTPZQ1ScLXpMdqGdL9PE+20uWIBj99HutJDuk/z2+cBpkqGP+5pmGPtChvAF3dtE21pG+grN+7aRy69Gul2c6w77m4bNNzn4Ni8cTfPfX7w+UjbkC+Xy4+7OXmjEdhLn+s89Vy2DJfgeD2u8VwhH93Jc1hXd7eYdZS5bDcM/2//p5h696i6rWzNls1iYUx/WzF3dVj929nXKwaeeEwMPv2U6HvwftXWc9ceMXP6rJh89Q0xe/6iWBgdu318u4JPGYkJKBb3OIeBkKY4h2msljksCcPnzmVzLmuQgquNY7sCcXJrop22suJubLPPA5aSyy4bfHHXNtGWHkNfuXFvzRxWK7HsLjNHKTRf6TxTDi0JjqMcmquEmuFzl1CDz2dDlxpn26D7dGm6tH2+0nn1knHpMbr0oE+T5nNr8pWZg68MTXW+tCb6wpq0z5PgML+P3JqAT5O2T8fdHmP4GJvs02PK8xHI1uTykbYh7aPsuC+vplDcda4U0VRu3IvlsovPl8sgO+5+TT4fMS5/3H02VD+HdcrHme99T6y9OSp65PHtirlLV8T8tRticXZGbPiJz4jx538g1v/4p8TIl39P9W/8M/+FmPjBS3LRck703r1P/c1xI//xq6of9OzdLWbPXag9a0MsCnF6bkY89Gd+SnSpvCoSd5PLvte7P5c1nyv34hxm+PJo0mPcr3f6tA2+12ecw5qdw5LQ9uWLux7jj3teTXW+tCbNly/uHLaUuLtsMHz2GMPH2GSfHuPm02PKjLvR5PKRtiHto+y4d7qcCzgAUvtkwBhig2M1X6PxwAQyP1/auUCLTvPVbVg9mgBceTVxfFiTj6+IpnTSgmwfpW3QfDHudRvyasqKe9oGzVdm3Ivnso8vrCnG3bZhw8G7xfhM+laAdkHXhvVi7fvfJ9Zs3SwGnnhcTB05pjsSc8LA4w+LyTfeVt/E+DD0kR+q/dWemJydFX1bNonuvj71vNVxN6jzrcRcjnMYCPtoNca9fTUBuEKafHxhTT6+IpruvOuwrmeeefZwrS0iIiIiYpVganJSjLz4ktjQ01traTMsyv/PzIj50TGxKG2dfOV1+XxWzJw7r76hAbMXL4u5y1fE4uycWsyoIgBnz93uB/O3RtUx7YpbU5Oi78knxM73PF5riYiIiIgoA8Efu4yIiIiIWJmYHBkRL/6Pf09sGb4h1vXqbwEiqsXc/Lw4MjMhnvo7/4NYt3tXrTUiIiIiogx0ssPfVX2AjYj02dUHwNTUtLNaABUlaJ+dTZdKo40+u+oEoB1OG5ybPlfpNWymj41CSfCc9pWsyeYrqsnw2TCaQnwuTVS9CPG5fTTr5aM9xn05NKWrg2RrSlc8MXwhTT4+l6YiPjI2lO+jlR/3/vXrxQM/97Pi9GyaJ6IanJueFHf96Z9qWMC0Ou4GqymXDeqa4hx2Z8a9Ok02XzOaQnw2jKYQn0tTvA7TMHHvZPDMTHpCmJmZUcTuE06pPlvA3Ny8aneVmUOUiw8jaXdNMDiePpd9esy0HL9Qa9Hguemz0YwmO8gcS7srKOikD91J4BfaXZoMH7bYQKe2wfaRXxOB1Hx+H6V9bmxIj6lrcvFpH9loJu5pTeXGPRSn8nPZHfeQplDc/a+NUC5rH7nezI0mO5dN3PPkMqDdpYkc0XzN57LxAw8bdU3pCcuMSb/ejV/TfohzmBCbH3hA3PXTPyVOjo/WWiKqwtlbI6L/Q+8X+3/kh2stGia2cQ6LcxiIc1gdvrgbn+eJ+3Jch4Xinva5P+51Tf7Xho1m4p7WVG7cQ3Fq1RzW9cUvPnO4p6cntREHLrMRp/mNPRigNwOlN/boEnOMsfk4F+3+jT26CoINztHT07hRiL81X3eKr3xN9Q1YeTTBpys7NPJxXmNfs5o4jH78kNa06PQR4Gl3dzruwNiQ5mMDFj6yf3si5CO3JlBm3A0Ys9LiDiiPaPuIv31xh8v4qHlNGuG4uzYGLnpsAG4fcV698c6nKe0jDqPfncvhuMc5TMOlaXDnDjHd2yvOvPW26JFvIPz4YkTrMC3f/M8tzIqeDzwlDv7Ej4u1mzfXeupwxd2grLiHc9n/eg/lMnxxDotzWBIuTfzti3v5msrNZc5r7GtWE4dRPcutKV6HgVbFvWNqamaRQWlhi+oR6rMNaWaMq4/VXN4xps/ljDL5mhnj6mtnTaBqH61GTa6+1Rj31ajJx9fMGFdfu2uaHh0Tw+8eERe/8lXRc+ai6JyZEX3yDYMfw+xynD+ieeDfKT7Rn5sTfGY5vmGd2PWTPy42P3C/GNq+fVnjnjXG1dfOuQyK8K1GTT6+Zsa4+qImDdO3GuO+GjXFjf0RERERdwhuHD8hhl99XYydOSumrw6L6eFr4ubVK2Lzju21I9oLV8fHxZhccB3YuLHW0l7o6uwSM3Lx0rN+vejdsln0794lNj/6sNh0zyGxprdNq8JFRERErBLERUxERETEHYSpW7fENGWJJyfE9Ni4uHbmjFi/vT0XMa+89aa4cOmS+MxHP1ZraS90yP919fWI7r5+saa/X/QMDYm1m9pzwRURERGx2tAxNTW7aP8SpgGbflx9fIUD7K93gG8MqIqvHWxoB01Afd2W0wbfmNXoo6ipjiJ89LnaQYgv7xjg6ytbUzvwVWnD1PiE6O6x769ujY/yxv27zz8vTp48Kf78n/tztZY6Qjb4ztUKTV2O+8xBEb6iNoAyNYGVqIlxrjEhPt8YELIv7xjg6ysypqiPquJrBxtawVck7r5xRca0u4+qtqHrc5/7wmGqBbBxJonJySlVYYB71OxNPePj46pigb2phxJqExOUcVtQG3SSMGXX4Ere94bxY2PjqqoDG9uSoDoC4zjG3iSkbZhRdidtQMvExISq6mDzUcmAKgg4xN4kNC7fyOHza/L7yK8pbQM6szSxaSvJR6Doc2kyPnJrGlcVHHw+8mnCT764hzSF4u7TVG3cq8rl1se9VbmcN+5ZPiozl0Nxd81h1cd9Zc5h/JbJGtnOo1Ny8uiQ+iZk37wc09fff7udx7yM4ZT0gzxI9PT2NPRNSttm5+R5pN1dUq9p51jNtyB6+/oaxtA2Jecpjk/awOPY8WPi2rXr4j1PvFf219t5y5uUvuDfnt7ehjHTMq4z0u9daxo18ZiQsUCvT5O8bHDwzUi+uZQm46M4h9U1LfccBqfPR+0+h7VH3Ivlsu2jquew5c7lrLi3y3VY2XGvLpddPtKaOjGUE6exqETwrw2IEW0DsT6++fmFGl8acMFpw/DJf1IgUG6+DtVOvw14NF/zmgBjsN8GOn182ZrSY+qa6kE08NnAC4s+/rVBeTrNlwbtdklCULfBrcntI2ODy0eaz+cjV67UfVRrSMCfR6G4+32eHfeyczltQ5G4Q+PjK5LLZce9WO4ZvrQNWXEP5ZFLk89HZkycw5rRlB6TlctF4u6KBfDzlZvLJu4+H4VyzzHkNl8acQ4zKJLLZce96jksFHeXJp+PzJhq5zA77nEOMyiWR+Xmclbc238O82vqGBubVLeT2SstRPGgPblyA9oQSgI2rowwnIC4+DCSALNCTK60tLA52abLsiWh+ebkqm1NauWWxefWxBviXFBTHj5jg71iB6wqw5q61COJbB9Ras6tyeWjYprmpQ3uuKMJ+OPeqXyRRLamfHFnDGPzaCqSy2EfuTWBquMe0pTHRzruC7LdncvAHXf4utS4JLI1pX0UzuVq4l7P5ebjHtIUyuUsPremlT6H5Yv7N7/5TXU72c/+7M/m0BTnMBD2kVsTWNlzWJG4wxfnMJ+mUC5n8bk13VlzWLW5fOfNYXFjf0REREREW+K5556Ti5gT4i/8hZ+ptURERERERGg0LociIiIiIiIiIiIiIiLaHHERExERERHRptC/dh0REREREWHDu7GfNqoPcE+aDe5FY5wNjmVMXj644LQR4vPZAHx87a6JNsbl4eOeQPj410ZIE+1FNPn4ytQU4vNpAj6+kKaQj0KaQj5qZ020F9Hk4wv5iDE+PpemKnM5xBfSFPKRS1OIz2cD8PG1uybaGJeHLxR3eJL3XBvQDl8RTTxslK0pxOeLE/DxhTT5+LI0hXzUzppoL6LJxxfyEWN8fC5NcQ6rw8fX7ppoY1wevirjzhgfX5maQnw+TcDHF9IU8lFIE32dlC+j7JkNSsLpEmYztZY6KKHGONuY2dl5NYZSajZoo882hqDDBacNY4PZyJTExMSUGmfz8VzzFdNkJyF8WZrQnQR+ydLksoE45NVEELWPXJoY4+dzx91ocvlc89ngWK3J5SO3plbFvcpcXt64G5/ny2XaXT7yaQLahnLiXteU5is/l1sTd9uGKuewonHP0tSuc9jk5LSywcfnjnucw0Ccw+rQNsQ5zPjItiHOYXUUy+Wy415kDgv5yK1pNcxhnXzK5fq6nmoEHR3Uc3b1dTk/HaOCgH+M5rPH8VTb0FiVAFDBgDF2JQNgbEjz6bb8mnR9aouu1pauaw20DdiX9oXfBj3GxdfRoTXZerUNbr6wj3TlCLtPjwnbR7UWG4xznYdjtSYfn0uT8VG5cXfZXX4uGx+VE3ftP78mF1/YR75cbibuLl+UF3dtNzY0VhoBus+nqUgua76QfTbafQ4L862+OYw2quTYfXpM2L44h5m4h3xUTtyrmsP0mKy4u3xRXtzrNsQ5zNiQ5is37rrNnXvaBnfcfTaYMX6+8uaw6q7DjI98fC5Nxkcrdw7rkCuqRZdTeOPg4SJntcWKyS55Rht9efn4Kkkb2jgmxEdJu8VFSsKmJxIfX1iTm29pmtIJ2oymIj6qRpNeddvl+5bmo3Libsbkj3srcrn1cQ9rWtlxr0ITYxhbbtzLyWXQHnGvJpcNn2sM1clOnTol/vyf//O1Fo3imuIcBrI1xTkszJc/l8vWxBjGlhv3cnIZtEfc8+dyNt/yxj3OYRqGL5ZYjoiIiIhoS3z3u3oR8+f+XOMiJiIiIiIionFpExERERER0SbgEzvXp7wRERERERFxERMRERER0ZbgFgL7l6QjIiIiIiJA5/j4uKqEYIOf+qeP+9FsUBGAPhscS7urogLn8PHR7qpmwL16mi9dro3KBPRxz1wSVFvQfH5N8Nrg/PTZMJrcPppVfT5N+MlG3Ud+TXZlDjTS7tJkfBTS5PNRXk3oCWvyx93WBGivMu4+TfTZaEaTi4/2KuJeZS6XGfe6Jn/cy8vlauNeZS5XEXfay8/lfHHn/CMjIznjHucwENJUfdzLyeV2iHvRXDaaljPuRpOLj3aXj4rkctlxN5ryxp32vLlcddyrzGWfj0Ka8sS9ylw2Puqk3JmrhBql4uibm1uotdSBQ+izBbDZh3ZXCTXOQTsbcZJANO0u0QigzyWA4118bDaifWbGnRj0uZxY57ODYvhciaG1ojsJ/KL70jaQGJrP5SPjV5tPn8uXGPS5E03bZ4VJatJ+dcdd+8gVd87vsoFjs/g4ZxL1uKf9UHbc67nsnrDoKyOXy467yT133MvNZaPJzmVQZtzruZz2Q/m5XE3c4xxWR/Ycli/u09Nab7646zHVzWGtj3vZuWzaWx13k3suHxXL5eWPe9Fc9s1h9bi7/Fpu3Oua7DiZuKfHhHLZxD3NV3bc/XGiXfOVlcvavrLmsGLvXa3JZTtX2n0OM3HnYcO0dz377JcO83U9FQOSoHgA1QXos0vXUXmgp6fHUWWA0modsi/NRzvVFOCzKxPQ193dk6q2wHGGz65MoPnWpPjMGLcmXWJOa2rkQ1N39xrFmeZDr5vP5yOOpd2nyWefSxMwY/x8PcrOJOhzaQLGD2kb/HE3Y/Jr6vLYENbkijt9aGJcks+McduQ1JSOuy+XzRibj/Ngs20D4Fja8/sorMnN59eUP5fbJ+6tyeXm444NcQ4rN5eBGZMn7ufOnROjo7fE448/7uBrJu7uMfk1hXI5X9zpyzuH0W5sT/Pln8M4TmtqbdyTY9x8fk2h1/tqmsOSY8Kamo87fHnnMI4NafLlcijuvjnHxMOlqT3mMLePzJgy4g6MH9I2lJvLtHO8P5fbcw7TfD4faU0d09OzaumTHAhYEfGwTwbMaskeA1g50e7iA64xWXx5baiKj3Yeq8lHtPOImsJ8IM8YEOOukcUXNVXHRzuPdvXRd77zHXHy5EnxMz/zM7WWOnx8tPOIcff3LcUG2svkK1MTj9UUd9p5rCZNIPpIw9dHO48Yd3/f7fZYYjkiIiIiop1w7do18c4774g333xDXLp0SXzkIx8VTz31lOjt7a0dERERERFxpyMuYiIiIiIi2gqvvvqK+Jf/8l+qRQz3Uu/bt0/883/+v4hNmzbVjoiIiIiIuNPRyeYd87VMErS5Nl4BNgPZG68MivDRHuJzgeOr5FuNPoqaytdUNh/tIT4XOD7EFzWtDE1l860kH+3de5fYtWuXmJiYEJcvXxaPP/4esXbt2lqvRhEbllOTAceH+JZbU9l8tIf4XOD4EF/U1B6aoo/qCNkQ4oualqapY3j4xiKbYwYGBmpdGpOTU6oqQX9/n9pUk8To6Jj6d3BwbcN9alRmoFQam4cGBvprrRoTE5OqKgHt9Btg+NjYmOIZGhqstWpwfuxgw09fX+NtBGNjlMBbkG9sAw0bfhA1Pj4h2zpTb3pUVOBTPZ8mnDI4OCjYgGSAzdge0tTf3y/56prgwT7g08T5sSMJXX7Or4l7CfF5EqaqQ29vT+pWC+MjW5PhC8e9URMwcU9r0nF3aeIiZG5uPqWpyrhXlctVxr2qXAatiHu1uRznsGTcp+cWxNeOnBdr5DFUraFKjt5UXL9XWdKoeADbbuxDFzbbNhA/KtSgN3nvs+abkj7qVPFNAvt4YF/Sr/xS/7/9e18Uk9L2/+7v/1Oxc+euWg8+X1B+4BycKwlsw0ZbEzBVeNKaFuS4GacmzsP5fJqE6Aj4iM2vUldXh/jRAztEr8zTdprDlvO9q0guG752eO8qew5bzveuVs1hZcXdnsOSKDuX2+u9q6xcXv73rlblcifBQkgaHbLdt2pakMamy6QBxiRsuA0SinPZ4FjG0G/DjHF0qT59Lvtk2m6XJng0n/tcPtt9Y4ztLuAf/OSCHpM+ETZrHzX2oZExLhuAy6+A87vt61Bj3HHXfuBfGyQojzT8Y/yatB98sdA+rzUkUI+T7b+QpvJz2cdXVdxp0j5y+89nu2+MiYcLZcYdMMbnIz0mjWK5HOcwg+SY505fEd88e0384PKoeOX6pHj1xrR48eqYem4eL1wZle1T6pFs5/Hi1XE15uVrk6k++F65Pi3Hj6f6GEO/3f7S8IQaw7/J9qv9m8T+T/wp8cBP/JfibMdQQx/8jHn5Wto+7HJp4uHXNObVxDlcmrSPpj18xj6t6RvHLokbk7pMaCjuVeWyyVkX2nkOo93vI/98FOcwDeM/GyYffLFgjKPrdp+dy+3z3lVeLgPGVBP3cnPZxMnGUuLOuCrmMPhc+WBs7xgbm1xkZclqMAk+VeEAVln0J8FqCtirKS1arozk8cnVGdDCFtSq0hYOH23JFSLgeMbBZX+ixnk4H2OSfMYGFx+aCD5abU2Gz6WJ1aDbR1qTbQPw+UgHa17yuTURfNtHIU3GRyFNLh9lacoT97qm5Y271uSOe9m5zKfNtg2gqri3Vy43H/eQJhP38nI5zmHA9tGvP/e2ODuxINYNNH661o6YnZqUb33SD32NnyyuNJy/ck38vU89Ljb09wbjXtUctrTXe3vPYXl8VNfUDnNY6+PeijlsZb93laNpaXFfvlwGReMe1lReLsPH+W1NxkdxY39ERETEHYRf+uoLYnDdBtEr39AiWo9Z+WZ77foN8Wuffq/oStxOEhERERGxNDQuhyIiIiIiVi0mZ+fExOyC6LY++YtoHaZmZsW2tb1xARMRERFRMuIiJiIiIuIOwdWxKdHR2Sk6rVsKIlqHyZk5cdeGxo27ERERERFLRydVFbi/zQb3m9HHvYE2uH/NVK5JgmNpZ6wNzuHjo5373mxwv5uPj+NdNnAPnY+vrim9McvHZzTl9ZG2Qd/nl0TIR8YGNNjQfH4f5dFkfFQk7nk1mbgX0RTykY3m4u7W5OJrRpOLT9vQ+rjXNbU+l6uOe1W57OJrRpOLj/aQJhdfliYXX11Tsbhfm5iSs378FqZK4Pfd6+qVepYW93JyOcSnbWjPOWwpr/d2n8PCPion7lXNYcDHV9fU+vcubcPqe+8qqsnvo3LiXmUuG75Oyp5RGs4GJfBMSTQblDajzw4ym4BoN2Usk+Ac9LGxJwmMpJ0yajYo/0kf/9rQY6ZS4nC86bMR5tOabAdjL+0uH6GTPnQngV9ox0828Ke2Ic1HuU5tQ+MLAY2087DRjI9sPuMjlyYTJ9cLCz0uTRybxZe2oTVx1yVPGxHKZRP3Irnsi7tLU7VxLy+XQblxL/r6dPuoHve0DXEO00jG/fytKbHG2iAZ0WIsLoidQ/XyoCa2yzmHZb13te8c5n+9m9dn69+74hxmoMekc7kd3rtMLrviHs7l5Y+7sSFeh2XPYZ1UELArDwBdtSFdRQBQ4WDNmsYqAoCKBLqSQfpNkja7kgHgKe12dQZguFz2cbybT1dFcPPpCgcu++p8tYYaDJ9rjOFCtw38g59smMoR+NcG7fk1GR+5NFH1wr15V2tK+9X4yKWJ3zzgYaMedzefywYkFtMU9pFrTCiXtQ0hTX773HH38VUZ93Jzucy4A63JNSakKX8uxzlMIxn3UzfHRK9VASaiteDiYuvaenW1rLi7YhvnsDpo98052r70oJUwh7n44hymYfhcYwyXO5eLXIct/3uX8VHZuZz2q9Hk96tbUzjurjGtmsM6JienFzmxTcyKioc6yDKUdhZMtrNYRbEyg8vFRz/tNh9jXDY0w+cS5+PL1pTmo42+vHyUk6Op1ZoMX1WaQFVxz6MJ+PhCmnx8WZp8fFmafHx5NRm+vJroc/GFNbVv3Itq0nx33hz2K19/RfStXSf6etxvqhHlYk6+dq4OXxO/9tn3ijW1WFYZ91Du+fiqymXDl1cTfS6+sKY4hwFjQxFNIT5bE/DxZWsqN+40FdFEe5ov5jLwaQI+vpAmH1+WJh6xxHJERETEHQAqk/3iV14Se7ZvlW8IjW8iEa3B6OS0GFiYEb/8kUdqLRERERERZaFxaRMRERERsSpxbXxKdHbxiVZcwFSFyZlZsW9jfVN/RERERER5iIuYiIiIiDsAV8Yn5Yyf/vo/onWYX5gXe4ZieeWIiIiIVqBzfHzCW8VibGxc3Y9mY2JiQj1scCx8rlJptNHHPWxJcM+bj48NkdjgKtdGVQLN13g3HM99muCBz13xQduAPUlgb5amPD6qa0pXaMBmlyZsot1VQcJocvtoUo3zaSoz7oxxV8Xwx92nqfy4zyq+UNxtFMll4OMrEnejCc02snKZcflyudy41zU1H/diubz8cccmH1/5uRyOOw9f3E9fH4uVySrGwty82D5U39QP4hymEecwjXaIe9E5LCvubk3F57CQpjxxN5rCcW+0ofy4t8d1WJaP3JqqmcOaibv6nZiZGfcJZ2ZmpGPSkxxOwkhXUOBziaZMG32uoMA1PZ2eGDkWG1yTJu0uYYuL2oawprQNnN/leI7VfGkb0EmfKzG0pnQyzc8v1jS5fMQY/Grz6YC5+Cg9CJ9dMhFwvOarNdSAfbS7/JoVd7emhZomV5zccQ9pKj/uc2ocvrfB+cvK5bLjDrSmNF9WLjPORjiXy407bVpTo19DcS+Wy8sfd6DjnvZD+blcfA47KRcxsTJZtZibmxHbBuvllUGxuMc5DJhcjnOY5lv+Ocwd91bNYe64F78Oc11Q+zWVHfflvw4DxeJezRwWirvR1PXss4cPd8s3NrsqANUDTNkz+x5qnjOGMmvJKgO6IkGXKmln8zEGLvrsygRUHejpSZdY4zh4aLcrMWi+tA1A25DWJBlv22BXOsjS1NPj95FfE3zNa9J8Pk2dt+1LwvC5NHV01Mek+cKaePjjblc2qttg82XFPaTJ5aOlx92nyR33IprKjrsrTo2abB+5487fVcfdpykUd5emrFymL+wjn6Yy497ec9jvHr0oBgYGxBrLjojWgMpk05OT4k88uFd0JuKx9LjbY+IcBrQNcQ7j7+JxzzeH0VflHBaKu18TfG5N2r58uWzsS6LOlz/uVeZyWXHXfH5N2q+huPs0NR93o6lDrsBUiWUXWBW5+sxqydfXDnztYAMoky/vGFAmH+2gTL68Y0CZfLSDdubLOwaUyUc7KJMv7xhQJh/toJ35yrRhYmZO/I2vxspkVWJsalr0zU+LX/nIo7WWOqqKe7vw5R0DyuSjHZTJl3cMKJOPdtDOfO1gAyiTL+8YUCYf7aCd+aq0odPXCXx9tIf6fKiSz4fQmHbn86EqPtrL5vOhKj7a253Ph6r4aC+bz4eq+Ghvdz4fQmN8fdcnpu+YymT9jh+jWw6oymQb3JXJqop7u/D5UBUf7WXz+VAVH+3tzudDaEy78/lQFR/t7c7nQ2hMUb72mO0jIiIiIlqGK+MTIk9lsq0D3eJPHNoqDqzvF49vHxKfuntLrSeNLv97TMvx6YNbxY8d3CK2DfSITx7QNn5GtjWLH5caW4W5+Xmxd10srxwRERHRKnSyscmuMABoo898zZMEG6hcG6I4tgifHpPewBTmc9sAfHztr0n3uZDFl0cTyLLBxccmK9fGsFZpcvOtxrhXown4bfDzVR33KjT5+JrR5OLTY9o3l8/cmMhVmewT+7eI07emxK2ZOTE8MSvOyb8Nntq1Xnw2sVD47KFtYqinS6ztbuRPPqcf9MoVDwuHD+/ZoJ6Du9b1qTbzJdFA7ZsUs8BgLAuqJ7avU8+TeHTbkDgrbZucmxfnRrWND2wZVOdmjDkv6JO8tO0e6q21CHEjsaH1vTvXq3NiI9jYpxdyPQVXaVQm27q2fi6DKuOu+VZPLgO/DX6+OIdphPj0mPaMe7WadJ8LWXx5NIEsG1x8Veeym6994t45MTEppqbS5Q/Z9U+fi5iyZvTZxszJSZt2V9UCzkGf7XwMod1VXo3qA/RR0cCGHjOpxCfBc9NnI6RJl3iDr1ET9tIe9lGjJvxCO36ywbnpy+cjv6a6j9LVG+qaGn3UnCafj8rSVG7cjSZX+cOQpiK5XOcrJ+7YTF++uM+o9nDcl57LoNy4G02huLc+l1fqHFY07ieujYjebnsjqBtcsw/2rhGvXRkV1yblAkYuDt4cHlN9nz64RVwZnxFnbk2qC3zwyNYhMSvPOZvQwWX/++Vix+DHaoueTx/cJsdOiUuSA9y/ea08X4dq+3G5GALvk4sJFkmnR3RMf3TfZrWgGp5s9OEHdm8QXzl2Vbx5dUyMzsyLt2o2goXFBTXmx+7W5+2Ton5o70bV1remS50D7BrU5Y/59mZ4Al1TguI5fBO1e6hPHf+pA/UFWx7Mzs6Ijb3phaOJrS+X4xwWzmXa4xx2581htOeJe9Fczo67S1N1cdd8Lk3LH3ejqco5rJNBtiGA29Bc7YAx9skA96cxxtElofv021sdnEfb4OLLbwPw2+fn4/yM4ZhGuO0GnII+1z17Ifv0mNqTBGj3jcnic4HDQ3zyv/pJAsZHLk34yB0n7SOXJs7hso9jsWG54+4f489l2rTetGAfH9Bjak8SCI0pwufPZeOHNB+n8GkqGvewptoTC9q+NDg+xOcah11+Prd9objL3hpfo2DOo21w8eW3AYT64HP53B/3DnFBLkT6e3pqz8Po7+4UN6fqb8Yf2bfp9oLl8W3r5KJlUOxf3y8eq30zwvmm5hbETKJ0JtW47pLHGNy3Sd9Wde+mAfXNy7Eb+k2ThcWTcrGzT7Y9sm1Ite1Z168WSa9fHVXPH5ALnZ2DvWqBkQRc5hgbU3OLahG2R/KCD+/dJBdFk6rt0ti0+GBtgWXs4pY50z8n/cjC6amd65RdD0u9A9InecCtZGvka2CoN13Sukjci+RRnMPqiHOYwcqdw1x2A06h+Vx9RWxY2ddh7lP58wsbqoh7Eb6QJtro6zos4SoLx/OuLl95QXcZN46jjVJp6RJqnaocmquEGuXbdEm2Rht0n7ssnB6jbUj3GRvaWVO3w4YimrJ9hI1JaBuyfOTjc5cDNHz2mKX5qPm46zFZmlZT3P1xak5Tms+lCdQ15Y87/ck+PUbzpW0wPiqSy3faHNZ83FlgfPndC2LTuqHUGB9+5K5N4vsXRtTfvdLOj+7fLL559oa8uJftF0fEyPScePf6uLg8PiN+WB5LXxIsYh6TC4NXLutFhjnmphx3a3pePLlzvTgqFzLsaXnu3E3Fd6TGx2LmD05dU+MA37LcnJoTH5ALjyPX658Yjs/Oiyd2rBMnbjZ+6pe0h29c0PHB3RvEfz6j2/jW6JN3b1HHmGPRm9TAHqDv1OzCzisTM+obmmYxMTMr1slU/dg9u5uOO39nx70dcjnOYYYvbYPxUZzD6jaUHfcyNZWVy9k+8sc9n4/qmtov7npMlqa0X5cS9046becCDqA2s20I4GSMs8EJdT3n9Bja6LONB3DBaSNkAzYzzubjedSkYfhsGD47YYDh82vy+8hlA+doZx/dmbmcjnu2pvxxd2kCRTQZH9lonY9cmrJ81J5xvz45LbrkG4f9JuAD36jw+OyhrarS14Wx+jcg50enxGBPl/rGYlwuLgD7Udb3rmmoCrawuKj2lIDk/pcr49Pq2xP2rYA/kouVPUN9ii95niT4BoZbxR619sTwbQ6LGPbo9MnY7Fjr/6bp23JBYr5N+phckD13rnHRxa1k3BbXLX2Elt87Pqy+hcEu9gMlv2VqBlQmO7BpaFnjDt9qy+W6pjiH3ZlxX3maDJ8Nw+fKZcPn15TXR6v3OqzrmWeePVxri4iIiIhYZTg6PCJevTIm1g00/nJ8CDemZsXk7IL6BoLL9+HJWfUtyXX5L+30r5EX/BOzfEsyq/bOcBtW8q4E+hjTI99s+LaEv/mGhgUB38hcldxXJqYVD+cxfWOzc+qbF4NO0aG+PeFbETiS4FsabKJPvuWJ6fkFxW2OuyX/xnb62QtDO98svT08LmYkpzn2utTAeUdn9HkvysWWOZ43Us6fB6MTk+L9uzaK/Rv1Yi0iIiIionx0zMzM5ZudIyIiIiJWDP7jW2fEH529IXZsrG+0j2gtLgxfF//Nk3eL+7fWv4WKiIiIiCgXnZOTU2J2Nl1RgSoDVBhwbfihKoCrWgDHar509QHa6MvHt6BssCsqAGyGz94MxPNsTenNRe2sCWRp8vGFNfn48mrSfK6qE9k+Sle+iHHXqFITscuvSfOFNPn4QppCfDaa81F+Tasp7qdujInenvRX9RGtw9zcrFjX1bGscV+NuRzSVPUc5nrvMppCfDaa81F+TXdK3KvSBLI0+fjCmsqN+512HdZJ6TXXYERNTU07HcJAlwDKocHnKsmm+XBio0OMkZzLBiXeaHeVrcNmzdfoEJ77NIX4aMcOO8jYq/nSmtBJn6u0n/GRDfypbXD5KKzJxUeywOdKGmOD30f+OIXibkNryht3XiDEPc0XitPkZJG458/lUNx9mloX9ypzOX/cwz5Ka/LxZeWyj0/bEOcw2rHDjvv5WxNNVyaLWDp0ZTIhuhfnnXGKc5hGkVxupzmMPhtxDtMIaWpd3KvK5fxx15p8PvLFKRx3GyaX88V95V+HdXZ39zg34ehNbT3CtRm0R74hsqHGBsf6+PTGnR7HRiD4up18xgbXxie9scjF57chxGdssOhu87k2Phkb3D6CL33hwKYmbYOfz9YEtA0uH+kxLj5sXrPGHyc3n97M6I+7S5Pm89ng01Qk7v48CsXdxCm9OcyXy6G4Z2sqJ+4hG8rO5bqP8miCz70xkXYfHzkZssGdR5rPhtEUer37c9n/2nDx+eLOU+NzG6E4ZcU9pMnFZ2xI0k3Ozqt9Iz2O4yNag6nZObF1sE/09/Y54+TPo1DczeszzmF+PuOjPJrgyz+HGftsxDlMoxlNLj5jg0V3m88Vd2NDvrivhOuwUNx9uey3gT6XpiJx9+dRKO4mTiXPYZOTM4vYYROzImI1jGNsQ83qK8+YsvkYw6LNVbVgfl7X/46awnx+TfR1lqJpJfgIRE1F+dy5YviqyuUifKAaHy2fpnMj4+LvfettsXfbllpLRKtx9daYeHxzv/hzjx5YtriD1ZbLoDWa8s9hd56PoiZQVFOIrwpNK8FHoIimuLE/IiIiYpXixfPD4v947azYvXljrSWi1bh0Y0T85D3bxY/cvaPWEhERERHRCqSXURERERERqwLnb02Krs707QARrcPC/LzYPtRXexYRERER0Sp08pWMD0X6qhoD2pmvShtCKDKu7DFFNK1UvnawAZTN50NVY0DZmsrkawcbgN13WlUmS99PHNE6zM/NiW1r+5c17gYr1QYQ6vOhnccA37gQX5G+qsaAduYraoMPRcaAqs5VRG+RMaBd+Lo+//lfPMw9bPbGGV2hYVp0dHSm7nsbH59QFQvszUVUHaDCAPep2Rt7aKeaAPe8Je97wwj4GGtvcKLSg6lYYPNNTGgb2DCVvFeOc9Pn4gtpMnyMSfIZTS4fwQWnTxMl4OzNSqYsnEuT8RHtzWoyPuJ4ewOW30cLyr6QJl/cOZ+tqZm425qaizub7JrXNDExmTvu2BCKu0tTVtzdmvxxr2tqPu51Tf6425qMj/LkMvDF3Wjyx306l6aiuezT1EzcV/sc9h/eOC0GBtaKNdaxEa0Blcmmp6bEjx3aIf+djnNYU7mcbw7DvjiHFYu71hSvw0K5rH1UTdyzctkXd1cuNxN3W1P5cV+GOYyyZxxog3J19CHABu2uMm4c6+OjRrRrDNB86TJuhg/H2CAJQ3z02whrmg3yuWplo9PPhw0hHxXhS2vCN/Tl8VHdBn+cfDbk5cvS5Io7CUtfPk2az22DXxMxcvOVq6nOF4p7rSEB2kNxd9vgzuWlafLzFXtt+DWVlcvtNIe54u7TBGh3+SisqTHuujLZguixLqIjWgcqk21Z26vu0yYWcQ7z53KcwzTCmsqN+0qbw5KgvVicQj5qz7ibOPlsyMuXpSkU93yaNJ/bhtbMYV1f+tKvHmYVaK8eqQbAyoe+5MoIsNrlE0z7EyaOg4fVlL3SYvUFl70SBIxhVWnbkORLrrABz2nHBheftiGfJsq1McbP15wm/u7sLKKJcnJ6jN+GNB8+wIZqfKT5kkhqsn2kNen8ctng8xHngK9ZTfzp42sm7vQnEdLUHrncqY6nz6eJMc3yhTQl7UsirCkcd7cNRXNZx9bmy4r7ap/DLo9Niu+cvSY2DK6tHRHRatyanBb3bRwQj+3crOKaJ+78SeyKzmEm7gb8TZvOo3bM5TiHGRSdw1bme1f+XAZ1vuY08Xfx67Cq4l7UR+Fctn2UpamsuPOnj69I3JM2+OIeq5NFRERErELEymTVg8pkP3Fom/jRgztrLRERERERrULj0iYiIiIiYlXg3MhErExWMahMtmNdf+1ZREREREQrERcxEREREasQZ25OiN6exs2VEa2FqUwWEREREdF6dFKBwLVZis3V9Lk24bChxrXRhmMZ49oIRFtxvvQYbKbPBdpXmya48mri+JAN5fsoPSbLRy4bQnwhH9FevqaVl8scn1/TUnzk1+TjC2ny8blsAIzJ66NsTSt/Djs3Mib64yKmMlCZrLuzQ6zr61nWuBvUbYhz2FI0+fhcmrL4XDYAxuT1UbamlT+HGbSLJrhCmnx8IRvK91F6TJaPXDYU9RHt5Wvyx73r85//wmGe2KVGTfkyNtXYG3TGxsblYMrW9TRswqH6wOTkpCJnI04StFNJwN74hDBTBq+3t7fWqkHFBFO2jnFJ+PhwHuXfXJooMTc1BZ/eUJiETxN8WZrYlJfcdITjQ5qwgTiyKSkJv490KT6C3NvbvCZtg7tMpfbRotqAlUQzcbc1YRe2l6UpFPfx8UlpQ764o8mU9isz7rYNWXEvmstzcwulxD2kyRf3kKZw3KeUJs6TN+4cn0dTKO536hzGrWT/vzdOi7XdXcoP2DCJP+T5pqRPzGNCtU+pvxV3Q9+k6rPH0AYff6fHGL4Z5XvTzrnRm5dv+PwZcU0+RO9aD19aU9i+pWhq7LM1jcnjDm1aK96/d2sw7it9DgPNzvNG0502h7njHucwEIq70cQm72bjbmzIcx0WjrvPR+W+d8GnfVTsOiwd9zvzOqzj6tXri3QODDR+BW6cuHbtQErA6OiYSpChoUHLifNS3LhyRl9f4y8Wmwlh7dq1DQLggQ9HDFpVdDiecX19vakkpBY1icGYZJARjUNcmtSboNTV39+XcnCWJo5nXBK8EHlB+jTBA18SBIog59FEAOHjHJwriZAm7MZ+bLATDR+5NYXjDmxNvAB4IaAHXUn44h7SFIo7L565uVmvplDcBwYGUi/uInHPymVX3Ivkct1H3fJczeeyL+7hXHbHPaSpmbjnyWXjoyK5HOewRk03p2bEc6euiCGpg98hYBw+sN8seaPSb2C90oa6X+HBbnxj5wr2Me+5+GinH73JOPFGzXxJm50r+EC/gVHtpjFOb778gjh76qT45E/8lBxbjxN5hB/CmnS1myTQhDY0JeMe0uTzka1pQfLeJRcxd28cCsZ9pc5hS3vvurPmMHfc4xwGQnFnDP71aXLHPf91WCjuxa7D9MIsTy4bH+XJZeCP+515HdYhjVmkDJ1dvgxxGIQDk6QAZ8nzpQzBCPoIfFIYCPExOfIGlUwYYMa4+HhjXlhI8xkbQppcfK3QRJOdgCE+nybAi4rj8/loXvWTUEkU1cQYkEdT2EdFNGkf+TS1Qy7TZPuoGU1+H+XLZdrpLyvuRXI5zFd+Lsc5LK1pVvKDKuNe9hz24gs/EK+88qr4i3/pL9VaNIpqsn1kUNxHjZrWyBzgmJCmlTqHLS3ucQ7L0hTnMOOjxTbP5XLjnlcTY+TQEn1URFP7zGGxxHJERERERFvi9ddfE88995z4K3/lr9ZaIiIiIiIiNBqXNhEREREREW0CPunjk7iIiIiIiAgbcRETEREREdGWYC8F9z1HRERERETY6GSHP5uSbHAvIZv4uOfMBhtqeNjgHjXGcI+dDc6hqwyk715jDJt+bHBuxrg+ieN4xnHPXBI89/GFNBk+G9jr99GsGoNuGz4fcW7GYIsNn49CmvBNlo9sNKNpOePejCY77mFN4bjn1ZQVd5emlRL3ds/lsuLu01R2Lod95NbUjI98ucw4Gys57oyjz0YzmpYz7lXmsj/ucQ4zyM7l5uO+VE1lxb2qXA7H3a2pGR/ly+VWxb26XM4X9ziHgZAm46NOqgXMOD7poiILxK4TUoWBhw0qCTDGxccJORebgZJANGNcfJxb25cWYKo32InLc82XDkqWJs1nB0Xb4HIiOhmD7iQIrOGzwblpd2mCT/uoeU0khrYvnWh+TbqyTzju6QkBPlecQnH3a/LHPazJHffFRa2JPhvN5LLtoyxN9Nlxh8Pno1Dcacd2NCQRjrt+PeXL5VDc3ZpAEU2+uDPn+TXlj3tYU3vMYZqvvDmM9nxxX7lzmI5v+vWp27Pi3mgDgMsVp6zXu1tT+8xhmm+lzWFlv3cVmcO0fXlyOc5hdYQ0aT53LtOeJ5eLzGHA56OQJl/cQ5qaibt1va/46AvHvdEG4NOU9Xp3a1r5c1jXF7/4zGHuO06WXTOgGgB9dlUAaaqqMGBXJhCCigMdqsKAXemAABo+uzIB4LYBOJPgjZRjabf5ADa7Kh3oMWk+4NfEmC5lu9u+NarfBlUYNJ97jF1tQcPtI6Dty6eJPmywq0FkaWJMOO72mPxxBz5NIL8mf9wB53Hx+eJOXrp9lKXJH3fq1TMujSy+vHHXfrU1cZ5icfdp8sUdtEvcs3LZ5qtmDtPw+8iniecuPmMD7WlN4bgzJl/c9Rj40sgfd58mQB822HHnTeqFF34gPvrRjzo1MSYcd3vM6pvDsNsd9yxN/rhXN4f5fBTOZcbky+WsuGPDcsc9K5dtvjiHGVT13uXTBOjjPL64+zQxJhz3ZjVxXH5NoPxcrm4O65iamllkkG0ICwge6ZPpFSTw9RXhC40pm881pmy+1eijqEmjar7QmLL5oqZyNYEy+cyYsvmW00dmjKvvxo0b4h/+w38g/s7f+bu1ljpWqqal8LnGlM23Gn0UNWkUsQGUyWfGlM23nD4yY8rmu1M0LYUvlliOiIiIiGhL8ENn//1//6vi7//9f1BriYiIiIiI0EgveyIiIiIiItoA/FKz6z74iIiIiIiITr6q4SsZF+hzgc039gYcA98YzhHi89ng2gQENJ/PhrL5VqOPoiZQRBMok281+ihqqqOYpugjwH3QVMdxjVupmjSf34YqNIEy+Vajj6KmOoppij4CUVMdZWoC9HWOj0+okmg2qDBAn6syAWXNeNiGcixjGGvD8Nnl2jDc8NngEzja2dxpA5vpswXynHaXJnjoc32yRzsPWxP2+jRR5s7lIzgMn42Qj7CZvrQmw5dXk/FRoyYSk/O4yvRVH/e0plDcfZrwmdYUyuX8cXf5yMTd1hSO+6wa48tl+ny5XFbcQ7nsi3vxXNY+sifB5Yl7Vbkc5zB/LvvjHtKEfdhiVxFaHXNYOu5ak9tHWlOcwzhPKE7l5fLKnsNCr428cafdF3f6fHH35TJ9RXI5FKfy4h6vw0Bzubz8c1gnwl1l3CiVxslsUgCxyxCO1WPSfATMFRD26vAG5SqPp/nmpWNqDQlwPONs83ju44MHPpcmbLPfKA20j3z2+cZgQ1pv2Ef4nE8daw0JaE1pvpAmjndp0jbMpRIQVBV34NOk+Xxx92kycXJpMvY1rwnQ7oq71lQs7i5NWXF32VAk7kD7yJXL/rhnaXLFndxa/rhXk8txDqujFXMYFWhcNnKelTiHweeKE+bqOKUHaR/l0wRod8VdayoWd7emcNxdNmTFPX8u++OepckV95U6hwHfGB13vyZXX1hTnMPAUnI5zmHZueyKu9Y0K7q+9KXDqsSyXUKNKgG6jFu6hBpvKj096ZJsHKdLM6ZLqBk+yqgl+fibPvjsEmqaz106jzG0p/n0LQguPm2Du9SdKdHnKgtn+PJowp/d3T0pG3Sf30e6NF0jHyiiSduQ9hHI0tTquAOfJs3njrtPE3+aMWXkMkCT30cuG5qNu21D+8Zd292MJl/cXfa1b9yb05SOO315NTEmpClv3FfrHPbtb39LPP3006Kvr6/WWvdrSFOr4w58mox9ReJOXxm5DNDk95HLhmbj7tJUbtxdPgKGz60p7SNtdzOafHF32Zc/7j5N/GnGlBF3zReKu/v1Th970PJoYkxIU964r9Y5zO0j7deQpnxxD2ty+Qj4NBn7NJ9tQzW5DMK53B2rk0VEREREtC9+9VcPi5//+f9WbN26tdYSEREREREhF05xERMRERER0U7gF5y/973vidOnT4nf+Z3fEY8//rg4ePCg+DN/5s+mPjGMiIiIiLgz0fj9TERERERExDKDhcrJkyfEl7/8u+Ktt94Uv/Vb/0GMjIykbimIiIiIiLhz0RnaNDM9PSPsigqATTj+jUDhTTi+TT3uDWCaz7XxyfC54LNBb9SDz2XDfAs0uTaALSq/5uVjjNtHRlPaRxzPOBtZmvLGvUpNhs9GSFP1cXfZ0KpcvjPiXpWmVsWdsYxLPhgzMzOTaudBO/12Ozz0sXHS7mNDpbEv+cCfPj5jA8fYfXC5+Dg31W7y8jFGb5htbK9rqvuIe6OfeuopMTS0TrUPDg6Kj3/ik8qn9Gdp4lxuHy2fJvMwfHZ7SFOdT9uQBHnHGBsch1bG2qDN+MEGXKFcxk4bIT6fDfD4+Kp6vcc5rI6lxN0Fnw11H7lsKJbLMe7VajJ8Lvg0tSLu9HUMD19fZOPM2rUDtS4NypcxabKZsre3p9aqcevWqPp33boh9a8Bk/nk5IR6AxoYaOSjFNr8/Jw8z9qG2wEQNDY2Jv/qkHyDurEGnDs9PSXYmNXfX9/UCcbGxuXY+RQfwviVZzYKDQ6urbVqoGl2dkbqcWnChkX1ZpncxBTSREk4HN/fPyBtbNyQ5PMRmrhVgg10tiafj9CEXjQNDTVqomwdj97eXvVIAk1UqhgaGmrQZHzkijul80iMgYF+qam71qoRiju+wAd54j46Oio6Ojodcfdryoo7bfQlUVXcq8zl8uOuyzmitZW5zEQ2Ojom7eqU9jUf99FR7SP84I57dXMY7fQbhOJ+9da4+MbRc2JusSPlV3Mhi/+SGx1po482+pLAPvzA+ZN+AMSDXO7p6ZVjdRswbx681tggmYR+U1mQtqU3ThILYMcCn2MH509r4o1ywakJ+2izYwEfryeXpj/6+tfFt3/zX4p7Pvgx8Wf/8l+ttSZ95NKkqxi5NoP6NOEDbDebcJPwa9J8eTWVEffe7i7xqXt2iwHp/3aYw3gNovnOmMOKvXet1DksFPeqrsPIVeK7nHFHU1XXYUXjji/wgS/uZeVyVXFvZg6Ti5gbi4ju7++vdWloATMqwPakrpNdqBMmwWpKO7E7lRjUjcYggpUUzcSNaF48tmjePEg0BNtO1EHRE0LyjYo3IxzMOezEMJpIDPuNjzE4kaAk31jCmggKF/xMCHVNwOcjjmecS5PPR2jCBhItrYkJxiRaY2LgV/xra9KJppPdjjufLPLiYRGTnORAVtzxKb5NIivu2IV9SYQ1heNOHOxkryru1eZy2XFn0mznXJ6QmhaUfUkfhTSZuBO/cuYwHXdfLrvi/val6+L/evmEWOzpl5prjTUwDiRjZODr082LucYA3dfhsEH9t0S+rDHpPmODi29+Zlpcfu17YsOB+8XA5m21Vo0svnbVtBQ+0z4hc/GXPny/2LV+bVvMYZyH890Jc5jxEXblfe9aiXNYO1yH1X2U1tT+7135c3kpcW+H67Cy4t5MLneMj08tsvJJCgMYw1fXJEWSFLD6AfZFLg7hpHyalRQGEMyqz8/XkUrAZvhIABsEK78mvq7StzEkEbKhah/R5tPk4+N8PhvaIe5FNLV/3KvL5Tsp7sutqUjcX71wXXz16AXR0d/4hhMRsRScv3pNfO4D94oDm4dUvsrMbXkuN/N6j3NYe2tqp7i7bYjXYWAlaGqXuMfqZBEREREtwmsXr4uvHbsoFnsbP+WKiFgKkouYiIiIiDsVjUubiIiIiIiIiIiIiIiINkdcxERERERERERERERErCh0Uo2KDTc2uE+OPu59s8FGKjYK2eBYxph79pJgszh93MdmAy44bdT50jZgM+O4Ly8JntPu1qT58mjCXsZgvw2jycWXrSntI2ymz9bEfYGaz63JbLKywfGMY3wSRhObrGyE4g6Xy0dhTe64hzTV+fJoqj7uVeWyL+5+Te0Qd5PL+eJOLueNu9bk8tHyz2Ec69ITEVEW4hymsZLnMNrbdQ6r8+WPu1tTKO75czkr7mFNobg3agrFHU3Fr8PyxR0ul49Cmnxxz8plzZdHU3VxN5o6Gew6IQfQx8YZG1rAVEoAxzLGfUJd4cIWoJ04pThtEAzNl65Hjc3aBjsoC6rdrUnb4AqyX9O81wbD504Mt6aQj7CZvrQmEtfNhw2MC2uqNdRQ1+RODPrKi7vhs+Pu1xSKu0/TcsS91bkMlqap1lBDkbgXz2XNZ/uVpyEfodXlI58mfMZ53D5qhzmMDZDp80dElAV/Lsc5DIQ0tcsc5vdRO8xh7X4dVnbcq7kO430hrybg91GRuIdz2WefT1O1cdd8Xc8886XDVBhIVwUQqsLAmjXpWvuAdsYkqwwwhqf02ZUJADyUSrP54HDZAEyfzYdYlw2AEnhUQEjzLSpNLhuAn0+oMWlNHV4+n6YsH3G82wb43JrgoT2tSfsIO2w+HQuXX/1xN3bb9oU00U4ddJd9fk2mL21fSFN1ca8yl3W1mHyayo67W1M4l+HKm8vYwG+PdOWOu88+nyZAu21fWFP+uF8emxTHb4yLzp7GMp4REUvB6MSk+OCezWLjgM4rVy4DnsY5zK+pneYwl4/aYQ4Dpi9f3Kt5Py4/7rTnjXux6zDz3pVPUyvi7s5l3Ze2L0tTlddhHdPTs4v2IANWiq6TmdWSa5xvDCiTLzSmbL6qNAHG5dVU5hjQDpqK2FA2X0hTmXxVaqLP1Q7K9pHvXEXsKzIGlK0pLx/Vyb569KIQfbE6WUR5SFYnqyqXQZExreBztYMyNQHfuYrYlzUG5LGvyBhQJt9q1AQYl1dTmWNAO/soSxMoiy9Tk2uQgW8gY3zjfGNAmXyhMWXzVaUJ+MaE+MocA9pBUxEbyuYLaSqTLzSmFXw+lO2jkA2hPheKjAFlayrm89ofEREtQJW5XCz/y+fzoUxNIGRDqM+FrDG+vrI1lckXGlM2X1WagG9MiK/MMaCdfRQaUzZfliZ/b0RERERERERERERERBuik40zdhUGwNc79JmveZLgKxweLvj4aLM3FRn4+MI2+Pl8NtyJmvLyGRvuJB9FTUvTlJdPj7lTfKTtiIhoFarL5dX4+tRj8vLpMXeWj6Km4pry8hkb7iQfFdXU6SuHRmUO+lyVBChrxsMGlXj8fFQfSJdXwxC4XOXVOLfmS1dboCoBfbZwntNOv42QJtqxw3ZWM5pcJej8PvJr8vvIr4kKDfS5qjfQ7tIEv7bBVUFCl61bzriHNLVz3KvM5bLj7tME4OJhA020+yq8wNfquIc1Lf8cxrH28RERZYK8I//iHBbnMFD2HFZ23EOaaMeOMnIZ+H0Ur8NA2bm8HHHv5CBbGGC1RJ9r1YQRLkM4VI9pFAY4B302uA1O8+WzwccHaM+vCb45ZU8SIU206b5aQwJ+H1WniZJ7jHHdahjic7UDvya/j3yayo67scGnycdHO3aUEfd2z2Xg58ufywCuPJqwiT5X6chqfVQ8l226rLi7zh8RURbIO/IvzmFxDgMcqseUN4f5bChfkzvuHKrHNJ/LwO+j6jTdSddhgHafJh8f7dhRJO5dzz57+LAuX9a4PYZSaJQ0c5VQYzONq+QZY3Sfq5wuZdfSZev428en+7QNNh/PNV9XwL68mtKl+MKa4FsT4MunyecjUOdz2eD3kUuTtsHNZ3wUtqH1cQ9p0nyNcefPOp9bE3xuTeXEnb/rNrQ2l7UN5cVd87U+lxttKCPufk3ZcU/b0Ewu23yNNjTyXRmbUiWWO7pjieWI8pAssWzy1X69xzmsjvqYOIdhg83XaENr456tKR33IrkM6jYsPe6gzueywe8jlyZtg5vP+ChsQ/6423yNNiw9l0Gdz60JPveYYnHvmJmZSy+LIiIiIiKWDEosf+3YRbHYG0ssR5SHZInliIiIiDsVjUubiIiIiIi2A59b/chdm8QnDmwWa7vbc9pe09khPr5/s/hRaWfj52wrB+/dsU75eOtAt3rO383iw3s21P6KiIiIiKgCcRETERER0cbYM9QrPioXB7em58TNqTl+3KvW03r0WrcE+PC+nevF07s3iJvSxlsz7r0HrcDHpF/KAguW8dl5MSJ9PF/bYPr+Xc0vTG7NuO8Rj4iIiIhoDTpGR8cXzb13SbAxZ3Z2TvT09Kj70pKYnZ1VVQh6exvv86ayAFUVuH/Nvr8uxEeVAXMfXRKcg8oILj42AcEJX/L+OjYNYUNYU3fq/rrqNPn5fJoAfD5NjOM8tibD59I0OzujuPJo0j5alHw9tRaNpfjIpamZuNua2j/u+XMZhOLu0xSKezFNM6otTy7Dhx1G08TERK0nHHfi4crLpcXdl8utj/trF66J3z9+UfRu3FZryY+/8NBO8e61cfHCpVvqeZc89XztJmDzTcGcbPijM9fVNwmTc/Ni91Cfav/6yWvq34e2DIpdcjEETBvf7PRIsjmp+Vtnb4iP7Nuk2mck1x9LLrh7pKYZ6SfGJL+VMBwGf+19+8Qfnb4uXr86WmvRcI1h4WHc9/qVUfHINn1L1MuXb4nhiVk1hg2dvBT49xunrokt/d1iQuqamNUbPPnG58TNSfFnH9whfnBx5Da3Od870l9nb02p56NycTHU0xXU8EG5AOObJPwAMA8Xf/FDB8X3LtxUbcYW4OLBJvr75MLvh+7aqNq+IfvgMcdfGZ8Rr0rNS0XydrI4h2mENS19DksiNIe15r1r+eawInGP12F1ZMUdrjyaWuEjl6bW5XK5ce+4evWaWsQMDg7WujQod8bgtWsHJEFjAty6dUsZu27duoYgY8j4+IRy1MBAf61Vg3b6BwfXNoiDBz544EsC505OTom+vl750G/KBmNjY0oEdifF0UafSxNl36ampkV/f1/KWT5NBGtsbFz5AF8kwYUZQV67dq1yskFIU8hHPk0Ed3R0VAV+aKjxHmg04Sf8Y2tiDGMZk0waNI2Pj8s4uDRlxV1ITUMNPioS95CmUNx9mqqMe9W5zAbEoaHmNYXi7s9ld9y1plGpibg3n8u0z83NiqtXr4pz584peycnJ6Rdi/LvScnXqWxPAj4e5CUTXRL4jmokfX39UlM9TuiEG522X7lwQTP+YQNiEpRmRFt/f78V93kVK+JqL9Zpp58YJuMED3zwwJfEieER8db1cXHvR3681pIfXEj/j985rv4elBfjYExemLMImZydVxfJ/P1r3zsp/sLDu8Q7w/J1IG3plguUqxMz4sj1CfGXHtsjXqtdPA/2rBF/ePqa+KUPHBD/WS485qX9r8gFxHt3rFdcH5WLmb///Enx5+Xi6ZxcCEzNLYgrkufA+n4xJs9394Z+8dtHrojpRHWmpI0GLJy2DPQoG3Exi4TvnLspfvnpu9XFPTi4sV8cv6HLe+6TvP/+7UuK6/dODKuFxAfk4uJ/eemM2CfPfWNqVlyb1OU+//bTB8X/+fo58V89ukf8vjz2+3Ihw0KBb1HAvZvXin/7xgXF9dtHLosBGX/0/5kHd4q3pH/gZozB55/aL/7pC6fFrMzPJBgPP/i45P87z50QH96zUR63IOMu1GKMMS/KBSY2/d3njosfP7RVLVYACyzGYRfMfGOFnqUiuYiJc5hGq+awPO/HZb93xeswjeJxb9/rMOOjYtdh5cS9ylwuO+5GUye7+5OBMqDNVXkA6DF1RxhwLGPK4sM5jGECtAEfY2w+nmu+9Bh4NF/d6QY+G0KaDF8eTSE+nyag+dw2cEHo1qT5bGgf0ece49fktjtLU9hHLk3ZcbehNVUT92xNab5qc9nvo2Ka3GNCfNh15swZ8fzz31UTzfbt28SOHTvFzp075GOX2LVrp3qefNDOv7t26X+TD46nn/HJ9p07TbtrDOehr7Gdh28Mx5px6b78fFu37xBrN2ypeWXp4Danj+zTn+q/f9d6sa53jVgvHyxaDI7eGFcX6C9cvCUObZRvWrKPxQTH8nhSjgPd8vXPcVyA98i/1/etEQPdXaodXBibloubUXXM+3auUwsoztUr471nXeObmgsf3LNBPH/+phr//QsjakECuB1OtcnHQWmf+fu+TfXiB1z808Y3UHyL4sL5Uf3bARwHuPXLaLxrXf1N/I2rY+oYuewQl8enxQap8/jN+jeDgNvm7AWMgbFPZrx6jo7vST208e8Hd+tvXQwe277u9hgYn6rZhe829jVekJQB35xT/PUe5zCAXa524NdU7nsXbX5NqzHu1WjK4mOMn8+tKe91GKDPN6ZsTWE+l6YVch02MTG9yCebNjGrIlZVHGgLZwXGJ6oQJBEaE+rj082ybABl8q0ETfSpYObUBFce+2iX3SvSR3n5oqY6sIEm+pLIsuFf/+t/Je65517x+OOPi/Xr9YUzCGmiD7tXoo9cNrx64br46tELoqO/8VOpPPiVDx0Uf+c7x9UFMTCf+P/NDx4Qf3jqeq1VX/jzTcy/e+OCes6F+acPbhX/6ehl8Tc+cLf4g9qtUPC8II+F93+qfXvyJw5tlRf4M+pC/rPyb75V+dF9m8RLciHEHpefvn+H+iZkZFp/03FmZFJcnqj/UJzrm5ife2yP+D9eO3f71rdffP8B9W1R8ljX38m2zx7cIp6TCyEu/jvk/8ziw/jAHs83OAb4I9kP9snF1/a1veqbnX//zqVaK+fZKoYnZ9SiJInk+F+W5/w78pxfeP9+8Y++d0q1kQX/r/ftE7/+wunbNiX9Clx2LRXJb2KqyuUiryfQLq9PmuhLItuGBS/favRR1FRcE32MyasJrjvFR63Q1Mkg+2SAAXztZA8EHO8yPjQm1FemDeBO08StbHn4jA157SORVqqP8vKFxoT6VqsmYm8jNGZkZER9Rfzkk082LGBASFPeXAbt4iO3DZwrfXwecDsTt0qZh2Hjliy+VTAPH1hEjMqFiDluTr5h2OAbEb4t2DLQfXtT+7Hr4+KH9m5U52RfCN/EGI7kAgbYNoJvqn01W9QeGNrMfpJmYHgObVqrbp1jgfH+3esVV3IzP7e6cdwGaTs2GPt42OiXizpuM0PnPZsab0147vwN8eg2XZnMPHxgMfhJ2Y8d/MuteUm8cXW0gSPLrqWiulzO/3oCZfKFxoT64Mo7h2kb/Hyr0UdRU3FNVV2HZfG5xoT6qvRRKzR1PfPMs4drbRERERGl4OLFi+L48ePiwx/+cK3lzsTlsUm5GBiTM3vj/po84Lauzf09YlpesPM4cXNCnJdtF+VjS6Kdtpn5hdv7RoRYVJv0+QaFqluLcm3CcVQ5uy7bWADADehnbwz9x29MqHaqbfENCG1vqdu61jScKwme27Zwjk1y/NTcvLKD29YA5zXjXX//8F2bxFtXx9RzNuefHZ0S03J8v3yTgwt+NvVj44T8e1b2sWfn5MhkyoYkP3fJbejtFpPz8+obHaMdcBw8LOB84/mbMZfGZ1Q8lC1yzMuX9V4j0z8sbWEPjuHgYdu1VCR/7DIiIiLiTkX8scuIiIjSceTIEfGVr3xZ/MIvfK7Wcmci/thlfti3gEWkEX/sMiIiIkKITnb4UzHABpUR6OP+NhtUTuBhg/vTGENVAxu00ce9b0lwXxtcVPexwbkZgy02qHSg+RrXYDynnX4bIU2cHzuwJ4lmNHGMDZ+PwprcPkITXC5NVG/QmtK/zeDTBD9jQnHPo6nuo+Y1hePu15Qd93y5XGbcq8zlsuNO7OgrEneXJtrY0O+Le15NHM+4tI+yc9kV9yxNobjnyeX5+QXn+SP8MNXAIppDe8xh5rWxeuawuqby3rsYt9LmsLLfu0KasuKeJ5eBz0fN5XKjj9AEVxW5bHxUJJfvtOuwTv7gYsMGJ6KPN2EbtLtIMUDzpUVTipg+24mA9qmptOM5N30u0YbPBdrptxHSxPldfCFNtNFnOx7Q7uILaSIOPj6Sxs1nNKX50OR6wdU1pX1k/Jon7sTUxxfSRLs77n5NvrhTfpd216RUddyryOWsuLv4QnE3cfK9Pl18c9weo/jSPmLiQ6vtI56Sk65JLqSJ9ry5HIo77TxshOJu4pRvDlt0Hh/hh64EFtEs2mMO0zYwD9ugfSXOYYbP5SM9h+V776J9Zc5h5b53hTT54o69Pr6sXHbxhTRlxd3NF87lvHE3mshPG7S7bDA+cvP5NdGeN5d9cV+O67CuZ5/90mHXD8kIwaYZNnKnNx6xoYa6zfTZ0Bt0ulN87MvheNcmHUrTYYOLjzLAms/eKKQ3Urn42EjLmPRGoWY0pasg+DQl+dKa/D7yaYKC4/Pz+TX5+DjWF/cQXyju9JUXd7cN2OePu/br8sa9qlwOxz2kqfy4p/muXbsmTpw4Lp5++umUDSG+kA20c648mrLj7tbkijun5XgeaU3uuLMn5sTNcdHRHfcuRJSH5J6Yei7HOSybr/k5jNNyvEtTiC9kA+2cK4+m5Z7DQLlxb0ZTvrgbvrSmUJzcmqDg+Px84bi7+HyaOCzEF4o7feXF3W2DHHV7jEtT2XF35bLhi3tiVghYkdrBbQZFxlU1JqK9UGbcQ3tiiubKSsyxuCcmohWIe2LcKHMOC+FOmsMi6qgy7lXm5UqGvbyKaFMUTcwi46oaE9FeaPdciTkWERERQpzDIlqJKuNeZV6uZMRFTERERERERERERETEikInG3Bdm7yoMkAfX0/ZYKOPa7MPx2q+9JgQH+15+TiePhd8fFmaXHxFNcGXVxNxcNkAaC9LE/DbULYmPx/tefmyNeXPZRdflZqqintRTfDl1USfKxaAMXn5fJqAHtOuc5geFxHRKvheG+Xncohv9c1hhs8F2vPy+TQBPSZeh/n4imqCL6+mqnIZ+G0oW5Ofj/a8fFmaXHxZmlx8zWjqpLSZq3ICu/4peeYi9pVD41jaXVUGaGOcLQ5DaJ+cTNtABQT4XJUOsNnFx3OfJng0X7p6g7bBXeKNdp8m7aNGG+CgnXE2Qj7yaeJFpe1za6LPrUnz2ZNjc5r8cbdRLO4hTbOqzxX3LE2huPs08XDFPaSJPlsTHIbPRpFcNj7yaaKv1XEvmsvYR79PUyjuruoqReLu0wQYQ58d95Am2hiX1uSfw6igYh8fEVEmdO7FOcxoKmsOo40xPk2hOczlo+rmsHDcGdfquIc0waP5/Ndh9kWr4fNp0j5Ka6KdcTZCcc/KZXfcq78OS8e9ulw2PsqTy83E3dYEX0gTfZ2UO7MHAm6t0wam77FjjG28Rodqd92WR1Lq0mqNnfo8/k9tfe3ATnQDXzvwnwcbXOM6anpdfcbutGDaXaXkQj4iDu4xYU2+McA3TmtKj6sq7qAVmly5XI9TGnC5+bQmxqYRiruPjz63DdXF3Z/LobjT7j5XOO5+P/g0GT/kG8eYdp7DfHoiIsqAzj1XjrVqDkv3rc45zDembE2tmcNcceL82j6Xj7Li7oZ/jLsd+PiMDel4xOswA9+YkCbOr+1z+ahcTSE+t916jHtc9hzW9aUvHT5MaTO75BnPKWlGGTV7s5ApTWeXUKOkHn3w2WN0mbR0GTz+pk+XhbNt0CUT/XyUeGssyab5tN15NDHG8CXBcUaTi4/jbT5tQ6fo6UmXhcv2UbpsneHzaTJ6Q3xJcJy2Ia+PTJzKjLvLBh1D/OfmC2ny57JtA1hK3P2aiuay277y4978652/6cubyzduXK+VWP6Qky+sqdy4u3zEmCrmsCvjU7HEckTpSJZYjnOYBs/LnMPoc2kyfG5N9JX/3lV0DnPxtSbu8TqseC7n8xFjyn/vKpbL2JjmqzbuscRyRERE6QiVWL6TEEssR7QCscRyREREhFzM1P6NiIiIiIiIiIiIiIhYEYiLmIiIiIiIiIiIiIiIFYWOW7fGFrm3rKenp9akQVUAqgTRbt+LNjWlKwX09TXe583GnJmZaeG6X4/KCTx6eriHt/F+OPi49623120D98PZ9zRS6YBNPb29vQ3317Epi6oFIU0uvunpGTXWryl9TyPVMObm8JFPk1D2JYHN2B7SZPNpTTOqrUxN4bi7NYE8cfdpAsXjvqjG5I27K5cZI4fmjHtWLheLuzuXq4l7Vi6DNJ9f05tvvim++tWviM9//hedfHk1+eIe0hSKe5FcLjKHvXJ+WPzO2+fliQZqLRERS8fl6zfF3/jQ/ep2smJzWGveu1beHKb5Qpp8fHk1lT2HZcd9ua/Dyo97kVwGab7qrsNM3PPkcj3u+XP5zrkO03HvpBQagbGBkfSR8DZod5VQw0gfH0bSt7Bgl3hb9PJRnpR2V0k2HK/5Gqsd8Fzz6UAnYTRhpw09Br7GLULYSzv220Cni49AGj4b+JN2bLFh+PJoIino418beoxLk+Zzx8loKivuPk2huIc0hePuilMzuUzMkmhGkx33uqa0DeG4F8ll4yO/pmJx9782bIQ0ETv682haWtzTNjQTdxvhuOefw9b3rhHdVFaZmRKdc/INMPFYnJ6Ujwn5t5z0G/rkhC7b6W9slzZJHvo6Zpvn65jVfGImxOezAb5kO3x6TEiTny9tg+EroinsI9sG+HyajI+WT1OIz477jrW9YqivW+VY/bWxsuaw8Otdv55aPYfxPpfFV56m1sxh+d678s9hhs8V9yxNLh8ZTaE4peNuNKX5isQ9nMvLH/e6puW8DjM+quI6zPDln8M6bty4tcgqy14BcQCrHFbY9gpoYkJO9hIDA42fLrIymp6eUitBe1WHkRjEeZKrOl6A8HV0dEq+/lqrBgmBA1kJUiEhCepa47D+/r6GVR1t9NFGXxI4kcBgW1qTfGNZXFCakitL7cRpZbPfR32Sr1ETNa9B2kdzcpxeLft85NY0GfQR/sFPSfg0GR9VGXdbUzNxD2nq7+93xp1KFn19jXFvRhN8SR9pTfoTAFuT5iOP4HPFvSOlKRx3JitfLrvjjn/wU/lxb8xl4I+7X9Mbb7yhvon5whf4Jqa8XPbHvT3nsAlpw2vnr6kbd+FMgvkI+zkPYw3Qie3otD/NQg824p+kDYBYYAt6G+M+r/xqKs0kgc/RZPPBwydggJxIguMZx/F2nDgP5/Npwi7sS4I3auZlqtZ0dTXGyaep7qPmNQFiC8rRpD91LK6p+bjbmnrk48HtG8Sazg712pCjC8xhofeu1s9haMp6vS/nHNaq9+Oy5zB33Mubw7SP+NZiTSovsRv78713VXMdBlZz3Iu8d9maQnE3mtBjz7HZmvJehxWfwzqmpmYWGZQcCBCHQRho99EOksaD0Bj6eNhjAM7leBcfD599Pj5sCI1x9TGGvuQL2yDE59NLO3Bp8o0x9rk0FfFR1KTB8Xk1gRAfD98Y4NLksyHEt1LjfuTIu+LLX/6y+NznPl9rqSPmskaIL6TJx8cY+uLrPWoyKJMvNIY+Hi4bYtw1VqOmsvlWo4+iJg2Oz6sJZPHFEssRERGlI5ZYjoiIiIiIiGgl0sueiIiIiIiIiIiIiIiINkanvZEmCfMVjw3zNZMLvjHAdy7a/Xwh+8obo7+aKsLXvj6KmuoopinE57fPz3dnxd0zRNmwUjWFbMirCRTT5O5bjT6KmuoopinE57fPzxfjDqKmOoppcvetRh9FTXUU0xTiWxSdbFTiYYPNNGy2YWONDY7XG3saybm3jnbG2mBjEeM4Jgk4tA3uChL0sYHHhh4zmXIKz02fDXhoh9eGGePSRDv22zA+cmmi3WUD/tQ+yqPJ76OwpqkaX6Mm46OQJl/cedioa2o+7iFNobizgZQ+nyYeNuAJaaIvT9xDuQyXywY0aR/ljzuabRSJezO5bPuouVxO87F5k013eXLZxL1ILrvsy8pl+lxx92kKxV3bcKfNYWk+Y0OeuBfJZeOjPLkMGEOfjZAmX9ybyWVX3FfuHGZ8dGfMYcZHeXLZxJ35z0ZWLvOw0Uwuu+KepckVd23Dcs9h2kd5ctn4qFgup/k4nkeRuOfJZeOjPLkMGEOfjWZy2fZRM5pccW+nOawTwVSKsEGlEVM9xwbtLmEcSx9jbeAQzmUbCeCiEoIN+BjjsgGbNV+toQae+zSF+KjC4NKEvYxxJSfB8PkILtdExrF6TDqQPk2gmI/Cmlx8objD5eIzmqqJu09TKO7+ONEe8pE77mFNcNowPnJrqjbuLk1ZcQ9p8sWd10eeuMODfS6+InEPaaLdxZelScepeU3w+ePkjntIU4iv6jnMHadqc9mXRz5NtLv4QprKj3uROSy/pnDcw5rgtFG3Yfnfu1yaQnHP0uTOZWwoFvf5+fSYInFfSi67LhbLz2V33EOawnz5494Ocxg8RTX5+HyaaHfxhTSVH/f8uWzsy6MpHHetqevZZw8fNmUbk6ASAKUhKatnVwXgOWPoS4J2Sl7SblcZoI8yaTxsPo6Fzy6PByjVRl+ar1Nx2fbxp+Fza9LjXHxw2ZqA0eTic9ugKyloTXl85NYEOJYyd3k08aNGtOPXNJ8uJVok7vk0hePu0gT8cXdr4k+ODWlijIuPMdhuIyvutib+Nnz02YDHrSkcd7+monF3a3LFnb95uDTR7ov7tWvXxYkTJ8TTTz/dwAc4NhT3PJr4M+yjcC7TlwTtRXNZ+8itib40nzvu/BnW5PZRnMM0NF847vk0heNe3RzWpca4+BiD7Tay4m5r4m/DR58NeNw+Csfdr6lo3Fs/h9HntyF/3Kufw+DzaQr5qHlN5c9h2JA/7m4bqpvDQPFcLhb3fJrccQdZmtxxL5rL5c9hsTpZRERE6YjVySIiIiIiIiJaicblUERERERERERERERERJsjLmIiIiIiIiIiIiIiIlYUOtmgY1csAGy+oc+1EYjjXRttOJYxro07IT64XDaE+Hw2AB/fStCUl8/Y4OMLaQrx+WzI66MimrL4XDYAH19Ik48vZEOWj9pdU14+uEJ8Ph/x8PGFbHDxla0pi89lQ4jPpynE57MBZPmonTXl5TM2+PhCmkJ8Phvy+qiIpiw+lw3AxxfS5OML2ZDloyo12RWOQJamEJ9PU4jPpynEF9bUvI+Kasric9kQ4vNpCvH5bABZPqpKk6vAQZamEF9Ik48vpCmvj7SmfD4qoimLz2UD8PGFNPn4QjYYvk5KpbmqAlDphj5XlQFdMm4qZQxVEXx8tNFnGwOH4bPBubUN6coJurxamo/ntLtKshXRBF+WJrsaRDOasMWGz0chTXUfpTXRzjgXH30uTVSJoM+VhD5N7RR3qlXYaFUulxf3/LmMb/Jqgi+vJmD4bJAjWpMrj2bVpOTXFIq7K5f9PvJpalXcbRtalcuuuBfRFPKRL+7Fc9nto5Cmuo9ccdc2uPjoc2mKc5hGM5rKi3vxOcx18WJsKCOXgeGzEZrDfHGvawrF3ZXLcQ4DcQ7TCGmKc5hGM5o6rTEJ+H/MhhPZxgO49Jj0OD2GH7SpNSQAl6s9NIY2lw3Ax4ddfk1uPt3u+yGeLE3uc2kb3H2eITW+2hMLoXafj8Jj3Jp8MGPkX7rBgo/Lp6lI3PWYInHX42zo8zDGNS4r7rUnFnx8+lzufPHx6THuvDR8Lri4NPyafKjbUGuw4GsP+SjUXlSTC0Xirsfki3toDG0+TX4fhTS5+XS7O1cMn6tL2+A+l7bB3ecZUuOrPbEQavf5KDzGn5cumDHyL91gwcfl01Qk7npMkbjrcTb0eRjjGpcV99oTCz4+fS53vvj4aNOPdCdNLk3AxaXh1+SDPo9/jK895KNQe1FNLhSJux6TL+6hMbT5NPl9FNLk5tPt2OAaF7KPRtcYzefrc55Gwq/JP4Z2n4/CY/x56YIZI//SDRZ8XD5NReKuxxSJux5nQ5+HMa5xmq/rS1+ixLKrLFynKmnmKvFmSsnZpfgoJUc5NMq12WM0n6skG2N0ibe0Dbokm8sGjjUl45IwfK6ycDz3a6L0W1qT5nOXrWOM5sujqbPG5/YR54fTxefWZMrWuXxkNKV9pEvnuTSF4+4akxX3kKZy4679muYrN5fh0nxlxl3b4OIrM5f9cXdrAkXifuPGDXHixPFUiWX+9msK5bI/7n77yo275vPHqdxcLjfuOveaj7uxoVguxzmseNy1X9N85eYyXJqvzLhrG1x8IU2Ms/lMuyuX/XEvdw7j2HJz2R93v33lxl3z+eNUbi6H4+7W5I+7zr3m455lQziXy4y70RTnsJAmzZd/DoslliMiIkpHLLEcERERERER0Uo0LpUiIiIiIiIiIiIiIiLaHHERExERERERERERERGxoqCqk7kqNFAxhD7XZhsqD9Bng2Npd1UbMZVIXHy0u6oPmMohrhJ5ptKBvdGL57S7NWk+V8UHU+nAhtHkqtAQ8hHtrgoNdR/l1xTyUUiTj8+nyVV1AqDHp4kxeeLejKay4+7TRJ8NEyeXj7Jzudy4V5XLZcadNh4+TWXnsttHcQ4DRpMv7vT5NcU5zBf3ZjSVHXefJvpsmDi5fJSdy3EOMz7yaSo7l90+inMYMJp8cafPr+nOmcPgyxP3ZjSVHXefJvpsGE0uHxlNnThqejo9GCP0izstgIH02QIoh0a7r1yhKyhw0O4SgBPpcwnAZs3XaAPPaXdpgoc+V6L5NGGv5ktrQqfma16TSU5XkH2aMMnHR7k6bUNIU62hhrAmfDTpjDtjeNjgWMa4Nfni7tcUirs/Tv6413M5/eL28/l9VCSXi8Xdz1d+Lofj7taUjvvly5fF//1//3vxn/7TfxKvvfaa+Lf/9v8SR48erfU2l8uhMpWWpCbj3ryP4hymEdKk4x7nsJCmOIdphPjadQ4zKBL3OIdphDSt5jksX9xbMYf5NK3eOazrV37li4ddVQYgoxiAq8oAhnK8XWXAGECFATefu6oCw3TVgu5ai4bm41zdqj8J+uBJVzrQZfjya1pQx7s0YQbtNh9j0ER7Xk3wNa9J8xn7ktB8bk30aRtcfCEfYYM77m5N+l+fpnDcfZrccccGt49CcSdO+XMZM2j3+6i1cdc21O1LQtsQ0pSOu+bL0rS0uI+Pj4tf//V/LL7znW+LM2dOi5MnT4hPfepTYuvWraofMM6nCST5DOjTNuSJe5aP3HEHcQ5jnE+T+q/ia16THmfsS4IxwKWJPnfcdR98tibay8hlgzpfnMPkf9UYl49cmrQNdfuS0DaENKXjrvmyNJUT93qc0pWRGOfTBFx89Gkb8sQ9y0fuuIM4hzGu6jksT9x1H3y2JtqL5rLmS9sQjrtPkzvu9ddGnri3Zg7rmJqaWWSQ7VxActgnA1qcLqdmQydUmk8bo4XbyOLzjfHx+WwAK1VTUT6QRxMoyleVJh9fKzS5+EI2ZPG1qyZQlM8e8xu/8b+K3/zN31SLmJ/5mf9SPPPMs2riMijqI1CVJhcfY3iU4SMQ4lstmljUrl27Vv1dlA/k0QSK8jWjKYmy+VqhycUXsiGLr101gaJ8eTUV5QNVaXLxtUKTj281airKB/JoAivVR1VriiWWIyIiSsXFixfF3/pbf1O88vJL4l//m/9dvPe976v1RNxJ4NbC73z7W+IDH/ig2LV7d601IiIiIiKiHHQ988yzh2t/R0RERCwJly5dEieOHxOTY6Pirj17xO5du8XU9LRYv3596ivpiNWJ0Vu3xNtvvSVOHD0iLp49o+53Hrk1IgYG1oq+vr7aUREREREREUuD93ay0NdFob4iX2dlff1UFl9oTNl8q1FT2Xyr0Ud3qqaxsTFx/OhRceXyJXH96hWxfnBQ9MsL1pvygnaxs0ts2b5d7L/7brF3711N8dl9ZWsqmy9q0htBjx87Ji6cOyuGr1wRvWu6xEa5eCUHJuVCdtO27WLX7j3i0D33pG4v9NlQxL4q+fL6CJRtQ9l8rdAE7L7QmCy+Ija4xoB25guNKZsvatIo24Z251vpPur6whf+xmGzqSYJKgnMzEwrUpuYigBUYbA34VAdgU/dIE7zzagHn8Ym+ThWVyyYb3hjA1QxMFUT7E9xp6amVdUENjAlbUAwfFSqsDcqFdHEG3OWpk55kZZXkzxE2Z4E1RawMY8mbKY8Hcf7fGRrMnzhuDdqAsZHPT22JuMjn6YZdZ6kDe0e92Zyuay4F9HE8cQ9jybNN+mJu1sTmJjQVVLSmubVnocTJ06IY0feFedPn5aNs2L7li2it6dH8Qz094sOKfr68LC4cf26uC4foqNT5lCvV5M8oORcXj1zWJG4VzGHXTh/Xrz+2qvitMyFiVsjcvGyTgwODKi+vt5e9Ri5eVNckYubGzduiM6uTvXtHMDmOIeF476S57BvfvObyv4tWzbXWjWK5LL2UblzWDjuaU3GR6HXZ5zDVt4cZrDyr8PSfKt6DuM/GGsDIzgpRtnAeMbZ4ESMIeFsYCB9HGMDLjhtcG7N17wNwMe3FE3YbwOdrdBUPl+toQb4SWp33LUml4+ybUjHnXO0wkc2oKd9Tl5E21hK3F2ayo47NjPOQeflK6LJ2BCKu0uTj+/8uXPi+eeeE++++Ya4cfmS2Dg0qD55t8FCZsfWrWJRcpw6dlS89tKL8oL3NTlxTdaO0GhGk22ejlOcw0CWplbMYTflwuTFF34gXnvlZXHh1EnRJ9/UtslFbI/1htgt34C2btooBnt7xKWzZ8TrL78svv/8d9Withkf2eZhb5zDNPx8yzuHDQ8Pi+9/73nx1uuvitdeflG88frrty+KwFI0lTWHZcWdHLP5eOrzUTOabPO0pjiHgSxNVVyH6dd7Ou6gCJ/RZNPBX+YcZnzky+UyfWQ02YCe9irnsK5nn332MCswe6WlV5S6xFtyZQR4zgrMXrlxWGdnh2q3V1qaT5f8S/LxN09ZVdo2AHjcfJTUS/MBnnd39+TShN0uTcBo8vO5NTEGziToC/nI2JDkAzz3afL7SPO5fd7h9Dnt/rhrrfaKmOOy4m7z8TdPy4o7f/I8b9x57oo7h4U1aV8k+fibp4zJF3etyeYDPA9pwg82H+dxaQLGBr+PfDbUNfGJ+ltvvC5Onzwubg5fFYMD/Wrx4opjEnwav1YuaCbGx8TNG9fFDckj5Kk2bNio+jmPP+7hXA5rKjPu7TGHtTru/M1Txpi4G9A3Pz8nTstFC9/AXTh9SnTJN5utmzenFi826B9au1ZMTkyIq1euqEUQe6Y2bNgg+mVu5I17nMN0nyvuHBbWlD/ufr76HMZC5Z233xbH3n1HXDx3VmyRse1YXBDDV6+K6zduyIP1a97YkCeXtX35chmYMfk0ueMODJ/LBnh8fJzfl8s+vvLjHucw+orH3a3J76Nw3Mubw7LjbvPxN09X8hwWq5NFREQ0BT4p4dYxLkyGL18S/XJRsmHdulpvPnChMzI2JvoHB8XGLVvFoXvubfgtmYj2xdmzZ8QpmQfse+lYmBfrh4bUNy15wSdpN0ZGxIJ8Q2TP1L79++XjQK03YiXi5InjcnF7SlyTudElFsVGuYDpql188M0rr/k+uYjdvG27OHToHrF12zbVFxEREVEEcRETERGRiXNcuJ48qS5cxfxc4QtXG7fkRc3o+LjYtHWb2L5zl7j74EExKBc2Ee0Hbv3imxdyYPzWiFgn47S2tu9lKZiUC1rygItb8iBe3K48XLl8WRw/dlTmxmUxJV/PfLhBYQ8Xbo2Oilu85rdsFTt27xYHZbzNbwlFRERE5EFcxERERHjBhevxo0fURcrE6C1VdYw9LmWC+175RH52fkFs3r5d7L3rLrmYOZT6yjliecC3ZseOHhWXLpxXlecG5MVp0W/gQuDidnRiQmyWC5ltu+TFrVzQxovb9gaFPY7J+eHShQvixvBVtbDlkQVe89dv3hSzCwti646dYs/evWoxExEREZEHXX/zb/6tw2zGse83Y/MNm21oty8m2CRE1QD7njcmJsZwvD2GWwcY5+IzG458Nrj4OD98PhtCmtx8YU0gj498mkI+MprcfHpjWD5N8BXR5LYB2+jPo6md4u7TFPKRy4YimkJ85cd96blMpZV333lH3ddO1bHuzg6xddOm1D2rZYDz8altd1en2ivDhuBrcvHU090jBoeG1DErNe6tymU3X/lz2KlTJ8U7b70pzsp/ZycnxJaNG0tfxBr09vaq/TKjt0bUfpkbN28oG4bWpfdbZWuKc1jZmpJ8/M03L++89ZY4d/KEWJTtVCVk31szgIM8WiNtpnLh9evX1Ou+u6dHDMnXfJYm4PZRkbjPqePtMdk+yvv6XJlxb0aTzdeMJjdf+XOYS1PIRz5NoHjcq8rlauNeVS4Dm89o6vrc576gFjFs7EmCEmpcyHR1rZGPxsF8+gJxb29PgzFzc5RXo+LQYupiR/NR4q1xgw5GwodB8CWBc/kUkHPYm5goycYFHnYnbcBRlFOE19bE+bGD89sbvcbHJ5yaqKig+fQGsSSwDc6uLjZFuTTNqTfmJEhMbOcUPk32JiY0YR//9shJPgnjI5cm7A77yKUpHHeSxtZE8plKU2w4S8LE3a9p3qvJFfeJiSJxn1Z2UK7QfpH4ctnEvVgulx33KnK5HvdzZ0+Lt958Q5yVFycz8sKVxUurLlyTwC/cnjQ/N6t+b2ZkZESMjo2KwcEhabuuRBLKZV/c4xwWirt7DuObtxde+IE4d/qUGLtxQ6xbO6BuIUzqbgWwmwXtGnkeFrRXr1wWly5fEf39ffLitv7tTzLuoVxu5Rxm4n6nzWFXLl8Ub77xhjhz4rgYG7kpNsq8GBocbDh3s8A3g3LhOif9oV7zN2+K0dFR0SljB1/ROaya964i78ehOcwf93afw1w+8muK12Gg7qPqctkX93afw/w+orS2FJTQdBsQ6UetIQEqE2CIDY7VDkoPgos+Fx9cScMN6ja4+tIrMxA6T5iPcX5NrjGy13surcnhWAltg8t2/7l87Zorn4+Az27aNF+toQFwheyuNSQAl9+GquLu9h1oTS679WpNIf+lCf2aQj7Kn8s08fsdlER987VXxZXz58SgvHDcIhcw9oTTavBp/J4dO8TMxLg49s7b4sXvf0+cOH5MTZA2tFbfHKa1OuSqvvLj7h5jHjZo0udqROg8Yb78cZe9DefizeTVV3VJ3MvnzgreNviE3be/oVXgE/1tmzeLPvnmefXCOfHqyy+Ll196Udy6dat2hNFUe5IAbdpHtYYG4O/Qa7DWkID2qyPBJKqLuy9+uq/8XE7bNzp6S7zx+mtyfnhNnJMLmG45Xv0mlHUxVQQsgvbs3Kle88fffUe8/spL4uSJE+qiOgmjyedX2l2a5KjaoxGhMbS54gT8cQrF3Z1Hpt0xRLZprb6+8uPuHmMeNmjSfI19PPdryvLR0uawJHy5DLQN7pzwnauYJj3OBT+f4aw1NACukN21hgTg8vUtJe42QucxuexCVi67baidS66oFvnDNoiVFKs9VmA2ARMLKyN7xckY+lx8XIDw4ILI5mMFSZN9sRSywfDZK0TAmKjJaEr/SFCWJvpcfGgCMe6rS9PExIQ4euTd+n3tchGxrnYb13KDT3tG+GS2u7tWxewe9avvSbRL3L/+9d8Tn/70Z8SlSxfFjh07VXs7xx0YG2instTZM2dUZSluH6Rstn2O5YLaPyE1UNVq9967xIG771btPk3odfmorDnsD/7gG+JjH/u4+O53vyueeuqpVT2Hcd7jx46J82fPqI37ffK1uGnDBtXXCszMzoqbIyPyNd+jqtZR7MO85rM0FYk7+tCaz0f6FrTVHHeDqKkOxnB8Hj6tKV6HZfuomKa4sT8i4g7GCS5cT58Ww5cvqwtXNmzbk0U7YFwutFjMDG3YKLbu2KFKMvPbIu2Ez33ur4vPfOazYotcbN1///3qd0+++tWvqIVNO+PSxYtqf8M1eYHKbT1szG52b0OVUBe3t26JNT09YpNczKiL2127a73V4stf/l2xZ89e8a1v/bE4ePCQirF5g15NOHfurDh5/Lha2C7MzogNcmGb9VtAZWFsfFyVZOY1v61NX/MRERHLi/a7WomIiGg5Ll26JL7z7W+Jt157VVy7dFGsXzugPl1txwUMYK/Mru3bxfz0lDh55F3x0gs/EG+/9Zb6pqbdcPLkCfUJEfj6139f/duOGJULAm7RevXll9Tm7O6ODn0LVxsuYAAXz9jX29UlLpw6KV558UXxoswDfjCzanzoQx+u/SXUQpVPDFcTuLX0B997Xrwm84MfM+3vXiO2bdlS2QIGsFdmN6/5qUlx4t131G2lb735Zlu+5iMiIpYHXc888+zh2t8RERGrHGyaffutN8WJo0fE5fPn5MWJvjVkpXyCzAU2P7I5Ii+yrlHV6MZ10dnVKdavX187YnnxqU/9mLoAPHDggPrKnAef1LcT+MaA24PeffsttXFfNui9DdbGznaF+tX/wUExMT4mrly5LEbkYowNnutkDti3RLQSe/boW5x2796jftumynO3Cmy+fffdd8XRd94WF86eEcwKVS9ebLAfi9e9ec1fu3at9pqP38pERNzp6BgZGVuk+oFdmYBKAbzZ0W5PzlQs4IMnKsYkwaePpqKCXZmASgemSkTy014+waLKALfI9VmbR7kXjk9dqEpgX2RxHqo29fX1NtxfZ/g6O6lsYlekyNZk8xXRBEzlC58m9NjVFminGgMVGlw+cmnifsbZWXzUk7qf0OcjrYlqHv64uzThI2BrMj4qoqn8uHeqcyVRVS6DInEnFpwvTy6jB13N5jL8R+XC5czJU+LmtauiV9rQyvvaqwB7efQvgA+KzVu3ivseeFBs3ry51rs657C8cQdJTcNXL4sTx4+r33vh1rENQ0OKa6ViVvqDRcyi1EYOcIvZ9h074xwmkTeXz8gFLZvpr16+LLoWF9SeKNv25Qa3ld64NSrWDg2KbTt3qVvMzGs+NC+3Iu5Vvh/HOSy/JnAnXoe5fbR657BOSrLhSBscQAIg3AYnZBwGJ4FoU57OBm30YZQNuBBuw/Ah3gbCtA21hhp4rjWl+cKaNJ8N7M3ShJ1J4BetSSdbEpxb87k0wZf2a0iT8ZFtAzCa0j7S9oXibjaPJUE7Dxscm1cToL2suPOC0prS9rUql8uLu7YBDUlgktaU9hG+cdkA7Fy+cOGCeO7b3xJvv/aquHV9WGyWFycrfQEDBgYGxM5t20SHnMjOyIsvbjF74/XXb/u/VXFfzjksT9wNsPeyvDD9wfe/J1596SV1exC3ZHFrlv3mudLQLd9cqaA30L1GVVN77eWXxfPPPSdz/mKcw5rIZY7h243nv/uceP2Vl1VVwnXyQmKrzI12W8AAbivds2O7fM3Pi1PcVvqD74s3XntN+cA3LwPaedgoEnfz+gzF3WWDeX3acTfvG6H34ziHxeswA9p52DA2uHy0muewri9+8dnDeqXVuDICrKaYyOyVIOfRK9h0lQGe026vtBhDm4sPGL4kEETpNfrSfItqdeayATCGh428mrQNuk6220ddaoxbU7dDk/ERNc1tPjRpvuY1aR+5bMB2lyYNbUNaEz965IuT4WtcEdc1peMEsjTRl0SxuEsjpCbG8LCRN+4gpKnMuBfJZfiyNE1MjIs333hdnDx6VFy9eEEM9verxYtLz0oGt5qsldpu3bwphq9eFddv3JDZsCg2bNiY6aM8cWcMbS4+YPiSKJbLGozhkQQ25NHERH/k3XfU5uwrF8+LNbKZC9TlvD2oFVC3mK1dK6bkG+G14auqVPS01L4+datknMMMuLDhtsJjVCaUC8AeycuC0PZNO+L2a36k/ppH66ZNm5Xe9OuzmrhzntD7MRdqg4NrxdjYmPVpvn5vuBOuw7AhryZtQ1XXYdlxtzVJRnns8l6HAa2pnFwuFnfp2Iqvwzqmp2cXXaKASRwXfH1VjQHtzNcONoAy+WgHZfLlHQPama8dbOCTk2Ny4XLpwnkxfPmS6OvpUbeG+LD/nnvEKXm8wV0HD4oz8qIX2H1LAVwG506eFHy13CyatYOLBG4x6x0YEFu27xB3Hzwktm/fXuttRJk+LzIGlMHHBftaeQEPkn1nz5wWp6SfqSwl5ufE+nXr1DcXSSRjDfYeOCDOyjGgVbE/6/j9jzIB942REbEg34A3b9sm9klN+/cfUH34ByzV5wZFxoDl5qMq4elabrCw3ciHG44LwJWAyakpVbWuX74GNm3dLg7de6/YJuOeBH4AZfm8yBjAfp5NcqHIIuaNN14XDz74kJqvX3nlZfHxj3+idlQjqrKvyBjQznztYAMok492UCZf3jGgXfg6fZ2gSF9VY0A787WDDaBMPtrL5vNhpfIttw3nzp4Rzz/3HfHum2+IkeGrYou8OAktYEDyAhPskxe2BgfkBUFZSHLtz8nbrB2UNd6xdavoWlgQp48dVZW3Xn3lFXWhb6Msn4MiY8BS+a5evSr+3b/7t+JNGW9AHxdK33v+u+r2oEsyH7jVSn3C7vhkLBlrwCLGoF1inxd8Yofeof4+dXvUG9IP35WviSvygh3/LNXnSRQZA5aL78rly+rW0jelT4YvXlBVCdUP2q7QBQxg4z+3lXbK1/yZE8fEyy/8QLz2auNrHj8066MkyhwD1q1bJ/7wD/9ADA0Nia997avi937va3JBMyrefvut2hFpVGVfkTGgnfnawQZQJh/tZfP5sBL44u/ERESsAvDJ3ltvvC6G5YXa+K0R9Vsf3D/eDH70M58R//krX6k9E+KHPvlJ8a3f16WBzafxu/ftEzfkxfHM1JTo7ukRkxMTqh/sqFVpMrh07lxj2+KiuHT+vPjIZz8r/ujLX1ZN5u9euejgNyDOnTol9h06dPuTf8574fRpsVEuSC4nxhp7mgGf0vAjiXMLi2KTvMgZXLdebNy4sda7OnBU+uLv//2/Kx544AHxwz/8I2Kn9OXszIy4fuWyut2G3/0JIRlr8PRHPyqe+8M/VH83xH54WN2atqa7W0yVFPsBmaPYym01xJlvaDjnzPS04uFbomQ+8Hcy/tt371a3j41cv66e+3BrdFTckhe0/LbMFnmeJ977vlrP6gBxoaz3fffdX2tJg/nh+NEj6gdtrw9fFeul79vlB23LxILMtxv8MKpc0PDDqHv37ReH5LzSTvjSl54Rv/qr/4P4W3/rl9Qc9eEP/5A4e/aM+Pmf/+9qR0RERDSLrl/+5V85rFYz1mqHFxebqVx9tPNw3fvnGxPqM7cW5BnjswGUybcaNQH4XGOy+OjPM8b0VaUJlMHXjCZX33Jpui4XGPxeBVWF9uzcmWvPQ/LCEPDpvLnF6GbtAvGBxx5T5xsdGVGfdM8lNvsNWhfKY7dupdvkhaT5NH7D5s3iprQX7nsefFBdyLKfZZu0m3Nwry+Vprhw5haR8cRYYGzKAn4ZkBfyC/Nz4ri8QD4nL6bZVMg3FcPyQu7q1WFxXXLxvP4YVt9uXL+ebMvuo53+a9ea5/Pb0Dzf6dOnxPe+97wqi3v27FnJOSz61nSpHGARk4VkrEHydjLj5/sffVT6cF7FtbOE2C/KGLMwZTEML/dCP/j44+K0tOM9H/ygusUJnrvvu09cvXRJ5UWPXOiwiN55111qEcVCh37K7k7LhUwILJIG5YL+zJkz4oz0EYuYrNdTEqavXeewM2dOi9/4jd8QU1OTYufOXbf3WjCGWzapRvfuW2+Kc6dOisW5WXFg/37RleDgNWZiukfGn9diGejt61P5tFYulpg3XGChSgzLAr7hNb9G5inzB68XXhPMKWvXDubyayvjzu2N5D0LLGzbtGmLbNtfmC+JZjS5+tohl318VWoyfa3WBOAL2eDjoz/PmFDfio/79es3F9n4RKm0JNj0x72atNsbdPiaVo6Xk8JAAzGVFKgywPE2H9UP5uQEyu0eyQ06GDI+PiGNl5OP9ckx1QxmZqbli7wnVa5tYoJqTvNqTFI4oii9yjk4VxJa04zo6elNlWtjDJUVbE0EhPvsXT7SmuZke5/sT2uCxtyrbsDxjGPisjVxHs7n1jSp2gYGGjUZH4U0Mcblo7Amd9yBT1Mo7rampcV9wavJH/ciuRyKuz+Xq4i7ncu///u/LxcD06JTLmLG5AXDennhwJt5Mwh9E2OwS148cuHIBep1eRGdvNBhEZSE+cQ8Cdr4BP7kkSPirrvvFt/++teVvuQn9P1SP9/GTMs5ZFhevPJjjAYcx2Lne//5P6tYNgv2RsxI32/evkNerA2KjRt1VTb8Cijp2Bj3BZV7xNWOEz7XpTz7ZH9jLlMlBR67ROTsLOVEKeXZnXp9Tk5Oy7HzMr/I5boNvGbJPTYt2rnHa4Pc47XBZscj0p//6B/9msqDj3zkI+r3StYPDojrciHAjwWSByGEvokxIPbEZGj9erXASF6QZsZe+ubUsWO3Yw+4uOTCleNYMM3L+Jg8SOYD/ZcvXBAPvec94sXvfEf5mRzpkq9htci5/35x4p131LEhjI6NiRG5kOKbmNNyEbP/wN3Sr65yorMqrnbFNr7poJ9YsNHVAHt4TfOSJSeS4PVOnjLf8JpPgso+xLivr8fiW1B82obGuMMFp6s8KXsr/tW/+t/E0NA68Vnpv4/KGD7xxHvlovacOPLOW+KW9PW8zMGN8rXLAocF41uvvFIbLRepjz0m3nn1VfW367VfBMxZLFzxG6/b86dP13oaYe/JKhvEnv0y/Oo/+6MefuRRdSuXQZH3rvq87H/vKvJ+zEZpe/6o+joMHviSCL0fh9+7eH/vynzvSsL4aDmvw6qOe5XXYeVefxe5Dpupxam5XM6Ou5yzv/CFv6G+ibEdzwuHBwKSb9iAN2zEMyE2nnBRGjqlRKUn7voknBQNMBIB5hMkA16M6hYGKdgWjUPot23AiYgjKPabEecnMJqv8Y1Al34zb1RJPlNHmzeWRk1w+XzEJKLfqBo1cQ7exAiyXQ0CrWiyfYSvsQ/YyVTXpCtZJGE0+XxUJO5uTaaWtyvuaCov7tgd0uSKe11TuhJJOJd1vfM8uVx93NfIYybE7/7ufxI/8RM/KTZs2iTG5Zhbt0bElDwf38jYNtpgYYJ9k7XJ8YC8eDwtLzyT4MJ1QvbzSTq38XBxaUBbEnyC72rjouaV559Xsdq8fbu6mN29f784f+qU0sptS3zrwi1r5tsaA8Zywbp15061iMoCFy9X5PiegbVirzzHI489Lu6Wi6fNm7eoR3//gLq1bNeuXWLLFt3GY8OGTerNYevWrWLHjh2323kMDq5T97TvlDbQX+/brPjYsAtfcgw/yDc4OCS2yQtoCgwk+wa5pWfd+poNdT7sGpB2YxfnSo7hePjg4sHF88WLF8VP//RPq9vJHn74EbFVnmtR5jKvrxEZNz51t3PYYEBq7ZD5MSH9BVg42BeVxJ7cULGXtl5ZQuz5mwUR4FsXvn1hEuC8LIA4zuQeF7icixzHTuzgGwMW04AFje8TfsBr8ZpcbHdK7Tv23iUeeOhhMS9fm3zzRQ7yejQPjuWNlHmC11ayj3Z8yWuE16pp5w2e27T42+bjeN7M4XLxsUjlQ7gkn7GBNjNfmAevcS4cWERjY7Lv/PnzciHzhjzPrLhy5ar6RJ/bPflBW24rpCrhZplTZi596IknGr55fVAuEo3PD8qFIX3MCSxeiSXfmJn8aBbkG7F86+WXU4teOHmQCxtljvOv3b5z716xReY3z/nAhPnBPsbm40MPvlnkbxbcjOMHXFnIM3dRxeyWtIX3JPWNoowL8ys/AIzviCG+Nw/a8TnnxuemHZ/fkufiX5AcQ0XIsbFxFSeTL+Zx69aoyguQ5CPu9GED50qOgYucwDY959f7RkbcNmRpYmHhe+/i/Hnej2mn337/hAc79DXGyroO812zGE3yH4eP2v06TM9rXEfYca/qOox8xEd5rsNM3LHZ1qTjPic6Rkcn1I9d2kZioAlkkhQwWIY0ZaR5AfKJgp2cOAROgmXzkTSuQOIQHcj0hRi2ETSbT9ugP1GzNYX4GKOd6NIEH8np0uTzEXWt/ZqwzQ6kTxNQE69MDDuQIU20kwR+TXnjrmt1++JepaY8cTeafHGXoz2aQnF353KZcTc2ZPmIyjZcxPzsz/4/Vd/o6JiqPnTt6hUxfOmiWNvXpypT+cAFCxcMgItE9j0kL3LAenkRxAUHurHf7m8GTzz9tHjpuefU31xIsSjZJBcDcPbJCy18c/zdd6X3hDj0wAPKl1ywXjhz5vZYLlq4OPEtZFi43RobEz2Sb/2mzWLf/gPql9XzxX3lzGG8Sb/77jviMblIYwxjzeudHy88LReI1y5fglR9Em/nHosDFqWM4xsRvuWwY7tOxn6TjD23fnHxt9TYGzz21FPqGxkWxNyuSD/fxLwsFzssxsmJd157TeUjF8R8oo//2TsDyNnhy5fV30ngoxvyIpO9UBxzl1wcH7hbFzBgUWfmtyRM3IvMYXnjTnveOSzE98ILL4hf+7V/oHLgg3JhyCKRDwC2bZJxc/welP3N6w//2I+Jb37ta+pvXl/E9+H3vld92wX4YIHb+gyYC5Lg9bgucR5sZdHw+Pvfr765Y38Te5e4rYxbAM2ihvOYb96wyeQV/z79sY+p1z1gUc0tb+SAsYl85hu+5LgkyGVzW6QB8b0qFz9jco7oG1grNm7cJFv1LXdc2Nt+ZZFJnPQ80Bh3xhA65okk+DbNzJHmWzYTY64VpNmp2Gob5GtLzvPYkQS+xI4knwE2ADefWxPP4dwtX/P3ywVr8nWQ9d7VqjksCXsOM6jzxeswrSnvdVi5711GU5lxl6M9mkJxn48b+yMiVjp+8zf/P+I+eXHALSRJ3JQXF8eOHlEXIKM3b6hPJH2b/fnkktstWMSwyd5GchFjLiLzggWLWXywqZu9EXxizJ4HnpuLHcCn7Fxcm0VMcmzybwMmSG4b4cKVb3n2ygvXu2sXrncy+GSO3wIx5bbZJ0MeJMHF5dYdO5wXfiC5iOFHRYvAFTMufGkn7sSffi5qWcyQa8l8uG1jIv/Yc2G+1TFgATsmL6C5dWy7+kX3e1K3Naw28E0cla6efPJJ9U3ciy++KC6ePSMmx8fUBn77ttLQIsaAxQyvKS427EXCnv37a39pXDx7Vn1zYkCeXKi1ESMuQCjuQMEHvllLfjNjFjEHH3hA5Z95vXN+A85/78MPq1vSWFABoyF5+yH7b7CZb45cCxtuKRyX+TKwbr1arPONZhWwLxqXE1xA8k0kn4pz69OnPvWpWk9ExMpEXMRERKxw/JN/8o/Fn/gT/w91u5QL58+dVZt7uUhcmJ0RVKyyP0layeDixL5wte/vvdPBhcvxY0fF1cuXVfW69WvXtqWPkheleTAhFzssYAbkYmfz1m3i4D33qtvx7hTwgcWGxLchvOZPqt+BuSwW5eKAhaspsf3hT3xCfOcb31CfcoIf+fSnxR9/9avq7yS4nc98YppcFPCBRxJ2MQd4b39jIsHiYo1cWLCYYcFjFiLAxJtFBcfxDdxrP/iBWoyYhQwLWfiTY12LGMAtqSxigLF5fGJC/XbUug0b1TdzBw/ds+qqFOYBn/BTBOTf//v/r/i5n/uLd9TrJGL1oeuZZ549XPs7IiJiBeJb3/qmeOSRRxouYpJgH8XuPXvkhUK3mJ2fF8PXr6lvXPh9hZUM7uW9PjIi1kgdO+/aJx58+BG1kFtNC7SywLcRu3fvEf1rB8S8vEC8NTqmbvnhwta+9WC5YfY7NAMuyMiBmfkFsXXXLnHv/feLh2Qe3GmLWLtQAa/5HTt3iq7uHjEn400lO3zFL92zQOBbVxYM7B9hD5p9Wx4LCPX9QYe+dSb5LRrfliQfrja+veObGPi5HXBcLmqoLsctYXzrRjtx5jmLDfaysPhZL23imxgKfPCcbzGw++rFi6qQw+2xkis5HlAwhHMBvjk+e+qUuq1wXnJsl7l/34MPivvvf2DVfzOXBRamLOKocsim7n1y4RcRsVLR9Uu/9LfkImYxdY8aX9tz/xrt9teh3KNGv/3mp+9f0/cg2nzcv8YmHO6Vs/m4J4+J1eajDT6XDdgGp82nbZiV/+bjYwx89n13hg+4Nen79dJ83L/tt4Hj03xs2kz7qKgm4yO/Jn/c/Zr8cc+jCbQi7iFNLj7GFMvl9on7d7/7nHjooYdvL2IYY8ed49iArj5F7egU09L+q8NX+bXb1H2o7Q7ixYXrLBeuO3eJ/XffIx586KGGqkOgNXFf2XMYObJz12612Z0F7dXhYeUHLm7bAXkWMNw+yGPD1m1i/6F7xCOPPqqKH5i447u0j+6cOYxjKUTB3o9OmROTcnHBa55vSbbV9sABbh81JZYNWCgoyHNxCyF68oDff+KWUIAubgVjccMixMDEmn/N+SggwGLHPEersS85lv0wBoaHhQtFKsDbb74phmX7pu07xN0yN+6TixfmhzLjXuX7cZ64G01ZcxhFCI4fPy4ela8bUCSXy75mYUzWHObW1Pr3Y1B13P2a8s5h9bi7NOWNu9Hki3tIk4uPMX5NGXH/3Oc+f1gel9rUgzCqArg2CVExg0CzUSlpDOVJqcgC7E9DKSfK/dm0J43BSF3NQ1c6SALjqVrAhjZ7k9D4+KQUwA+lNdqA4/l0gX/tjVRaE9XT0puEGIND7OoIvADQ5PIR/kET5d8IpgGa4MNHdgUJ2qh4wjnsqhh8soyNnMf2ERVKsMXWRJLhI45P+0hrsjeHGR+5406VHBP3xqQxcU9rmq9pcsV9SnG6NLUi7vDaF+VV5nJVcU/mMr8T8uCDD91exJi4u3KZWO3YsUts3LRJfSIPPxWW+F0FHu0Obh3j09WN8sJ138FDcvHysLrv3p3LcQ4D9hyGL7iFZJO8UJyW9nErFreboSnP7wstF7g9iKpjXT29YtvuPeKxx98j7rrrrtv+jXOYhsllvqWhuAFFHOaxeXxMnGV/ycjI7YpvNlgYmAd25YUqLpDgMLDbkv/yo6W+54C/zcMg+TdFIs6dPSuOHD0m1vRKzfsPqG9nd+3erWJbVtx1nHxxX8r7cbXvXVeuXFaV7d7znicK5zK+Q7NtA3zNvHe153VY1XGv4jqs2veuKnLZxL2T6ho2ITDBSBIakHiuMRzKmKSTDAgE53LQqTF2MgPOrce4bbAdCzi2XD5dgcROJFD3Ua0hAfzjs4ExLh/R5rfPp8mMSfOFfKQ1ufl8mjSfa4y2z2UD58ivqVjcGePzq7bPzVcklzVfrSGB6uK+tFymdO8HP/Rh8eCjj4mN27aLG3JxwK/bM/m0I7jQvnDliuiQE+OBe+8Tj7/3ferbFy7QtKa0j1oRd+3zWkMC5capmjls/fr16ocfH3zkMbFLXuTOyDcgqjfxhtyO4ELg6rVrYkq+WW/fs1fc//Cj4n1PPpXa3xDnMA0OZYzh42L+g09/SDzwyKNi3eYtYnjklvodpdWAaZmzl4eviUl5IcS+mEflhfnjT7xXfRMFqot78ffjVsU9ieQcRj8XnQZ+Tf5choM+F4rw+X3knsNA3Ue1hgTwj88Gn4+MJrd95cfdHcOy57B63G34NRWJU/m5nMk3MTGtSizbxFzMkOAcaPfRTr990tAY+lhNu87FKpA229DQGJ8NoEy+0Bj6fHpDNvjG0F4v6diIsn3Eqj2vJtpBHk3Gvqo06TKV+Xzu4guNCfUtR9z5scOf+qmfVr8PAUKaXH7lmxg2fVPq9vrwVVXRaChx68ZyggtXNuVKo8WmLdvE3YcOij3yAjaJorns85FvjM9/oOxcLpMvNIY+xgHKcp8/e1aVxe2Rx260NnAvJ7jYnpIXqlt27BS7ZPzZ+6QvHPyafHEHLr/6xhj/raY5jN85oXLhsIz19atX2uo1nwdoJDe4tXTTtm1q7x8b921f4AeQx6/0rba4J+177bVXxfe+9z3xX//Xf0X1FdVUxTVLaAx9Pr0hG3xjqtIEqr4Oc52r3XM5K+6xOllExArHr/3aPxR/6k/9lDhw4ECtpRiuyAsaFjM35EUNP25IRaPl3CvBfodJLly3bRc75YXrwYMHU18pR5QLfgyPksxXL19Sla02yBzgl/+XC1Sdo+oYv/lDiWUuUPkGKaIcXLp0Sb3m+VFM9qywmGmX/VFZ4AdtyY0NW7berkrID8hGNIfXX39NPPfcc+Kv/JW/WmuJiFh5iNXJIiJWOL773e+KBx54cMllQ/ml+r177xLd8iKGTd83b/Lr1lPqV6/tT0FaibGJCbUpt3/derFn3z5VbYofrHR96hNRLrgvmqpWg0PrBJ/3qdLFcjHZ1am/uq8K3B7EJ+yLMua6stRD4t777lO3D0aUBy7677pLlyWem18QN27cVIsZe09CO4H9FOyJojjFDjlfse/l0KFDqXvwI8K4evWKOHPmjHjf+56stURErDx08pWMD74+2kN9PpQ5BrQzH+1l8/lQFR/tZfP5sFL52sEGsBS+/QfuFk++/wPiXnnhuHbDRnHp6lW1ob7VYC+G2pOxsCB27dsvHn38PeK98g12fa1gwVI02aC9bD4fViLf9u3b9f6Jhx8Vm3fsFLcmJtWeKb6+byWwhfPcGB1Te7UefORR8QFpx65du2pH1FHUD6E+H8ocA9qN7+6Dh8T7nnq/uOeBB0Xf0JC4eOWKuFXBaz4PyL3hGzdULm7ZuUs89Njj4ukPfVjlqkHID0v1URJFxoCybVgKH4vU5HHNjHHB19cOfLSXzedDVXy0l83nw0rg6/rFX/ylw677/6hMwEUF9x3b97bxSQjl2uxNOtxbR8UARWx9akplAjjhSvJxLBUQGGt/0ke1Asahwebz2RDiW4omt4+yNM2lbn/hfkEqKrg0GR/R3qwm4yOOb1YTbwZZmnw+4nx+Tf64F9Hk8lGWprxxx4a8uZwVd/xhVzwJxd1oyuOjuqYOVZ0s+U3MUuJuNBFjyrCul4uYKRmLqekpcXNkRHRJvlbc0sWtY2PS7qGNm8Xd99yjKk4lbxsqpmk1z2HNv96NpiJz2NC6IbFr9x7R0bVGzEot3HII+HaubHBr0DV5kbpu02Zxl1xIPywXMBtkTvPasTXFOawObMiby664800Gr/me3j5VxQx/8COajDU/lLlcGJHzA9++UJCAW0vvf/AhsdNa2PpyGVQdd4532RCKe9VzGL8ddOrUKfHkk081pUkekuLz2RDiq2uqZg67U67Dmol7EU0uH2VpCsc9rQkb8uby7bhjDE9ssKGWPoyyQfAhtqEFwJcu2Wj4MMYG7SE+ktAGztV8tYYaeE47/Tbgoc+lifPTZwN7acd+G+gM8eEnG0aTm6+IJuMjV5x8fFqTO+5ZPgppSseprskyQoL2cNznay11ZMU9fy5jQzruxgZXLofjTpz8fOXFnRd33Yakf8vMZX5b5uFHHxP7D92rbusZl8dxockEVwZGx8fF+cuXRe/aQbHv4D3iPrkYO3DgoHMSxr60j0K5HIp7nMNAM3MYPxzJb7A89sR7xf577hULnV3iwuUr8o1nsnbk0jAlz3Hp6rDAQ3sPHlKVpR57/HF1q1OxuMc5DBgb8s5hg4ND4tHHHhcPP/4esXXXbvXNB9+AuLS0GtzOyLdC8upG5d7jTzwhDtx9MHWBBKqKu4mT+/Vp4u6KU5Fcbt0cxsViUhvt4VxeuXOYDaPJzdcOcY9zGDA2hOawrmee+dJhPjW2LxpYDFERgD571QSYROyVIC8KHrTbfLK3xtfdsNICegxl3tITE1UOGGPbAIW2oXHlBnx8tMPj19Stxrj5mtdk/s7S5PZ5Pk0APmzP5yPtB1/cqVtujwGGLwmO0/b5Nfn9GvJRT9Oa+NPYYH+qQV84l7vVuCTgMnz54p6lyc3n0gS0DWk+2g3f88/zTcwDDXti/Lms7W5Wk8GmTZvEnr171a/+z8hJbXh4WE0wRTcB88bCD1Z2yfNRLveBBx9St7RQ+77sXKbPHXf4VuocluYDrZzDWMxQGa67p1dMz82qT8fZP8Fvy7hsyQL5w76XCflmRGWpe+574PbixQAz/D4Kxz3OYUubw7Zs2ar2R3VK7TPyAuTKlatLes3nwZycY7itkHLa/KDtvQ8+KB5++BHR3z8gbQzH3dZkUGXcV8IcduPGdXHs2DHx/ve/X/eoMaFcXvlzWBJGUzvHPc5h2bkcq5NFRKxw/M//8z8SP/mTf1KVna0CN27cECeOHxNXL10SozdviHXyonNt7de5s8BFELeOzS0sis3bt6sf4eOT1YiVBT4B49e+r1y8IIYvXxJr+/rEuqGhWm82uHWMAg6bt24T23ftFgcPHZIXqP213oh2A7ceHVclmS+rX/ynilmzr/m8YH6YkPm1edt2sUPmBlXH7B/ii1g6jhx5V3zta18Tf+2v/fVaS0TEykN6ORQREbHi4PqauFXgGx823D/ynveInXftE1N8MyMXNnxaGwIlUS9evSrWrt8g7nnwIVU8IC5gViaoEvbQQw+pHx3lx0c7e/tUAYjxjFvMuD2I48SaNWLfwUNq/MOP8Al7XMC0M7it9KkPfFC+5p8QO/bsFePTM+KKXNiwT6osjMtF7YXLl0VnT484cM+94gk5xzz08MNxAdMyNN5OFhGxEhFLLEdErHBwO9l9992vbvmqEvwaNpu+13T3qJLM167ri5p+66JjcmpK3RqyRl747tp7l3jg4UfUb9rYXx1HrDyw+OCX4PsHBsScvCAa5VN0eTHKRvDk1//soeL2wZn5BbF11y5x7/33q9LZ3KIWsXJAsY2du3aLThnfGRnTa8PDKrb9Syh9zb3y7LObl9fT22Qu3f/gg+r20riwbS2uX78ujhw5Ij4gF6cRESsVXX/7b/+yWsQk72sD3PbBhh5zT1oStLOCt+9ro81sAiqTzzXG8LnurTObju0xIb4sG4DPhiJ8rjFZmvLy0Q5nVZpAHr4imrJ8BOwxIT7ay9SUxecas1RN9iKGdjir0MRj85Yt8rGVG2jF5PSMuHr1quiUHNwzy+JlWl648kvr90gbH3rkUVUFyccXssGlCdypcc9rA/DZsFS+deu4uN2lL25n58QNeYGEBvZPUJ57ZEz/YOW+gwfVpvHNm7eocSBLkyvuVWgyiHHXMHy8rrdt2yY2yRjyOT4fUlyVixle83l/q+WGnB9GxsdVOe2777lXVSWkIh3naee4E6cQn88GlyawHHHntuC3335bPP3006ovi89lg+FrF01l8vk0hfh8NrjivhyaivC5xmT5CNhjQnxZNgCvDZQ2c1UFoLoA1WcMQRKMoY8TJEFlBvpc1Rtoo48TJwEHXPTZoMoCfa7KBNqGNB/PaXdrmlV8ruoNmi+tyfCFNNkVKYpqwmbG5NFk+FyasvhcVTvCcUdT+nYRjtWamo97M5qWM+5V5nJWnFx8tqak/WZMnlxeatz5VuY9T7xXPPaeJ8Se/QfUhtxrN0fU78zc99DD6laUfbI9FCfjI1ecsny0EuOubWi9JsMX0lTGHMY3a3ft2y/ue/Bhsf/e+0X3wFrx4quvio7uHrHv0L2q/cCBu1O3Bxk+l6asuC/nHNbucW91Lm/YsEH9tsxj732v2LZrtxibmhZX5GIm67ZSMCYXLucuXRKLa2TOHLxH8dz/wANqgQS0pmrnMBvklstHoTgtJZerjvvE+Jja23j58uXCuVyVJsMX0lTGHAaKaDJ8Lk1ZfHEOW1rcOxFOnWobtPGwSQFj7IQBHEvf4mK6D2N0XyMfT+GynQHgoc/NZ85l8+l2l6Ywn+mrNdRQ5/PZl7YBwEWfDc3n1uvTBDg+vyZimG4HPh/pMb6463PZ4Fgzzob2a7maXHw892syfOk+xvg06fO4bPBr0j4qJ+7GhiwfpT+h0HG3zavzuW3g4dfk9pEZZ7Bz507xwQ99WN3TvmHrNvHoe94jHnzooYZfWuf8yTEGWXF32R3yEcdrPpemOIcBzZc/l7HNNYb2tWvXisdl3B969DHxxpGj4n4Z//c9+aRa6ObX5I478PlIj2n9HMZTuKqIez226T7G+DTp87hscGsCcNFnQ/Ol9e7evUc88b6nxF65QOVDCzbmU7nOBS6w+EHbSXkhs2HLVnHovvvFe554ouE3oYCORb5cNvHza3L7yIyzQZvLD4Dzu8YUyeW6JpcN5cedi+bjx46KUydPig1DQ+L1V14Wb77xhhgbG/fYF9akz9VoX0hTmM/01RpqqPP57Mufy9jmGuPTBDh/fk3uuAOfj/SYOIfV+Vw2aE1dzz77pcN8BWx/jcPzzs4uVfbMvkjSpeTSJdk4jj4XH6XQeNh8/M2jt9dng7sUH/db63Jt6ZJsPhvoM2OSNgDN1yX77DJzfj6ehzTBZZeFY4wuW5fWhL81n122TvP545RPE8eFNIXi7tJEmUDGUQ7Q5kNPyEdZmtJ8+eNOux7T02ADoK/sXC4r7hzHc5cNtBs/fP/73xf33nvv7dvJfHGXo5QNrY4747du3Sq279ihPq1N8vE3j6y42zb4NHGcX1O1cb+z5jBsSJfKTOYyF6Z/+Id/IH7qp/+0eg5fNXGHr7o5rIq4067HtOccBg+/nL99504xPTcnJqen1C2FMHN+LkZY2PCDthT2OHDoHvHkU+9XRULKzOXWxH0534/LjfuVK5f1AkY+ZicnxUP33Sdu3RoRly5elIubKcnVJefsjQ3nSmpK21d/vSfHhGygT2sqL+7ahry5jA3hOczFV03c4YtzmGT08hlNscRyRMQKxz/5J/9YfPazPy4OHTpUa4mIaA987nO/IP7BP/iHqTe7iNWN8+fPibffekuM3rghJsfH1KemG7dsEVu271Cb9vlWLqI63Lx5U5w+dVJcPHdO3Lg2LDZK/w+uXVvrFeoHZ6/JY/pl2649e8XeffvVojQiot3RuLSJiIhYkbA+2IiIiIhYNnCL2cc+/glx/8OPiFPnz4v5zi7xniefEu//wAfjAqZCcOvYkXffFa+89KJ469VXxMzEuNi7c2fDAgZQgGO3XLR0ycXmu2++IV6Vx7/+2mtibHS0dkRERHsiLmIiItoMt2r3k1M9JiIiImIlgltGHnjwQbF1+w7x+BNPiF27dtd6IqrAuXNnxcsvviBef/klce3iBbFz61axacOGWq8b6+UCc9/u3WJi5KZc9LysxnP7mak4FRHRbuhkpe6qFjA3N69W8a4NNWzOc1VU4FjaXQnPOXx82oZ0BQQ27Wi+9MYsjqfPtbHIxxfSZPhsGE1uH4U1uapE1H3k0qT58mgyPuJfG9k+yqcJPWFN/rjbNgBtw/LGvUgulx/3Rk3wv/baa+LMmdPi2LFj4tvf/pbq+8EPvp84JjvuNuo+Wr64122oIpfLjbvR5OLTNlSXy3nibjTljTvt+XO5HeJeTS4DbUN1cfdpos9GSFP5cfdr4kOZ9evTF89Fcrnuo+WLeyhO5edy/rhT4v57z39XvPLCC2rvy2Bfr9guFzDp/QZ+bNm0SWzduFFcOn9OvPbSS+L733teLorO13rryNYU57Bica8ml4G2YeXOYZ0TE5POwZRDo881mLJm9NkCqC5Au8vBnIM+WwActFNezQZOpM/lEJ8NdT53iTf63JomnXzYS7vbRzOqz66qELKBc9PnKluX7SN3GTz6XC+Euo9qDTWENRkfpROXdh42OJb2YprKiTvVMGj3lfajr6xcLjvu2EyfqejBBv1Lly6KoaF14hvf+LpcxHxbtT8v35gM8I22IR2nMnMZ0M7DRrG4a75qc3n1zGFVxT1kQ5zDNOqa4hxmz2EG7777rlrEbNyY/iHeOIdpNJfL2XHHZ++8/ba6FezIm2+IxZlpsWfHDrG24A/Kspmab2/6u9eIk0eOSN4XxKuvvCJGRkZqR/hzL5RHcQ7TaC7uzc9hodd7tqaVO4d1suHSrnIATAUEuyIAYEXv2qjJ18f+Mbo6g12VAJu1DelPCeDRfOkb/jnet1nUz+e3z/DZiWY0Yb8NY5+tCcDl+uQjrAkfFdVUxEd+TS4fMcbFFxqjNaXtLjvuhMDPV24uG/vKi7u2IUn36KOPiv3796sqX0NDQ6otWabY1pR88Rs+O5cBY0Jx92ly+aiuyRf3UO5Vkcvlxj3OYRphTXEOA2Ef+XKvGR+Vk8vGvvLirm0wdGfPnlUfvrz88kviYx/7uORz+Tx/LgPGhOLu0+TyUV2TL+7pMYD2cJz8PnJB8xWfw/jW/mW5eHnjlZfF6PVr6pawjRm3jjUL9s/s271LzE9OiLdee0Utko4dPaouIrM15ctlX9zjHFYHY1x8ode71pS2e1XMYVNTM1KGLmOWBBdFrNpcDtaftqR/XROweqPdTqgwH6vDtA3Axxeywce3GjUB+PJqgo/z59MEn05GGzHuGmVpGhsbE4ODg4rvm9/8pviRH/kR+e8fy39/VPUnbdDVyT4rDh26R/WVr6lY3Hm4bMjyUd44+fiyNbVf3A1Wi6ZkdbIsviJx5/z5NMEX57ClaLp+/br6cOX1118XjzzyiBgeHhabNm2WvYvqE9gXX3xRfbI7NjYq9u3bJx5//D3y/JRrXU5NxeLOw2VDlo/yavLxZWkaHr4izp45Iy5dOC/G+cZr3TrRn/iwq2zwKTpVzDrlonTX3r1i9569YpdcMJWpyeejVuSyi69InEDRuHP+KnJ5uX3UqrjHEssRESscv/7r/0R85jOfub2IiYhoF8QSy6sPZ8+eESdPnhTvvvuOeOCBB8XBgwfVnpeBgQHx1a9+Vdy8eUM89thjaj7ilqSI8jE+Pi5OnTqlFi+Xzp0VG+TiZX3tG/sqMD4xIW7IRdO6jZvErj17xL79B9Rv/kREVI30siciImLFgU8lIiIiIlqNLVu2qm9jwA9+8AP16TwPvj3+7nefU79Z9eCDD8UFTAvAp9KnTp5QJZPffOVlMVa7dazKBQxgnw37beanJsVbr72qbjF79513nHsrIiJaiU6+jvFdAOmvhdLg+NAYVx9tRflcCPH5bABFbXD1hWzI4nMhxOezARS1oQo+2oryuRDi89kAitrg6gvZkMXnQojPZwMoaoOrL2RDFp8LVfLRXoQvNMbVF7Ihi8+FEJ/PBlDUBldfyIYsPhdCfD4bQFEbquCjrSifCyE+nw2gqA2uvpANWXzcv/6TP/knxcMPPyI+8pGPqk3D7Ns7f/68+oFE+3dgVoImF6rkoz2L78rly+IlSibLxcvFM6fF5nVDYvMyf/uxcf169fsyN65eUftxWFydlbaBZjTZyPKrq4+2onwuhPh8NoCiNlTBR1tRPhdCfD4bQFEbXH3Gho6bN28tcr9ZctMwoJIAVQl6e3tTm6lMdYa+vt6G+9SopDAzMy3Y1NPb2/gpzPT0jJifn1N8yXviMGRqSldn6O9vtIFPdxjX05PeyMS9twjA7uR9dLTR59KEHnRhm73Zy6eJTz6YpEOaenoafdSMJvSgKwmfJvj4hMOtaU5tsONTL3vjFnzE3tZkfEQciEcS+GdubjalCRgfpTXpuONT+9O3doh7PZfLjXsRTXniHtKUzOV//s//mbqd7J577lV9RTSRQ9hYLO5pTZyH89majI8wK60pnMv4o7+/35nL4bjHOWy55jBzOxm2xjlMo0jc7Tns6tiUOH9rQnRKn3AewLkafTSvxnR2pjcq004/7fQboIlzgdu5IjlhJY8Yx/nt3CN+b7/+ijh/8oT4zE/92VorfAuqjz0xtl/xEQ9sSPoV5NGEzWB2dkZs6O0S+zZvLBD3/HMYsPlaMYfxe2GXL10UV3hcvKBuHVs3OFg7on0wIV/fI6Ojon9ondixa7fYvmOH2juVfr3H6zBg4u6bw/BT6L1rpc9hSSwl7l2/8AufP4yDbScykIdrguF+TN4kMDJ5QpyoSp5JAa7EMA5pdCJ8Y9IY7ZAkEIw4PWE1itZl13SQbSeOj08o3rQmaltPKQfaTjSaensbNeFEzkVbOjH8PuKrdZcmEsO8EOzE8GlCy9jYuNS2qIKcBC8cfEuipzVNqH47TthFH0gnxrRKap8m7He9eEzcXckeirtLU/lx1zXI8+RyKO4+TaDMuDebyy+88IJcwNwjNm9mc23xXPbHfVTF2B93Kog0aiJ+5B5vLOlc9sU9nMvkhR2nsI/iHAaWcw77vd/7mvjEJz4pz90p+eIcBorFvXEO+603z4oXLo2I4zcnxNHrY/LfcXFiZFIcuzEhH+MNj+M3J9Uj2Xb0Ou0TzjGab7LWJ4+73Tem/j0xMqHGmuNN31lpw6XRSXGtb+Ptds5Dnx7TaAMP7Nb2uWwwmpJjtA3JMfoc4+LNKzfF+MS0eGjHRkfcy53D/HEvbw4jT48eOSKOHXlXnDlxQjbMih1yUdBrvYbbBfhvaO1aMT05Ic6fO6dKa7Ow2bBhQ4NvV+N1WFbci8xhIU2rYQ5LYinXYV1f/OKzhyHF+UkwiDcejE8aaUCgbEfpk3eogLjG4AycmDTS/K1taHSUtkEbn+brUI5gXJKPduDXBB+fPqX5OJ6+JDS3LvNmO56JT3/C5NOUfpECbUMeTRqcJ5+P6qX1Gvn03/DZmjSfO+5Q5NfkjrsBn4AViXuaT//tjruubEGfyz7OT18SmtsddxDO5XLiXucL5/L3v/99tYnWLGLgy5vLms//etc2NK+JU+nJzx13F5+2wc+nfeTOZb+P4hymuZdnDjOLmK4ufRznyeejOIeB5Bw2Obcg/s1LJ0S3fMOflWPmpW08+Lvx0ana5+RYu482PSbdl+JblMfLf+cCfPMdXaKzf63o27hVLHT33G5nnOKT/cnjVV/NBiefbUPtYWyYT4yZkfbx7/DEjNg12CMe373ZGUPt1+bjTmhCc1jeuEMRyuVk3C9evCjefedtcfrEcTE5Oiq2bFivSh2vBPTJi9f1Q4NiXNo9PHxVXoROiAV5VctthsY/2kfxOgzAZ2vSfPE6THO74w7QFKuTRUSscFBi+dOf/rS49977ai0REe2BWJ2sfLxz9ab4F98/IXZvTf+AZKvQcJ3SZuBTX3D+6jXxl584IB7ZWZ1fysbNmzfFmVOnxOWLF8R1uQBgw/5gwR+rbAdMTU+Lm3Ix0ycXYDt37RZ79+0X27Ztq/VGRCwd6eVQRETEikLjJyEREe2DtdxeIi9kIsrDkau3Kl8UslBo1wfgk36xsCD2blgZ31bY4HajY0ePiNdeeVm8/fqrYnpsVG2YX8kLGMC3Mju2bBFd8/Pi3TffUPreeP11MSoXNhERZSAuYiIiIiIiWgJ+7PD06VO1ZxFl4I3LI2LAuof+TsfUzKzY3N8tNvQ33oe/EnDhwnnx8osvqOpe1y5dFNs3bxYb1q+v9a4ODA0Oirt27RKTIzfFW6++Il59+SVx8sRxtbcjImIp6GTzDptnbLBBhz5T+SMJEo8+GxxLO2NtcA4fH+1sSrJhbHDxcbzLBpDF59bk5jOa8vpI25B+gbbCR5wnj4/gZ0yRuFelyceXFacQn09TiM9lQ4jPZ0OIz2jKw2dsCPHZMDZUFXfG5NXEmKo0hfh8mnx8tJcVJ5DF59ZUro+0DUt7vT/xxBNqzxY/jjgyMqI2YnJM8sHxfFvDv3Yfx7OB027n3NjG37/7u/9JncvAaOJfe5zZMGu3w8V5XDbwKXlSUxK0lxV349cQ39j0rLg0Ni36e+PteUmMT02LB7auUz5yxYn4FsllxuSNO2OaifuN69fFyy+9JF57+WVx6ugRMdDTI7Zu2uTc62CwffdusWf/fvXYtHWrauPvsmC4d911V62leezZt6/2lx+UZGZ/z+Vz58Trr7yiFm/s/zHIem0QExvmteGPU/u+dzEmrybGFNHk4wtp8vFlxSnE59MU4nPZYPi6Pve5Lxymwf56momeCi9snLE31LBRi8oEdjWDubkF1QfYiJOE4WMDUXJTD0bqig8LagNREpyD6gjcLmO/sCcmTOWQxo1F8FAdgWoL9CUR1kS1hRm1oTfJRwWJuqZGPrh4dHWxMculaT6liVJ8VMXgFLYmYx/nSfoopAkfMU77yNbk9xF+xU5f3Clpl9QE8APJZmtqJu62pmbizoa9vHGHN1/cdS7bcQ9pgkv7yBf3tKZQ3NHKxVqeuJuLO45/Ub4R8KvZW7ZsUX2+XDZ8oNlcBv64m8oh7lzGr7S3Opd9mpqJe3VzWNpHd8IcRmWiS5cuqg2+Z8+eVb8yzu+JnD59+vbj+PHj6nHmzBlxTl7cJPuOHj0q+06ICxfOqX7TzptyX1+/+OpXvyKuXbsmzzsjdu7cqSoioR0brl69Il6RF0qNfEfUgur8+QsN7bQdOXJUnuN0yobjx4/JtvPKh1TcMZWOlmMOOz0yIV66fEusH1zZtxmVjZujY+JH924W69aw4bi95zDKwp6S+Xbi2FFx8ui7okdyb928OfXatMHiom9gQPTIHFwjj0UPm+ff+6EPyUXQ0dpRSwNcE+PjSu/g0JC4dfNmrScbTzz9tDh17FjtmR/MW9wmNy8vQC/JBcwtqQF/9vX3K9+2wxzWiri7Xu8r4TpMaypvDiv7OqyTAQTFhrSh9m+6T9rZcKI69LGuMfWmxj7a4XKNCWPROY7n2rY0nznUbZ/hqzXchm5wDEnwpDvdXPUxrj7ioG1vREgTbSSOu2/ByQcY4467aUv3cbxrjDm2PrYOVxugWfvI3e+HO+7A5yNzqNu+Irls2hr7DFdojKNLokjc/TDj3OfS/Tbqbem+InHXY9KfngCtydUXyuVw3F32mUPd9hWJe+0Pyz7afbYZuLvcmniubUsPMoe67fPFXTc4hiR40p1urvoYVx9x0LZrDMiLlY9//BNi3779ahyLjFu3RlIPvqVxtfMYG7sl+xvH8YZIrrz44ovi537uL4rf+Z3fVudNftLH38kxPDiP61y0jY5yHncfG65PnDguvv3tb6vngNNoHzkcEUQ4l12xMIceHa5+P0y7w+yH2b3OlJxN+2+55jAW2HzTwIPFPAtibqXi1/b5gUj2vTT7a/uHHnxQnD1xQhx76y31uHz+vGofvnxZ/btjzx6xfuNGsW7DBtErFwRJDK5b1/DoYJGSeL42YQPcJ48cEfc89JB6zsJp97596rjktz78TRt9SSSPCYFqa+hn/8/b/Oq/9Ms777yj/HThgvZZ3XcXxOXLl+TfPBr7eNDHMXb7lSuXZbt/jItPnzvNdeHChRrfRTW3NCL03hWvw4A51G2fsaPWcBu6IaSpQ66oFhlsr4xwLqs9JkxtVB36q6LF1OoMUoJrr2BBmG9Otdk2hPj4JI5+2wbg4wvZ4ONbDk2MaZbP2JDHR8YGuPL4iHaQx0fYwCOPj3iBUjM8jyaQ5aN2j3tRTf/sn/1T8clPflLcd9/9qi9LE1x5fEQ7yOMjbOCRL+7ahjw+oo2+LB+lbYhzGGiVJsY0y1c07thw5Mi76pfjf+u3/oP4k3/yv1B9WZpAHh9hA+O4kPnWt76pFmQ//MM/rPr8mlozh/3ad94Vk509YnAF7v1oFSamZ0Tn9IR45qOPKh+VGXceeV4bJk7kCt8cws2C2/SdlIuYvp5usW/XLtFv/XZJFn70M58R//krX6k9q2Pt4KAYHxsTT3/sY+obmanJSTE1MaG+UTFYv6mxYtuoXJQPycXObUg/jNy4IT7y2c+Ko2++qZoGJO+RN94Q9z3yiNLEYukeuZB6+bvfFRsk36Zt28QVqXOLXIgcf/tt8SOf/rT6l0UPC6E8gP+s5Lp6c0TcfffdorevcREmDZTHzEt/U6a3MU78oCrf1OhvQBrjxLcwtNmxDfERJx4hvg9/+MPqm15+2mB4eFhskv5AQ57Xu8k9csiXR8uZy1l8Lk3AxxfSlOUjlw2GL5ZYjohY4fin//TXxSc+8Qlx//0P1FoiIiJaAW4v++3f/i3x1/7aX0+9Ebca4zNz4m//3itix9ZNoit1UXbn4urIqPjAjiHxU4+UtzdkKbgsL/b/6I/+UF2s7d69u+Fi7orsW5ydEZNy0cFm9zy//eJbxBgcfOABMXzpkhhav15cPHtWXRga2N+OXL5wQWyXCykDvs26IHObRczZkyfF3gMHxB9/9avqQpG2P/ryl9VxfNszIW3nXK88/7y6yDRgEcNrImSjC9wWfUtydvX0ig7ps23btosu65asdsODDz6kbnW9ceO6+mmD7XIh9/LLL4vr16+JT33qx2pHRVSBuIiJiFjh4JuYj3/843ERExFRAZ555ovii198Ru2PqRLN/j7MUzvXi+9f1Le8gfftWCdeuHSr9swPlmRPyrGAi4IfJDiSsPnzYCljfbgwfF385Sf2i4d3tMfvw3xFXsRzayLfDNr7DMC5s2fEu2+/rfebLMyLdXIx08yv8LOY+M43viFmat/suNDPrV9ywTIrjzl9/HitVYhDctGRxJkTJ8Rdd99de6Y/1T7x7ru3Fyzcusa3OedOnWpYxBy45x5x7coVseOuu9TtbCPXr6t2wCKL4824LLDIunnrlpiT/w5t3CT2HzwkFwT31npXBn7+5/+q+Bf/4n9Vt5i+8MIP1K1rP/VTP1353HAnI36cExERERER0SS4vYFH1Wj292E+efcWtVgw+PgBXfAjC0/tWi/W963Rj970bSIG8OfBPRvrRQjgLhNqf4C8CN67YbDWsvzgFscPf/iHnAsYsGfvXeKjn/ikuP/hR8Ta9RvUhfwNuaBJfqvhAt+Q7JSLB75V4cHm/iR27t0rNm/bphYRXdZtOcfkoin5YCGUfM4CJgluB7v7vvvUt0ic15xzgM3+8oL9jFwgUY3MtCtI+xnXz16XjEplfPNy5do10d0/IPbfc6/4oR/9yIpbwIAflXYD/PSxj31c/IW/8DNqQRhRHTrZ3U9VABvca0afKyDc42nu80yCYxlD5QcbTPouPl64Pj5W6nzVqO9fbwQ2w2e/8Hnu16T5kl+zGmRrSvOh06UJhDVNK//aCGmCi2oQNkKaOJ5xNp/RVHbcXZqy4u7SFI67WxPPw5rKjLtbE/DxhTVVG3eXprLjbjTZfM1oKjfuxTTFOWxpcXdpgqvsXC477i5NWXF3aQrHvVguv3bxetO/D/PglkFx1+2N7nWwuOnt6lT/dnc23g7HYucPTl4TX5ePb5y6ptoe3joo7t7QLw7JhcgjWxs3oPMJKN/c9NX4AJz8zSJo91CvGvNDd228PfbGlNb2iOR9YPNasVfaaL79OSDPw9/GPss8JyZlbLYM9MjFUU/pcTe5nDfu7IfZvn1HraWOZNy57eqBBx8UT//QD4s9dx8Ui2u6xaWrV8WovLj3gQUCY9lzwsO+nZHqXqbPXpQ0CxYsBurvzk51XsPLhn/AQolvklR7rYiA+fbFHO/CxOSkuDw8LGalT7fu3iOe/MAHxXuffEr01zhMnOzXholTu81hf/pP/xn1L5USzevdaDHwvd6NDXfSHFbue5fW1En5MohtYIQu5ZY+IaXpKEtoC8A4XSot7RBKYNLnCgpclHKzofkmnQKwWfPZibGo2l2a4IHP5USfJuyFD/ttoJM+mw8OrWmy1lKHKRWYRxMm+XwU1gQfmmoNNWj70JROmlDc4eJhg2MZ40pcX9xDmrLjntbUXNzTuVck7n5Nobjnz2XjI58mKiWxofkt+abxjW98Q3zta19TMfXFPZzL7riHNIXjPq36bL8aTaG458nlUNzjHKYRjnv+OSwU96xcdvkorMkdd21f/jnM56NwLi//HHZjbEJcHJ1q+vdh/vjMdfEjdzXeXsWiYpd8dMlrX74R+cDuxMZuie9fuCneKxcPLCA4Bnxs32Yx0N0l1srHx/Zv1o01vH/XerFB8rA95yP79LnghHuNXIH0dXWJod4uydWp/gWfqH0rBNdgzxrRt6ZTfFSeAzwsFzpb5YKExQscyW9wfOD3YR7aphdBvrgXzeWic9iNGzeccXfl8uDgoHjfk+8X9z34kBjcuFlMy/eoK/Iif8qR1+DMsWNqkcBj1pqjWGCYvqJIjoWPMsjA8LIfxoBFjmp/+2313PyLv9jgnwQXsMPSL2PSB/3rN4p9B+8RT3/ow2Lrtm21IzSMj2y0+xx29uw5ce3a9TiHNfXeVe51WCf37tn1lwFVG/g6NF3VQah211el/3/2/gNektw6D8XPzTnnMDnnuGl2dndmc2AQJStZkp+DbD8/6/39LL1nUSSXXNqWRImSZVlUpk3lYEmkKGaK3MDd5YbJOcc7N+ec7/3jAwrT1WgA3VW3um/3TH37q53bQOHU+c5BoYAq4ADnIl2Nkw0gugCupVsMaZOHMjodoLOQ5yQ4wG8TJ5s8kw7QF2V0URjAE2W8yMO5okysjUycAJTRTSWwccL5Oh0kJ508m98RwxuHCslJjWcOxPN7cJxsfs8xyoMsvTyb31NTlwHIMtnoxo3r9Od//uf0ve+9QX/8x3/E/8VNH8/vOk5Lud91focONhvpOEEOypjk6XSAeJTR+X0pnMI2zK/f/dVlE6d4ddlUj1AmKE7x/B4cJ7PfO8amKDs3L+EF/TeGJ6lrfJp/2eAhiBl21pfTd2/208TcAv/aog5ykIbBCgYQDzWLAU5ZQS5d6Bujs72jdLE/+ivBU2xA8iqTN83kyfUzkAk5/ZOzdG1ogr5/Z4iGpmf5v25gAIMyVwYmaNLVUXv9Vj/7LfTbpnz50WGOdYw215Xzv4P2O/zkx++YWuTV75hidujJJ2nrzl1UWl1Dw2yw0M86/bpOcaZhZHSUehmXgpJSWrd5Mz32+BO0YeMmT35K9zbs2LH3aXx83FiPdDrcb21Ysvph2fj0pX7+ApBZXFzEK4gKnI881SC4eZGOsiqwqRzKuSN1AJCBMkVFsZ++oSTK6DrOUm/VIPgt81RADtJ1BkG6iRPy1E3xAGkjM6dYHWBPYSMvnLKcvFgb2TkVOvKiOUkb2TiZ/I5DRYRT4n63cbL5HRvNIc/ECYeKiI281WXk6WwUvy7rbOSnLgsbyc313IAczMHdsGEDf8OBwcuLL77kyNLbKJG6rNoosbpstpGXuixt5Kcu41ARry4jT+f3eJzMfr/f2rBYeTgfhxe/2zkF34bpbJRIXVZtlEhd1vndTxt2c3hK29GwAQOBh1oia2P6J2eouTSi66zmjejrtwd4uSejvrpAzyye7gYGL9ncjln0xu1BnjanvL0GchVbq3CbQVPcCLz1da+HMfndb13224ahnujv9/h+37hpEx1knfzV6zdQbmERXzeC9SOZiPGJCers6aF5xq955Sp66MCjtGv3HiorK+VcTfe77v5M9zYMG/gi/HLYhiXy7Eqck83vrvszupAbqhMlcCH1YhKmMoDpWnZ5Nv2CK+Nfh9TYCOle9cP5Nnkm3JuczPK86gCkSh7STfIQT//551/gMepXr1p1N1Y9zrfJMyGsywJ+ONnl2fQLrox/HUK/A+nM6Vz3EJX42BsGX0AwtQs42T1CG6pL+HSx/ex4ryM6ShjS5fFeh/hygn/3NZbzA+tj3HiH5e1uEHk4gPfah/jXH8jYWC2mg1UX5fHfbkCuvNa5Pn+ddPd6GIl08LsJifodG8RinQjWi2DdyNziInX39vIpN5kAvFTrY4OviZlZqmpopJ179tKjjz3On08SJjvY/WS293L7HWk2TjZ5JqRDXQ6ek1meVx0A5JkZhwgRIq2Beaf19fW0f88eOvDgg3Tx7Gk6cewoD/MYIkSIewNj07PUNTZNRfmJfYmRAxDgeNfI3aleM/OLdK53lE8XqyzI5V9d3EC6PORXF/wr08qdiGVS/lttg1SaL6af4QBeYzKxTga/MWUMuDwwfjf/iDNwcsuV17o+OBH1JecqK2eDez3MvYj6hgY6dPhJ2rZrN5XX1tHo5BSfYqZbuJ0uGBwepn4s+C+voA2bt3D9V61e4+SGCBE8sqamZviO/eooCAtsMEUFIzs1Ty4OUkd9tjLIw6EbKWLeJ87XycOh0w/XQZ76eQywybNxMslDnk6HePIALzogD4daBgjaRiEnAb+cgpaHQy0DmGyEvQbutLVR5502ymZlK8vLaZINajCXupI98BqammnNmjVUURH9kIcOkJeOnGQZnX64DvIysS7bdEC+1zYMB/K8yEOerkw8/QAvnKR+ahngXuH00Y/+PN8nBouyU8HpQs8g/e6RG3H3h7nf0N43QP/GtT8MbJpMv7th8/v//X//e/qt3/ptrQ7I91OX8XXj0sUL1NneTmNDg1RUUEAVrM1PF4yNj/PIakVlZVRTV09bt+/g94fJRjh0fJdiI50PkQ7odDCVkfqpZQCT3//H//hNevbZ52jTpk1aHTKRkyyj0y8ZnHTybGXu5iEqgT7iA8KX6cOhIV0XfQBRB5Buio6Aa6nyoIiQFxuhAeeijC46AiI6oBxIuIHfSDdFfECenpOQB33ckDrYbRStQ4STPuID0m028sIJb2VQRvd2xsQJ8uJzCtbvKieb322cbH4XnILyu5lTRF7inOx+FxHFdJxQxs1pYGCAThw/RqdOnKC269eolD3Maqqq+M2P3Z9bGhpoZnyMLp45xc45TlevXmHXFH6O2CjxugwITsHW5eD9nr5tmFmemRPSdXUZbaFOB8Bcl8M2TALpOFQk4neVk83vS6vL0fIu945q59rfz0CwgkXm35VVkcX/proMCD+lpg3D9f353VyX4X+sJ8EUs8YVK2mBtfcIyYx1J8uJafZs6WXPJEztw9SxPfsfoEcePUhlbDADvZezDQOQjkNF0G2Y9KGtDfPj93ulDQPsnEx+N3OS8rLRwdENErBICSepSgJI1wmFAkjXhYWbn59jeTMxSuIn4nzrdVjgZXSkRZk5jbzFu3kqbJxwfSHPSXAgOEGHWHngCXmqDoDJRoITdNBxQpkZlpc4J9jGbCM9J8hHGZ3NhTxvnISN9H43c5I+NOng3e8mTvH8Lvg6CQ5snEx+x0+k63WI73cdJ8kXoQQvnD9Pp0+eYAOU05Q1N0tN9fXaBXRV5eXUWFND/V2ddI6df5INejr4wkOzjVJVlwHw0TWMfvxu42Tzu4kT5CNd53f/bZjJRua6LPNUSBuZ6rKQ5yQ4EJzCNgwwcRI2Ss82zO96mHsZk8xXtcV5VO4KOe2nLku/m+qezu8A/Gdqw3B/ePG7lzashrXrWPiPdSaYsoUpZn1sEDGjKZtMgAOmjg2OjFBuUTFt3Lqdnn72OWppXXE3X/JVIe+Ne6kNgzyU0/kd9URfxux3YaN7pw0DbM9jnC/kOQkObJyk33M++clPvoJwaOpnHHy+wYGIKOpnHKIs/mZAfTuE87DQBqHS1E9T+I3Qb7m50fLE31n8OrqoBSink4dyOTm5PJSbKg+HV074DT6xoeHic1Llib+FDl5shGKwgc5GOHSchDyhQ6w8Oye7jfKjdBDw7neIMHGCPJ3fhTwzJ7vf8zz6XUThUG2E81Lnd9g1xyCPqLu7k65dvULXL1+i2alJqq+tpUJNBBI3cI0SDHBYg9HFBjND7IGDt3ZFxUU8OozORjpOAsnwu/e6rPM7ZMWvy8Fwwm+vbZhNHvL8tmHQWycP6SgXjfic9HXPT12+99sw7Mn0OOtIiihANr97q8v4GwfKSE5YD/PlC+1UVV7qRAILAQyNT9Dehkrayg4J2Nl7G4a64r0uQ56pLr/xxhv0/PPPJ+x3yIpfl6N1qKysoqbmFv73NOsADg8N8c6yLpJl0BhD+Gd2vYLiEmpoaaFde/bRqlWrovTD3zhsnOALnY2QjnLRMN+f+J2qZxcOHacjR47Q+vXrqbGxUSNP+l1d05aI3++Xfpje70iP5/esmZm52KFeiBAhlh09PT3UdvsWdbXfoanxcaooK4s7eDEBg5jRyUlqXrGSP/xWrFyp/YoTIkQIPfBWEMfHPvYL7Pg4ladgTUK4HkYPrIf5t3vX0LbGKiclfYA1U5/5zK84v5KPYda2nztzmgZ6e2iSPSfKSkr41OKggQ04Ee45h3Wsy6qqaOvWbdTY1OTk3t/4rd/6H/TMM8/Q5s1bnJQQqUL00CZEiBDLDrzpOn/uHJ05eYIunztL2QsL1JDA1xcbKisqqLm+nga7u+gsk4v1MggOECJEiPjAHO/XX3+dvvSlL/JNZr/ylX/gb9yTjXA9TCzkepgVVdEhn9MFaL9TCQRvOXDwMdq9/wGqbmikqbl5PsUM61WCAKYTISrayMQEG7xU8w05n3zq6XAA44L6ZSFE6hAOYkKESBNgOgA6SFjDcu7USRofHqIV7EGBN2tBALt911ZXU2lhAbWx65w+eZKOHztK/f3Rm9iFCBEiGpjHfYzdK1/4whfo9OnT9Pu//3t07dpVJzd5CNfDxEK3HiaE2PX/yaefoY3btlNJZRUNj47ydSvqugUvwJcXbLiZV1TMN+A8+MQh2rBxo5MbIsTygy/s1y1QEwufYhexAmIRjmlhkX7BlliEY5Zn00EvTyxGUuXh91LkqZCcdAuL5MInEyebPJMONnnBc8pcv6tIhJNOXjxOukVtfvwej1NbWxsdP3qEfyXpab9D1eVlVK2ERw4KxUVF1FRXRzQzTRfOnKbTJ47T+XNnaWhoyBMnaSMTJ5uNUun34DiFbRgg5Zl0sMkLnlNq/I753c8++yzV1tbwiDhNTU18o9mlcFL1UzmNTM/QnZFJysvNoTnmp/AQBxazb6mNrIWRCN7v/uqyPFRIv6tQ/e6GV074IrBlyxba+8CD1LJ6DWXnF/Bd871+HZqYnKTuvj6CRthwc/e+/bR7z96YKciSk6offttsZLO53Ubp2YZJvsvld8DOKXXPrnicdPLicbL1w7InJiYN4dBmCHm6SoN0HCoBnIt0lFWBEG/IU8PgQQbS8WBQgWgFQl4sOeiMPNUg+I10U4g35EGuCoSFQ57KCfoKeboweNJGek44VNhtZOekC4Nn44TzbfLsnJLrdxsnm9/jczLXZd2NgHQcJr/rOEXkJe53E6eRkRE6wQYRp44fp2uXLhHeLdbX1FBBfmQX6mShvKyMVrLO2OhAPx88HTt6lG5cvx5lW/91WdjI5KdU+j3ZdVnaKGzD7u02bOvW7bRzx06+oP/wocN8ES/S/dZlVQfV72c6B2l+kfGeYw94ljbD6tfczDTNz7KHuutAusiLTse5SEdZdzoOkzzIkPLc6SLPJk/qoJeHfHc6DhuniLzodJybOz9Hm6tjv06b/O6/Lgt5Xuoy/C46V8vZhi3wRdc7d+/hg5na5haaXljkX1SwrsUGdD4HBgdpjLUl5TW1tH3XbnrkwEEqLinVcgrbMAGhH7YDub/6YaoOEU7e/I50nTzpdx0naaOcn//5j70iIzu4gQtBoC5ywhxrVDHiR8QA91xAhFDDDZydjUhL0fN4kQ79kO6OMoA0XEvKcwNlEBIO11fnBYtRIMpER06AzrOz0CFWHpwMeSJKQzSnWdZAEmWxB5TKCTHfF/j5KifIi9goemYeOOl0sNkIDYiZk95GNk6i8gl5bk6Qh3I6Tqnzu5mTze/xOOnqsrDRgkdO8Lt4A6tyQrq0kZsTYPK74ISHi+CEG/DmzRt09fIlunn1CuUxOY21NTHlkg1wLiospDym1yB7yA0ODtD4+BjlMhuWONPY/NRl6XcvdTlov6euLotreeUUtmECNk7p0obhK+X1a1d4R7qQ1bNtW7ew+2ScFimbSktLYjjZ/J5oXe4enaTqwjxaX1VCjYW51FCQTa2lhbSqooj9W3D3qGeXbi7OpdWVxbSirPBuenNxHstDmQJWpvhuOo6GghwmM4dWlhfxI5KXz8pkOfJKXOkFd3XANWJ1YO0Xk4fruHVoKZHy8ozydJzq8rKoqSg3Rh7krGT/7mqqogJmPzdsfvdTl5HOxHE/eWnDvvnNb/CvdMvXhokQzzi/qrqK1qxdSzm5eTTBBoUIAjDDOpgo4+YEDI+M8M2Si8sraCUrs48NgOrq6q11OWzDBN577z1auXIVNTQ0xHBKlzaMiePpXuryUtswN4Tf4UNEVku8Lgt5Zr9nTUxML8LJaoWG8jAKCruFAiAHqMaFQGlEyHRDyEMnLnbnTSiDJL08sVunKk86RTUGYJJn08Ekz6ZD8DbCZ2hxc6vIXE6p9TvOT01d9i+vq7OD2tpu8932F1mDid3285RGYrkwyjpmQ+xhVtfYRI3NLbRq9WoqLi7med5tJB46KjLb72EbZrdRatowQPg9uZzwRvHmjRt05/Yt6u5o52HLsbmsXG+A+6SppZXWrlvHdyiXWIrfcX5q6nLm+d1m1+TYyHsb9jM/I3bsV+WZOAGp8PvkxASdPXuWetjzZ3x0hEpZu17O6ixC76Pdzy8soqraWtq2YydVV0ei4dlsHo9TZvrde13+3Oc+x8Ou79ixPWFOgPB76upyqp5dOD+ZdRmQ8sIQyyFCpAiDg4N06+ZNHjJ5eHCAb0qJ9SnpiIGhIZqamaWmFSuohR14y6S+jQkR4l7GnTtt1HbrFnW04WXDLA+Kod4DfKPBuTlqbF1Bra2ttHrtupiHd4j7CxjEfO5zv+38Sj/0dHfThQvnaXign3JYJ3GWdVRLKytp46ZNtHLVauesEF7w27/9OTp8+DAPOx0itQgHMSFCJBlYK3GbdYY6O9pZh+g2lbKBS1WSFu0HCUx5w47MeYWF1MQ6aSvYQAbrAEKEuJeBaH23bt7gX0pH2WAe92qJ8zVSB4SyxaA/Lz+fWlgnkN8nYfjZ+xbpPoiRQHS9O7dvU21dPW3avDl8SbUE/M7v/DYdOnQoHMQsA6yvjPApJ0Tw8GNXv75I1bVSySmTgLe5CJl89tRJGujuoua6uowYwACYn4r9afKzsujqhfN0mvE4feoUn1ctkUq/h3UsfXAv+n1iYoIunGf1/MRxusDu1wU2OGllgxHbAAZAEI6m+nrKZ53Ay+fP0cljR/l9MuK6T0J4R6r8HnQZTCvEugodUqVfIli3bj098NDDtG379owfwKSD321IZ/38ckoX5Px//99/ekXMlYuei4YFW1i8g7lr6udxRCbAvDe14kMO5hBjrpoqD291IROy3PPhYEBETsC8N1UeroFysDHm8rkh5anz64Q86KDjhLBwYuGYygllcD1Vnp2TCAuncgJMNpKcmKYaeWYbQR7m/8XKE+EAAR0ncMa8RT2nWBtJTjhflWfiBN/Bh9Az2ZykPLOfls/v7rqMqGMXWIfm6uXL1NfVSRUlJXzHffX6mQAMZqD72OgodbTf4Qua5+bnqLCw2JnLmp51GdcP27DE7neVE2CykeSUrn7304YhKt/5s2fpxpXLNDs5QY1sUOJ1qicGM1jfNsru/Y47bbwNmGF6YDNCt44mv9s4LUcb5qcu6+XpOSXL77r5+KmsyxcuXKB6Vn/c60oAP5xw/WS2YXLx9VL9juuoNjJzSlYbtnx+x8L+5uYWqqur03JKhd/hu+XuhyXP75Y2DCHKQFwFTpicjA3JBiAdhwpc0BQODdfQhVADIAvh6VTg2igDRVXA8EKek+AAv5GOfBWQgzwdJ1zfKyekIQ/nqDDZCNdGOuyrwmQj/EQZXQhXVFzBSSyMcgPhCnU6QD7K6P0+w8t44YRzke7H79BRhY2T2e+S0/L6fXBggM6cPkOnjh/je7AQu2mxUz4igGU68AWpsaaG+tmg7OyJ43SCccSiZz912bvfhZ/Mftf5KTltmOneSPc2zHS/I8/ESSfvXmrD+np76eiR9/nXl662W1RVVkp1rI6rD1kvwMJ/fMHs7+7iX2Cx/1NHR7uTm/5tGGR5rcvQGXk6vyNdV5eX0+8SfuoyIOTp6/LGjZvonXe+T11dXU6qgNqG4Ys2ZNs5hW0YIDktp9/xE2V0bRjORV5wddmf35Fu87vKCRDyvLXLqfa7jhPSkJfz8Y+//ApGYOoojKnDRkTZPISa2qDDEDhfDaEmDYRQaKo85EEOyrhHWgCKYZSqypPQhZkT8kSZ6JGgyDPpAE4oY+aUq8hLhFNsqN2IvGhOUrSZU6yNHBW0OgiINyqJcgIgE3k6eV79LoF0+NENEycJs9/NnHR+x/lCP+iQer8jDeterl65Qndu3aC5qUm+oWRhwb212zb48uk1jG8P66SNjY/xRr2Ipbk3QovYSO93r3UZwN4HKJN4XQ62DYM8yFHDSgJCh/RswwDINMkTfrq/2jB0uq9cvnw3xHlJQT7Vs4FHUFECYZcyhChfmKfOjg7eYcUXzEJ2j2CfmXRswyRQzHtdFm1DXl50iFSk41o6HQSC83tEB5u8pddlCZONysvLqb29nQYGBqmXDZJv375Nd+7cYQPZDupmbWZfXz+1tDRTZ2cHXbt2nZqbm7nu6MS9887btHbtOkcSELZhEpCpl5cav+M6gE6Ho0eP0KpVq7gvvXJCniqP5XAbefG7BNLhRzdMnCTMfvfWDwMf5On9lJw2LFzYHyLEEsEfVLduUtedNpqamOBhK+N9eWlhDZ77Zr1z8ya1rl7N/w0CkCUxMjTEj0ThRY8h1jkbZQ9fhJltbl1BKxmvwnvgq1OIexN4q9h2+xbdaWvjUcfyc7J51LFkYwCDGNY2NK9cRU1O6HIMZkLcm0AkyitXLlNPTy/NzIi30rK9z88voJdeeolu3LhON1k7W1ZWTvv372eDngH6wz/8ffr5n/8Ffl6IzMHv/u7v0GOPPUbbt+9wUkKkCuEgJkQInxgbG+MhkxF1rIcdlWVlfBf8eEDY4vLKyshn2sVFunrhAh1mD7bXvvY1kbZEQFbbjRv87+KSEjp95Aj/OxF41WN+YYEG2SBpnrKomXFbsXIlta5Y6eSGCJEewPSeNrxsYPfq1Pg4VVdUpHQggfu9n90ni1nZ1MLvkRXhfXKPA2+L8aVavlEGMEUGi//7+vqotraWXn31u/Tkk0/xvIsXL9DmzVt4mfBlUOYgHMQsH8JBTIh7Fvg8jweFbo75UoFFu9gwrPPOHSrMy6VqNihJFI899xy999prMfM812/dSlfPn6fK6mqaYrrjKK+qopHBQecMNgBqbXX+EsD1dWnugYj8G59xaxsbqbOtLeprC/5GWj7r0GFDNHm+1y9Dk+zBi40yseNzXUMDlbAHdUGBeBDjsy8WulZ6sFOIEEEA9yrfn4kNXno7O/jarjJWN5cL+CKD0OV4kdHY0kqrVq+hmpoaJzdECKJLly7Rpk2bnF8h0h2/93u/SwcPHgwHMcuAnF/4hY+9gj/UeXJ4c4A3R0hX8/AmAYduXpupjC1PvpH2UsakAxCkvFRzQl6qOAFe5CEd+V5sJDmZ5AFquh9OgJSH8mfOnKaLFy/yqV49Pd3s3x4aGOjne0C4j76+XpbXxz/lR+f1Gcsg78ypE9TH5NazQUalx5DJ6zZvpmtMNxUDTFegvqmJqurq+O/SsjI+sJCoZYODXDYYkccQ01uXtmbjRpqbneUdJZSHLKTl5ObSEOPQ0NLCz51mA4+17GHZ3dHB97mYZQMrnId/i0pK7uqUCLCeAOsAenp66OSpkzQ2Nk4TkxPcZlgTgHnimBeODhvmtwbld0RRAYKQZytjy5N1z0sZG6cg5aWaE/JSxQkwyUO9uHnjOl1h99qNq5dRUXjUMUQRW07ks/sOU04nxsao/U4bH9RMTc9QCbt3JM8gbaQrY8uLZ1ddGZMOQJDyZBnAizykI9+LjXB9mzxATffDCXDLw6D71KlTtGHDBl/ybGVseW4d3AiCkxuZwAl5XjgdPXqUWlpaqYE9i3XybJwAL/ohHfmh30Vezs/93P/LQyyri3oQHQFzObHoSRWMiAAIl6Yu6oFAEbkhiy8UcgPREfDmGZ0XtzwoAnkIr4ZFTG7gIYS36FgMpC6+wnWgo9oZAhdEWtBxgs6Qh+ur8kycIEd8DhYLsNyQnLDgOFFONhshHREcTJxQVscJkSB0nPAlAvk6eYKTWEzlhs3vUp43v09r/W7jZPO7jZP0OxZRvvXWW1RcXEKrVq2k8vJK/vm+pqaWf77HFwF54BwsxGxoQEjMmrvplZVVPK+qqpqHTXSXKS0t4/OYK1i5CXbN6ekp3jFR7WUCBgk3r1xxfsUCgw9MAcORzfiPsYeaRCm7JjjKA2tddGm4xsT4OB/g3Lh0iQ9Kdj/0EJ14910uZ7Cvj7bu3s3/hQ+G2cAH5wAoiwHOnVu3aJrZO1FMsHMx97+EDbxaV62hZjZQampq5oMWHFjYjHniQ0MjrMFv0fodddm730VkGlVe2IYJQI643++9NgyhN7Ho0w3Y9PbtW3SF1fsbV6/Q6NAg1VZVUSm7n9IJWDeHwcwgG+Rjqts4D5IxzduqVPkd6amoy4hI5IVTPL97eXZJTvPzc4xT9ADWXpcRGtf7s8tfGxa53y9fvsSj2W3btt3ICTD5/X5rw+L5PRVt2LvvvkeNjU28H+HF77iWqQ0Lth+m97uNk83vidZlN4L2u+SUDQeDgAqkQSgMrALkcKjAuShjk4eKpcIkDw2fTR7KqPLwG+k2HXQh3kw6QF48TkHaCP4w20hfRhw6TsJGKoSN9GXsnPTy7JwWeDlvnMx+t3MSZd57711auXIVvfjii7Rly1Zat24drV69hm/uhU/07mPNmjX8QFhMdzregqEMIsW403EgbdfuPfTQgUf5An3Ky+c7do+xTnoiwMChobnZ+RWL8bExunH5Mv8Ks3bzZidVAAMW92FKAzA17fb169TC+AEY1GDKGIDBDR/AMJvhOiraWLmVa9c6v+yA3QfZ4GWMNV5F5RW0ZfsOOvDoY7R581Zm143cZuvXr+c7Gj/zzLP0/e+/zTpska9LEvC7qMte/R62YYBJB8iLxylIG3m/3/20YSIPDzk3RkdH+f5M58+eoeusM1jAHpiNdXX8JUM6Ag90hHSuKC6i2zeu04VzZ+nsmdP8y7Ab0k9B+93sp2DrssnvZk7x7vfYMlKeuS7H6mCvy+LZpYOZk982LKLD4GAkCEt8TrHy4t2fyEuV32066P2u1wHy4nEK0kbwldlGsWXQDmGQrOdk8rvIU9swwM5JL29pfteVWVo/TIXUIWi/57z88qdeQVhEdRMjNK4YgeHNhXtkBOA3RkXq6BHnI6+gID9m9Cg3IlJHWuJvEcZNHT0KHbL4KFqVh3SM5qCDKg8H5KmjPegAHaGfuwyA3zpO0A15Oh1gM2GjxDnZbIQ8EyfIw3V0nCBH1QFAupCnPsDNnPBbcNLbCLqpI2IbJ6FfDiujt5Gek9nv+K3jhPPl8e1vf5s+8IEPULGz03bQfpc2x5eaFStWUEVVFe/ET01P86lbOSxPtZEbGKTUs0EMpnZh0IEy7sYFsjHIkdPI+rq7+b8A/nYfprQyJrens5PGWacO18KABV9acM2K6mqqqKyka5cu8a8+dU1NXN/8wkJ+TZS9ceUKVdfW8i80ukZWYpRxGZucpJyCQlrJBksPs4FdXV09t52uLmNNDD69Y+CIr1pugLeoe979HrZhopzXunyvtGF4I9fWdpuusIHLJTaIKWS8sIv+ck8dSxTgV1FaSjNTk3Tr1k3+xnKOPaQL2D2J+pusNgzXlfJwn3ez9qOsrIynB1GXxXlmv5s4oVwifndD6Bd7v+NvHCJ0tZe6bL4/oYeeU+R+0umn4wR5OJCO/Fu3bvGgMfgSY+IE4HfYhrltHut3lNNxstkIeSZOkKfz+/Hjx2jlytXU2toSVQaAfCFv6XUZwG/oBju5YeMUz+86TkIHs346TjgfR2r8LjiFC/tD3FPAlKVf+7XP0qc+xZd6pRSXL1+ma6wThTDL+ewGw/QV9UaWwDSxDVu38r+xPgaDCQkMNDZs2cKjfl05d85J9QZ0frDeBZCNCjp6mOq1gg0gEA1NXhP5m3bs4F9qbl+7FlXW/bcbWMSPufw5rJEtr6qmHbt2xwxKTPjf//uvWYO/kh5++BEnJUQI/8BUrI72O3Tz+jVaYHUcU8fUB3ymobe/n2bmF2j1unXU0tpKzS2tMQ/xoHHixAlaXFxgnYxC1oHexl+soG2Q/4ZIDb73ve+xOt1JP/IjP+qkhEh3YGH/o48+Sjt27HRSQqQKyW0VQ4RIMfCgx1us5QCmTh1++hkxDSvOFLOF+Xm6dOYMP9wDGABTvC6ydL8DGMA98EAnBAMYAF9mLp4+HXVN5CMNAxjAXVYdwGCuML46jU/PUEFZOe3cu4+eOPxkwgMYAG+ZQ4RYKhAs4jy7R04eO0qXzp6hEjZQx9SxTB/AAJhiVlNRTreuXqETjN9Zdn/29/U5uckB1mGsWrWavvzlv+dtggT2PAkRIoQZ4SB/+RAOYkKECBCI7b9v/wP00KMHqaKunmZYZ6BvYIB/uchkoFMzwgaHQ2wQlF1QSGs3bqLnXniRh4cNESKVQOjx69ev0ekTx+nYe+/Q7MQ4rWhqohJn+ui9gsKCAmpuaKCc+Xk6ffwonTx+jH/txdfmZOCllz7AA3Bg/Ro6ZbJjNjkZu34tRIgQIdIB2XizqltQg/mxyNPNh0c6DhXo6CBdvxBojue53/BImOTZdDDJkzqkgpNYWJS5nFJhIxMnwCTPpkOqbeTX74iC9uTTz9DO3Xsov7SMxtggBnuo6K6V7sC0sb7BQVrIzqba5hY6+MQh2rlrF88DHy9+AmA/3ULCe8HvKkJOAkFx6uzooHNnz9Dx997le76sam7m+77Y0NjaevfAejCZFhTc8jEV1AsQ6jwesIHuaiZ7dKCf8X6HTp86yaOvSbuoNpLw6/ePfOQHo+QhdCywnH6XsMlLVV0GgpSXLBvdC/e7RLpzQh7S/XBKhY1MnACTvKBtFDQn6ffsCdZBQUhAFZh+gjydMgiHhkMFog6gDEKfqcA1kKcSgJKQhbBsKnBtlJFTYdzA+cjTGRHpOnk2TkLeZIw8GyekIU8XbcFkIxsnu430nOBE5OkqgIkT5KNMuvo9PqdYv0c4LZ/fdZxWr11Hzzz3PLWuWUez7BIIQYzF8JkA2I1PiWM+zMovpD379tNjjz9BFU6n0W9dRvhInV2X5vfk12VMg0NeIn6XsNnIxEnIC9swQHJCtK6zZ87wrxHXLl6giuJiqq+pibtOBAMLbB4rj+JSscnlFmcQHgQ279x5Vz6PVugBKJsoapn8enbcuXGdThw9wgdz2JMpSL8LP6WmLifid1We7X5PbV1OxrMrbMOEvMxrw9ChlqGZVZg4pdLvqarLNhsly+/sGZBtfBAgXTfXz1QGCngvI/Niy0COrgyAKAemPKQjXweRp9NPXEuxoZWT1E81PIB0HCpsnExlAKTrOUl5iXMC4l/Liw+D9buNUzr73cQJi+p3795N+x96mKrqGwhNAhbuItZ6OgIN3fDoKI2Mj1NOUTGtXr+BnnrmWWpZsdI5Q0DaQQdhB73fRTknIQr+/W7L0/vdpJ/Z7xH9EvM7YLNROtdlAOk4VNg4mcoASNdzkvL0nG7cuEFnTp2kE0feo4XpKT7FqqioyDnDDgxWsN5LHp23b/P0zrY2/m+j60uIah/3FxYc2AzW/dsdJl3Kx0a2ADasLXDCmeNcCfl3gaK/+xwbECq6CSGjma7nmU0wpe7c2dM8otX169djjtuML6KdqelIa2M2gG3VA+mI9Kam4xrIQ1lsXIsOhIS/umz3O/I01ZKn666VqroM8SIvVm8bp3g2suWpdRMwlQnbsAiQjkOFjZOpDIB0U12OHNHwU5cBcS2dPH0Zm43MZWRebBlwEWVi89LJ71mTk9OLQqHok1AYnRmdADmaQ54KjEh18hDDGpFPdNGaTPLsOpjlmXQIOUVwr9oIbxxeeeWT9NnP/pqTmn6c7ty+RWfPnqVpDBKYaMzlT5d9LDB1bGJqinILi6iOdRa379jpClUdjJ/+5E/+mNazgdGBAwecFIGl+P1erMshJ6HDX/zZn9AMG/CvYR19NaRnPBx68UV6/etfd37F4uAzz9Dlc+eop6ODstj1Fx3OgPqV5ObVq2xAv6uywaUAAN82SURBVN75JXS7zO5jXAMDGABfY/D3Y88+S8ffeYcH0tj36KN06sgRqqyq4vszIb+0ooLGhofp8eee49eX5bwA9rzNBhN3urtp4+atPAypCuFDPOxj/cQsb/C76Eno/IQDPkIEMwwka2traNMmDNwQxez+qctBy3Nzckcny2Qb3Yt+N+nwB3/w+/TAAw/yl5VBcAr9HkE8TmGI5RD3FPB145OffDlqEJOOwA2N6TG3b92kmYlxKmCds7KSkpibO1XANIMxvFnNzeNTbjB4aXK9aQ4Sf/qnf8I3Ew1DLIdIBJhCduf2bTaQmeCL3bHLfaJ44oUX6I1vfMP5FYs1GzfygdHI0BCNsEHFhGuqp/p1pL+nh2rq651f7B5mD95uNvjBIKbrzh1+vhwwHX7pJXrta1/jf7euXk3DTP5W1sF57/XXeZoEBjHspqe3//Ef+cM6UYyOj/NgIXmFhVRcVs7DMONB7wVqp8ALMCUEX3TwReb551/gIdNDBIMwxHLmAYOYhx56iHbt2u2khEgVcl5++ZOp31AjRIgkAQ/X1157jZ599lknJT2BwUpDQwM1NjXxLx8TU5M0OjLC81L5VQYdJ94hmpmh/JJS2rRlKz340MN8w7tk4fTpUzwKUmvrCiclRAgzGpuaqb6hkU9vxBQmhFBH9zuRrzIId46BCfZA0gGbuWJw0rpmDZVVVPC/JTD4KCwquntgoIPpZ/I39lDC+avZgPzoW2/x35hyNsbuY6TdvHKFy8E6mYHeXl4GAxb3QGnNpk3UfvMmFZeUcPnxgHn3iBA4v0hUVlVNex94kHbs3Em1tXU8mIiXA/eg36Ouro6HlB8aGqZLly7S9u07HA1DLBXuzS5DZAaOHz9OLaxtaGxsdFJCpArZeCOMQwf5iUeFnzJAkPJsZYKWl+6cgiwD3Is2SldO5eXl9MiBR2n3vv1UUllFk7NzfDH9tGbBYdDAl5f+4WFazM1jnbi1fL+XjaxTpcKvjUxlMIAzZBnL2HSw5aWr3wFbmaDlpTuneGUwFeuJQ4d5p72wrJwmZmb5faJbmOtG++3bVF5ZSXWsc+H+iiKBaGLIwxoZ7M/kBqZ3uQ9sYuv+jalkAL7CANjzCdPCAMgrZ4OiWiYb+k+ystcvXqQKRxc+oHHOw8az2ITWBrycwf5MY5OT/GXDtl276elnn+MvQqSNdEi23zF9ButuoJ+pjB/9/JQBgpZnKuNHnq1M0PJSZSNbmaDlpTsnQ3JceSbcizZKBqdsrPDXPQgQkQBTTHQRH3A+yqkXxbkoo4tmIOWpCkGGSQe8JRbyYqMZSB1Uefht5jTH5ek+25s4CXlBcjLLM3GyyROcZnxwmrFySne/mziZbbTcfrdzqq2t51HMNm3bTrlFxfytMxbXY9f+oIG3uf2DgzTDZFfU1NJDbBC1a/cePh9V9budUzwb6esyys3NxZYRNkK9DMrvmVGXVXl2Tvd3G7Zi5Sp68QMf5AvoMfgeGhujEXafqNeTwMDhxuXLfCBTVl7upEaAKWHIw5eQa+xcP8CARkL+jQENFu9DtkwDl+uXLlE5G5DJUMw4D3DLUIEvpX1DwzSfnUMta9bywcuGjRud3FT6PbYu46uM/DqGct79HnxdVu93O6d48rxxSuR+13My2UjPCTDJu1/bsKD8buIUTx6ibnrnFPbDALs8OyceYhl/qIBDEPZMd0EZXk0FzkUeyqqAgiZ5kIU8FXi7g3QdAeiMcipp/DZxghzIg1wVSLdxgv4q/HCy28jEScjTheIDJ+TpOMmweoo4roNJns3vIrRfMH63cbL53cQp3f2eaF3esnUrPfHkU9S8ajUt5ORSb/8AX2wfBKDD4PAIDY9P8L1rtu/azaOOYWqI3e8T7NCFdDT7PeKn2LqMdUu6MtAPZYLyu40T0lFOhY1TMv3uRrrXZbuNzH5Huu5+Byfk6TiZ/L6VDfb37H+QKusaWOc+m+9jxNd0aQBdMEDBwnwV4IK8TudrSpDo7erigyg3uC4XLvAF//GANS/YKBcvGzB1bMfuvbST3bP5+fnOGQKp8rupLmMAM8M6IcJP3vwOeV78buNku98hK8g2zMTJdr+bOEE+0sM2zF9djud35Kmw2ygxvyP/ypUr9M4779DNmzfo+PFjdOzYsRjO8fyuq0ep8rvKyY2g63LQfpeccj7+8ZdfwdziXGWTLqwvxrQPRDzRRS1AVAK1MZVAGTVqAchCDsq4Fy/jb0QZyMvLNcxxhg75TJ6qg5CXlxctD+dDPx0n5OFc5CXKCefjWkKenpMqLz4nu41iOQn9wAcyoyHOs/spL0pehFOuR78jGkVujI0kvPgdMHMCTH5f5GsqsJD05MkT1NTU5OQIv+PfN9/8nrImJjl+Vznh7yDqMs7BepGKyirqHejnDQI6/jnsnNg6nRjwNhdTUYj5r2X1Gjrw6KNUywYvEqAhrq2vy7CBt7osQiOijNtGwKlTp/jAafXq1U5KBLCFye+6ugybIk/4yUtdDtswIKKD3u9mTnYbJbsNA3CNVWywX1VTzada4QsjdpeHDL/3SToAD3t8XZqanaOCkhL+smEXG8AgGljQfg+iLn/rW9+iJ598iqerfsd1bH7HuXZOpmdXLCechny1HiEt6DbMzAkw3e+muhx9v7vXxJg4ARF593cbhssi3+R3M6eltWH4+7vf/Q598Yt/R++99z5dvnyZP6cPHHg0Sv8IJ109Ii5PtZGJE2CykYQXvwNuTrFYWl2ORnKeXWF0shAZh7/+67+iH/zBH6KvfOUfeEe4sLCIj+5R4devX58R0cm84MqVy3T10iWaYgORPNaYIIqZ2kiZMMEa1XF25CKqExsU4U1ulTNvf7kQRicLkQxcvHCBrrF7ZZoNZArYA7S0uDjh+yRdgI1wJ6enKb+omFawtm3b9h2azkB64ed+7mfpF3/xl1g7XOikhFgKwuhkmYOzZ8/Q5z//efrGN77O79P/+l9/kT7ykR90ckOkAtHDoRAhMgA/+qM/xj/dYiDzne98h9588w2+OduXvvR3zhn3FjZs2EiHn36GVq5bR1n5BWKBryHakgTe5g6NjNDE7BwVllfQrr37+ML95R7AAM3NLVRZWen8ChEiGGzesoWefOZZal21mq8f6R8ainufpAswlaKnv59vhFvT1EwHnzjE16ml+wAmRIj7GYjK9/TTT1M1e64+/vgT4QBmGRAOYkJkJN5++23+7xbWcamvb6B9+/ZTOeus36vAW859+x/gi/Ar6uppdnGRL86fUuae4rMs3uYOswMDnnUbN9Gzzz1PK1nHLl2wf/9+WrlylfMrRIjggClXDz78CL9PyqpraHp+ga+XwfqSdMTMzAyPsoZoa4i6tofd44jChmhsIUKESH9gKiUGL//23/5bJyVEKpHzsY99nO8To86TQ1QAHEhX87DYBp0l3bw2Gf3AuzzMb4tOT0SeqgMgFy9502GBXS9W3tI4BWsjwFQGMOWlMydWlMnTlwFM8jA/srW1lf9bjc4K68yvXr2Kv+F//fXXo9bEyDJ6HZLh9+TVZeyev2btWsrNy6cBZx0AOkJ4Y4sBDSKaYcPKajawe+Chh9ngZdVduenid8xvxWEqA5jygvVT2IbZ5QVvI8BUBjDledUB98m69RsoNz+PhkZGaWpykrcReew+0dk71YCOo2NjNA6diopp7YaN9Ohjj1FpqQi1bLID0tW85W7Dvv3tb9Hhw4f59XW29eP3+7kuu9fEyDImHYLmxIoyedHpicjz43e9DpnndzzLHnnkAH+ZCpjkpTMnVpTJ05cBTPLSwu8DA0OLWKxdVBQ9nxUr/2dnZ6igoJA5KfqT9tiY+ERfWlrC/5WYm5tnnapJ3qFS58eis4V1C3hT5p6nDCXHxxGVIIvJKxaJDkRItil2/XymR/SCH0QaWViY5w8rN3GQwqf57Owclidi8UvYOUGHRSopKY4yViKcsCZDXXRkspGNEyItzM/H2khwmuQ8VU7owOLAgih1URTsgIVtKidUMr5QXOt3Ec4OXNWpDPH9nsfKFTipAiZONr/bOdn9jnK//Mu/FLUmJlV+T2VdBs/x8XG+a3ZX+x1amJkmdjtTATpvGzbxgAde/I5oIwh7nMy6/Nprr9ITTxyiq1evsQFoC+frRny/o3NaFGUje10O2zBA2uh+bcMg++yZ09Te1kazkxNUxNKxrmy5gChqiDiYx2xe29DA16mVlpbe9TvsBvu5kc5tGNbEfOITL7P0PE912eb3eHV5udowQNoInb5ktGHuNTFhGyYQRBs2yzrKJzsHaGZugcuDDuizQKYb8B845ecXRHFCJxu6Z2Vlx9gB10fd08lDewT7ir5RhBNsNMOe27CRWlekPNjc7ScANt/RWEGN1dFTstOpH5bKNiwbIyBcWAXSzHnz/FABg6AMDhUyHee4gZ8meTYdUAn18qQO3uRJHRRxLnmJcwL8cJJ5KiBfVGqdPKEf/lWB81FOo55RB6SjnE6emRP0gz/MfFVAJ5s8E6d09jt+mjmZdfDHCW9icvjbugOPPU7VjU20Yes2ev7Fl/gGeDpOgE0H736XdcXM143f+Z3f5g/oc+fO0OioeLi89dZb/F/A5vdIXY7NM3GSOujz9Hqnv9/jc1LEueQlzgnww0nmqYD85WrD8ADeu28/v0+KnQ1lEbo41VPM8KUUU0DHWWc7t6iE9jzwIB149CDrPJTy/HTwO3768bu/umz2u4kTYNPB7Xc3bJxEGTNfFdBpaXU5Ns/ESeqgz9Prnf5+j89JEeeSlzgnwM3p9vAY/eWZW/TFi+3095c76avX++nLV7r4b/fxlWs9PA/nuNO/dAllenm+Ox0H5Jjl9fJyX7zYEZUudTDL64vRAcdfnrtDfeOx4cJR51DHbDZXAZO5beSGrS6nk99zPvnJT72CUZF7NAUgpBrSdNM+ZLo6QsSbCYxSdWHhkIfzcS23PPwdkaeWETroQtPhXCEvOnQezse5Oh3snIRu6kjexknIi+UEyOvE2sjMSdoIo053Hs4XnGJD3dnlQZbQzw2cB046v+M3rqG3kZ4TzoPu0C9Wnp6TKCPlJc4J5+r8jvPACf++8cYbUdPJhJ9MnILzO/4OkhPOx7k6Hdzy8DYEIZnrnR3JTZwgy+R3oYPJRpKTri7rQybq/I5QlOiwFRQU8KmA5eVl9OlPf4o+/OEf4PlCnqkuI2yu2e8mTkjzxsnsd8lpOf1u5+TP77q6DMjr6P1u8lP6tmG4T1YhmmFRIQ2NjvK3kzNsYJHL9FU5Bgk80BHifIJdq6C4hNZv2szX7WAxsBuSU1B+t9Vlk9/xt7xOon7CdLJnnnmG39dmv+vuJ7vfdZxwnq0u6/wO4FxzXU68DQOEDn7qcmJtmHs6mfCTV05mv0tOQfgdEDaP5YTzca5OBzsnf37X1WVAXgc6fvNSO3XPLFJdZQWVFhfdPUqKog9TusgrtpYx5xXHpEfyTOmx1yoqKKSZ2Sl6bkMrlRZGfx0Bd/g3HfphQfndVpel38MQyyHuKeCT870WYvlewe/+7u/Qv/t3/xd973tv0K5du6miooI+//k/pJ/+6X/tnBEiRGqAgcXZM2fozu1bNDMxTgXswV/ufBEJEoiONjE1RbmFRdTY1EQ7WL1Xp1mkCnMLi3SpZ4h3DILEr3/6E/QzH32ZD2JSgULW2VlZUUI5AfNIF4QhloMH6v4r3zlJeSWlrP5Ed7wzCRPTM5Qzy/o4T+5yUkKEg5gQ9xTCQUyIECESxfDwMJ0+eYKGBvppjg02SoqLqTiAQQamqmF/pqycXCouK6Odu/fwaZ7LiVOd/fSl8x1UVBD9VWupOP71L9KuZz9IObmp6Rxmzy/Qfzi4hfKVN8f3CsJBTPDoGB6nz7x5gVrqa52UzET30Cg90VpBH9660kkJcW+2AiFChEhLYJB59epV51eIEMsLfA187IlDPLRxQVk5f9OJkMdY0OoHWPOAfZzG2SAmv6SUtu7aTc889/yyD2CAr1y4Q2OL2TS2EOyx8sDTNJlVoM0L+hicWaTO0Um+6W+IEIniQu9wzNSnTATape314R5rbmTDKIg+oQKf2xFNQLcIB5FfdI08zkUZ3aIeNO4oo5MndMA2X9GIyDProFtYZJIHOX44IR36q7DZKD6nWBvBD344Ic/GySTPKyebjUycTH63ccK5yPPndx0nf35HGZ2NkGaSZ+MkbKTTITV+x7lIT0Vdln6XOgwMDNDly5fp9ddfY4OYK0Z5KBOc38M2DMC5SE+F3zO1DWtuaaWnnnmO1m7eQjmFRTQ8Pk4jo6NaGSZg3cvAyAhRXj61rllHjx86TGvXrnNyI4jHKRlt2Oj0LHWMTVFtWTGVFhYEetTWN1BpkT4v6GOB2WhnQxnNp6Auq22YRMRPennIC9sw+/3uhxPS/bZhJzuHYiJ2ZRpmGc+C7EVqLCkw2sir35NXl4PzO8ro/I405GUjvBpClamAQIRw1UXgQAg1lFMJ4FyU0SmD8IcoozMi0hGyTQWUFPJiDYJFmUJetA74jXTkq4AcwSnWICZO0Bfp0F8FDAh5qpMjnBA2Lhp2G+k5QSUhL9ZGgtOEgdMkz1MoWTlBL2Ejs99V+PO7mZPwO8Ilx/rdzEnY3F6Xvfp9XGsjwWlcw8nmd3NdNvs9Xl1Ovt/912Xh9ytXrtC7775DZ86cofPnz1FHRydt2rSF66gCDRnKBO/3sA1Dus7v92sbZvL7hg0b6Iknn6KG1hU0n50toolpbOAGpo4h2hk2oK1iHXpEQdu5axerz+g4mP0e6ydbXfbrd9GGXewZptzc/JgFtZmGKVZf15cXevK7/7qcTs+uxOsy7mWUwb2twszJZqPMbsP6hkfo1tA4lShhkTMNo5PTtKm2nOZm9O1HKutyvDYsWL/b+2HZiFagRiUARCSI2CgCAOKZ6z7N4VxRJlaejIygAjqjjBqVAJDylKAEHDLKh6oefpvkQY4oE8sJuiFPB2Ejs346IB12UmG3EaKXIHqEk+ACyujsB07g6oeTGu0BSJXfARMnyAMnvd9NOkg/6ThJ/bzZCOk6v+uickgg3cQJeTpO8fyu02EpftfXZbPfhQ7e6jLqVltbG73zzvf59DG8BduzZy/9i3/xL6murk5rIyaRc9ItPDZxgrqCk87vYRsmIWxk1k8HpN+PbRgi6CH08b6HHqGSqmq+m37f4BAPkewGBt1Dw8M0wjoA+aVltJPV78NsAFRTU8PlibrsnOyCqf2AusJPsYX8+h3puN6Z7iEqzPBO3Dzr0OQsztPamnLOSYXN78IO3tswXX0FUEaXZ/O7yU82v/upy4C5jL/nMfL0nJLThil9WQ5hI+9tWNsIu29ZuRwdgQzCJOu072qqNvpd2kFXl/363U8bJuQF9+xCus7vUoesqamZRQjVCcYoSPeQkKNuXWfDVAYjLBwmebi8Fx2EPJMOQcvT7zIKpION8PlQ5+T7kRPeZn3qU5+MWdhv188bJ8BmIxOndLFRqvz+uc/9Fo9C9vjjjzupApnMyY+f7PJMOgQtL2zDAD+cLp4/L6ZATk5QPnvYYqNMbFg5PTNDeYXFtGL1Ktq+Y2eM/qniFE8eQvd84tsnqayinOufqRibnKYymqX/97GtKfH7ctVldWF/OnCyyzPpkB5t2F+dukEn+ieotjzx6INrK4upNF/4cGpuni4P2L/GSuysL6PTPaPOr+CAaZTtPX306ad2UpUTWjl963LwfteVAZw8Ec9bB1NBXEh3McBUBtewyfOqg5BnKhO0vPS2ka6SASGnCOz6eSsD+OFk1yF9bQRZXm00OjrKj4cffthJiSBTOQkdvPvJLs9UJmh54f0O+OG0eetWeuqZZ6l1zVpazM2j85cv0wx7uNc2NdPBQ4do1+49Wv3TpQ1rHx6n8fmFjB7AAOPT07S7qcqXjfz4XdjVLM+kQ9iGCQQvz7uNMHnqfO8wX7OVKLbWltLG6mJaVV7Ij+bS6J3ibcD5ycDUzCzVFudRTXEBt4/NRjoIu3r3u7+6HLzfTUCeOTdEiBAhfKK7u5tPq8HGWyFCZDqwt8sDDz5EDz5ygI6cPEVbd+zkUc0qK9M/UtD5HkRmyvz7cHZ2hraEkZlCeEDv2CQNz8x72hvmpXV1dKJ7hL5ytZcfr98ecHKIyvNz+QHgq0uFE64cfwO3RsRaEPzGUZKXczevkp2LwRHSNteU8LREMTo5RXuaapxfIdzIxucYfMpRgTTk6YB0W54febYy6S5PB6QHLc9WJmh5OiA9aHm2MkHL0wHp6S7PViZoeTog3bu8Be0iUSCeDn7081MmaHm2MukuTwekBy3PViZoeTogfSny6uvrqY4dza0r+O94ZeLJU+G3jC3veHs/lRcl5w2xig1Vxc5fwWJmbp6Kc7KopaI4KTbyI89WJmh5OiA9aHm2MukuT4dz3YPGtRYmFORmU/d47OJ4oCgvmx5sruB/P7+2lh5uFoPqD26o5/9+yPkXv/FVpiAnm55YWUX4yLChuoQebqnkac2l3iKlYbH+9npxXXAN0kbxygQtTwek+5WXjRX+uugDiKyCPMyJUzE9Pc0PFYgOgTK68Gq4BvJURaGIkBdbaXBtlNFFM8D5Onn4jXSdPDunGa6HaiwpT28jwUkXFSMeJ104RZON8NskDxEpUEYXvcQfJ2mj2AoldEi+3xPhpLOR4BSM3yUnnY0kp+D8bq7LZhulpi4DQged382ckAb/qZyS53dbXdbJM3EKti7bbITzdfIkJ508O6fg/O6/LutthN8meYn43RunsA0DwKlvZIzaRyapOMFF/a1lhZTrmgqCcK7u3/GwunLpG4XqgDfR29CJYxyFjRKvy0B8vydel5Pld0SIGhwcpLGxMf4CCH/79bvgtLxtmEmeH07SRl79fry9j4oKggutjMHNvqZyqinK419r9jVVUD4bXLePxkbjwlecgalZXiYvO5smZufpYv84tbLBDf5NFCK0MtGKSrGmR9g1dc8uU/8b5XR+F34Krg0T8sx+z0ZB0wWnp6e0F0RBHCpwLsrojIg0HWnojMXYuvCCQp7eiNBZR1o6RccJcnQ6AFIHRRw/F2XMnMw2QjkVERuZOWFhlBvgBN108iQnnY3MnMw2isfJq9/NnMx+t3FCuuAUayPkmRpNEychT98gCB1iOSENeWqjKTh597vpBk7E73o/pdrvsZwgb35+zuh3GycvfrdzMvs9Pqdg2jDZfug4yXvDVJd1nKSNwjYsbMMkhDzUIyfBAdqns52DlM8GMImOQ/Y0lvM30RJYH+D+ncME1bIOHIApMXXFYnAkp8egowZsqC6mlrKCu9NqJORvd1oiQBCFXY1VaeV35Knw43fJCeHov/a1r9Jbb71JR48epS9+8e9oYGCQ5dn9rsLGSdgoNW1YPBsluw0bn5mj28NTVOIshE8Uc8wfGLybAN0OtlbRd2/20+2RSX6PvH4rMuXMhHN9Y3SSDXzwhebQymonNT5kaOV85z5MRl3W+V3IW/42TOhg9ns2Qp/q5q3n5+dRARvB6hb2FBYW8kMFwqqhjE4ePunhWtnZ0fKwmAdldPJwbZTRfQ4UZSAvelkPfiMd+SrACXkmTiijLi6CviYdwBNl1HByWKQk5anAtZEOXVRAnokTyiBPRV5erqNf7KJNMydhI7vfo3UAIE/nJ5vfzZzMfrdzEr5V5SGsoMxTYavLUgd1IRo4mW0kOKl+ByeTjWx+FzoUcA5u2P3upy7b/K6vy4AfTtAPYRNj/ST44lDhx+92TunThtn8buKEfBWQgzxvfg/bMAnI0/nJ5nczp/RowyQn1UbgdGVoggo18vwCJj24oor//eK6uqi/gcOrxLz9QytraGV5Ee+wba8r5WsHyvJzaAf7G2leFkAjtHLWwjytqS6L43c/bZiol17qcrLaMHTWXn31u/SNb3ydbwr82muvsk7cHC+j8zvSwUn37EKezkapbMNkngrIQXqy27AbAyOUxZ5BXkMr4wvL7obIYBtfXdxA9DEMXDAe+O6NPnqM3QM3h2P3WVGBKWSba0r5uplxZ7CfCGRoZQlTXQ66DZN+19kc6cJP6r0RfBsGeSZOXAcsWCzQfGrGTVhcXKy9YFFRIT9UgBDK6EjjGriWqiSAMlBUBTpBKIN/VUh56g2M3yZOUp7eiAVcDxXQ1yQPPFFGdSRgshGuLWxk5qTaCJxQRlcxbDZaCqf09bvgpPrdzslPXRbydJyQZuIEWTpOmeL3oOoy5EE3E6f09XuwdRnXNnMK2zDA5velcFpOv9s4BV2XcX0dp1nW+b82NEllHiIzxcPM/CIblIivKHhris4cUOj6WiNxqX+cT6n5/p1BWsEGLcWsQ4JpN+jEIT1RTEzP8jfj5YX5CfndX11O3O+yLgft94ceepAOHnyMd87wlvnHf/wnqKWl2eh3E6d0acMgz3a/m+oyyqnw4/czXUPa8+PhW9f7qHdy9u5gW4ZalnjtVj+d7Bnhf3eOz9BNdo9JnGIDIPe/wA2WP89GPNVsMCRlfvVqj5NrB0IrL7CB7PqayJfLVPl9KXVZ7yfvbZiUp+N01+/O7xAhMhqYQ/zWW2/Rd7/7XWpvv0Pf+ta36MKF805uiBAhQtxf6Bie8BxaGVNw3J02RFRCB8wN7JuBjtj7nUN0oW+MivNy6NpgbBAPrAcAZll5LGbunpihXPYvyu7yMJ1sfGqK9jQnPv0mk/HQQw+xgUsLrVq5kvbs2e2khvAKTAk71zPMBvCxHeNEcKxz+G50slvD0VOtptlA/hvX+pxfYu2LhPz7q660I0zWHBuMnO0duyuTiUgI7tDKIfQIBzEh7gngU/zf//2X6L//9/9GJ06coM9+9lf4HOMQIUKEuB9xrmeI8j2GVr7KBiP7GivuTqVZVVlEM8rahWOdI/TU6hp6+84Qff1qDz3YVEGv3up3cs0oZ4OjHry5Zp3CDzhRnBLB7MwMbakTkZnuVWBPrYsXLlD77du0d8cOeurxx+nEkffpzOnTNDAQf71FiGj4Ca2cjghDK8dHNj5bqguUASykQp66cAfAwhzdok6cizK6BVs2eZClW+wjy+jkQWedPKmDjZNeXmo42eSZOAFI924jcIpdEOWXE+R55WSTh3S8aZgFb9cxzWw3MTXN/1XzcD7y1PSSsnI6+Pghyi8o5AvOWleupAcfPsDzpDyE6VTLCXkzMek416SDKm/OxTvIugwgfbn97qcuI8Qy0lPFKWzDUsfJJi8T2rBgbZS+dflEx4DnN9G3R6YoJ0ts2ofj8sA4n/vvxmu3B6h3QizcnZpf5GtdeicEHzmNBuUkMP+/b3KGivJyuMyVFYVR021sEKGViYdWBvz7yXtdtssLxu/4feP6dTpx7CgdffcdGh8eokOPPkqPPvQQLUxP0/H33qHjbDBz+dKlmJD1Jr8HbSM7J708qcNytWEXeodINwUp04AF+dsbyp1fAsH7PX3bsEQ45fzsz/7cKzhRdTiiC6AziPlw6lxD3EwojLmb7jlxUBx5SFLn0SHyAN6W5+bmRcnDtcfHJzgJdfEOrgEdcI1YeVPMwdNcb7c8EIMOOk6oECiH89V5eTZOk5OQJ+b0uSEjKpg5zcVwQuhFhFLEXD+vnPCvKs/GaXJykudDnptTxEY6Tna/I1KFqgN8B056P+n9Dh2u9QzQsfZ+Ps2gbXj87nFzYISu9w3TnZEJ6hibisq7xhon5HeMTfN8mX57aIxmCkvp+q026m6/TU//5P9JxU2tPO9G/zCX1z46yQ9ZBse13kEur3M8Wt6twTF+rbbhWB0gCzKR3j46QT3s36ayYoKFTX5fSl1GRBF1UaUfv9vrst7vtrqs8zv0PXfuLF28eIn/W1tbd3f+LGCry9JGXjhF6nLYhtk4BdmG2e/39G/DYCN1rr6dU7Tf33zzTTp48CA/z8TJ5vfJSdjIW12WNsrJyWWHnpPb7yNTM/Sl821UV1nB0nhSwrg8MHH3uMIOHZAnofv7lmuh89TcAg1Pz/HBjJTpLmPD0PgkbastoT0ttfx3KtowCel3L3U54vdsJs9el7u6uujalct0/swZGh0coMa6OioriWyCWFRYSNWVlTTQ30d37rSxAZ3o5JWWlvHyOr8Dmd2GTRo5eWnDvnjuNs1l51GBcm4mAaGVZ5mdPrJtFeW6bCv9vpQ2TCKxurw8bRhg87vkxCXhrakKKAFZ+FeFGqZNQpbR5UeuEZ0nxYO8CuTJQ4VOZzf0nMzypM6xeTI9Vh7KmGwE6OwAnvFtpEOWoUzkUCHOj1QIFXqb2/2u18FcxuR34LUbvfSd20P0zWs9Ucc/3uyn19uH6Tu3BmLyXm0b4nnfut4blY7FeN/vnaLK/YdoyzMfppGmDXfzIAdl/vFmX1QZHCZ532a6mXSQ8nDOV6900dcuttGCi5/NT/o8vd+FPYP0uzhZf294r8u6MiMjI/Qnf/In9Kd/+sf03nvv0ec+9z+oo6PdyZUIvi575aS7PiDL6PXT12Up/n5pw2x2tXNKjzZMh8Q4LfK9OyoqKlwPfP+cdNcCTH7C6Tq+uutf7B2hfNbJAadMBjo+7shM8AH/v/beCLYu62wdgd3vOki/Dw8P0/lz5+jk0SN04cxpKsnPo+aGBspTOooS9bW1VMsGMzcuX6Lj77/Hp5j19fVprw9ITnr9InXZDanz8rdh4vzYPJFgujfcPhShlSc9h1ZON4xNTtO66mIqUAbD8fyuq8smvwukZxsmINL19UikZY2PTy7qRsQQijcXGIG5R0YA3sZDGXVkBELIw0hLjYIAxTFS1MnDZyQkqaM9yMMmN2KUH10GsiBTHe0BGNGZOInRXvToEYjPKSdqBAvYbGTjZLKRndMcP98LJyEPI2K9Dl79Lj/3BeF3NDQf+9YJaqir8RwCMZ0wOD5JrQVEP3NgC/8dfF0O3u/JrMuY2/0rv/IZHiYUHb6HH36Yfv3Xf4Oampp4PhCPk9lGsZwA2/0etmGp8btEquuyV79jYL137z7+dq+8PDJNIxG/4y0igoeMj4/RP/knP8zzTJzi+917Xfbi9/955ApdHp2l6tLYSE+ZAoRW7ukfoE8/tZMqnA7pctRlkzxbXdb5HW+b29vaqKuzg25ev0blJSVUUyVCVCeKoZERGhgaopaVq6i5dQU1NbdQZWX0eqFE6rJXG2VSG3a2a4D+4PhNaqnN7GAQHf2D9KNbW+jAquj1Y/ATYLaRd7/r6nJ8vye3DQPsfhecsmZm5ljRECFSi7OdA/T5kzepqSazG5r2/iH60S3N9OjqxBeq3uvANLJPf/rTdOrkCfq93/9DOnz4sJMTIkRygAcd3k7jLffsbOxGa3gQb9q0mf76r/+Kdu7cSVVV1XwQc+PGdf6gbmxs5APts2fPOCWigQdoT08vtbXdpscff4JWrVrl5KQfpufm6eXvnKIyxs9LZLJ0w+jEFJXSLH300A4nJXPR2dFO7Xfu0M1r11gPcI7qamuX9PKut7+fJlm9XbN+PbWuEIMZdfBxP2KGdWr/6OhVOtk3RrVlkal5ycTkYD/lFRVTbmGRkxIMJsYm6KNPbKXaEn8R1u4XhIOYEMuCvzp5g473T1BNihqaZAAx3Nt7++hTh7ZTXWmwDVimAnNU8cD+zd/4DR7q+uMvf4paWluplj20Q4RIBvCGGxEJ8RUQg5mpqdiN5wpZB+MDH/gAf3P3Z3/2p/RTP/XPaGhoiI4ceZ/Gx8d5BKif/ul/TX/7t3/jlIgGBkF5efm0detWWr16tZOanrjRP0q/9s4lWlmf2fdc1+AwPb+mlp7b2OKkZB4GWb1qb2+nW2ywPDzQz6eFyfWBSwWm2vUNDlJ+URGtXreemtlApr6hwcm9P4EZHn/w7iXKycuhghQN6k698Y/UuHotNaxa56QsHfgCUV2YSz+yc42TEsKEcBATIuVADPf/8t1TlF1cSoWaz5GZArwJm58co//yzB4n5f5GZ0cHH7jcun6N5thgBm8aJ9mDtmXFSj79oZUNZkpcC1dDhAgCGIgcPXqU9u3bR2vWrI2ZqgBgOkKVM3Xn9OnTtG3btqjpDp///B/yQQy+5uiANTDu6WfpjK9daKPvtA1RY2Xie7GkI9q6e+k/HdxCK6vEhpqZBCzix5eXjjttdOPqFb5Av6oiOWGiR8fGqH94mOobm2jl6jX8pVFZWWb7finoHJmk3JwsytG0A8nAn//JF2jnrr20Y9cuJyUYlOTnxqyHCRGLrNHRcb4mRp3TiDdaeGsl5sNFf/bEGwDMX1N35cQcNTEfLoeVi+6cYt7dwkKsPDnvDvVNjY4g5eEzqTq/DumYY6fOr5PyMIfPDydVnh9OACKl2DiBj/r5V3AS80t1NtJxAh/w8mKjCCdvfgcnwJvfYzl1sUbmF984S60Ndfx3pqJneJQONJXTD20XU0sSqctmv3ury9LvOj/Fr8uxfo9XlwGT3/EGvLuri27fvEHD/X38gV1cFPky1TcwwAd8q9ev5w/Ympo6rpuJUyrqctiGCdwLbdhv/MZ/ox/7sR+nlStX8jybjYJqw4B087vk9Ml/PEETWXlUonDMJCBs/dToCP3KC/tYhzRiP7ffVRstpQ0Lqi6jTDsbuHR1dtLt69cpLyebaquro/ycLOCrzDgbPK1au44a2ICmuQUvjaK/+oRtmECQfv+f//PztGvXbtqxY4fvNsyLje6HNkzCzkn4PRth9RCqTAUMhTyEBFaBz/f4BA+F3YCCKIMpJSqQhjwopQKyEBpOBUijDAiqwJsOoYOT4AC/kY58FXZOQp4K6BuPE3i7AbsITrFhJHFtIS+WE/yAPNWuNk7SRvhXheQUayMRTtGP33WcbH7XcTrfM0R5yg2TiYCtdjZUOr8EhN91fjL7XdZlNApu2PyOe0L4yex3FXa/6+syYPL76OgYnT93nk4eO0bH3nuH5iYnqLWpKWoAA+Ah3lBdRbevXqETR4/SiePHqO12m5Mbga0um+93/3VZyIsWGLZhAsKu6d+GDQwM8q8ncgADxPO7jpPXNkxC2CgYv+P+N9ko0bo8Nj1LfWNT1FCcTyXZC1S4OEtFNE+lrA/iPpCGPJwTnbfI0wsX55R0iiNvzpG3qOQJeciPTicqzhI6FGepOhDlzc3wTTTVdSPS70G1YUupy6rf+/v76czpU3SctXE3WVtXVV5GdTU1UZ28ZKK2qopa6uup8/YtvlHmqRPH+cslN+7HNgx5KoJuw2T74acN09fl+7cNc8PGSfo952Mf+8QrGGmpoxyEL8PNJ0Zh0Q0JYjdjZKYbhUEHlMHhBspg9IV0dRSGCirluSFvNMRbj5XHRmB8dKbqEJGnjgT9cIIsyBTyonWAw3Au0vWccjWchJNQRuWEMpATa1cpT8cpIg/5bsBGsoxbHgA9cP1YTmYbSR1UTja/6zj9/fk2msnOzejddBHDfYbdqB/ZvpK/bZMw2cjmd1mXvfg92k+q3yM6JO73eHU5wgn+xrqXa1eu0LVLF2luapKaGxupuNC8ABHly0tLaZ41iB3t7bzRQvShQlYGoWCBeHVZd78DJk5hGyYAWZAp5Hn1e3q3YVjIf+3aVXrsscecVHEdk42kDionr22YhEke0gEvfmdasHKLd/m6kajfx2fYoID9u7+pktZWFNHKkgLaUF1Cm2vLaENVyd1jdVkBrS4tpE0sfWNN6d309ZUltKI4j9ZVFNOW+vKoMmvKi2iVQd7KknxaU1ZEm+vKaSPLl+nrKlge5FUyeSzPXWZ1qaMDu/6mmlj9HmippiIeJjrW77CD97qs85Ooe1787q7L3Oas83Xzxg26ytrCqxcvUFlxEdWzwYspZHIyAX2x10w2q0sIbT88MkIzs7O8jUVbez+2YbiOye8o48fvbk4n2GARgUEaG5u4POS7Ea8Nw/VjOd2/bZhbnp2T8Lt1TQwEqIQlTHmpKgOkszy/OpjgpwyQqmslWoaHVv72CaqvrYnawMkP8GAsyY9uME73jNLO+jL+bzKBTdhWFGXR//XwZidFwGYHP3lBy7MhkTL9fX18EIKFquMjw1RdUUFFypeXRNCPqQ9TU7R67TpqcaLrqJ+zVQTNyZSXqjJAOsvzq4MJfsoAtnLYMBDrWT7xiZedFIFU6Wcr4ycvHeSlUgcb/JRLZRl08jBQQNjkG1evUiHrgNVVp1e0zUE2yB8eG+NTzGQUM2yS6NVPfvLSRZ4JQZXBdLK9e/fSnj17nZRYLKd+8WAr4ycv1fKsvUhTQcCUl6oyQDrL86uDCX7KAKm6VqJlbg6M0gJ2M17iAAZoLM2nVeWF9OyaWv4vDkD+m0xMTE/TrsbYB5bNDn7ygpZng60M3jZevnyZzpw8QSeOvk9Zc7PU0tjoawADYH+Epro6ar99i2/gdvbMad4htSFoTqa8VJUB0lmeXx1M8FMGiKcHHmQqUqVfPN1MMOWlg7xU6mCDn3KpKoMpjNh0EhtWtl2/RvVVlWk3gAEQTGBlUxP1tt+hY++/T+fOnqHOzk4nNxo2O/jJSxd5JqSqDJDO+tnK+MlLtbyl9yRDhPCAM12DlB/QgtO37wzRV6720vjsPP8XB3BrZIr/21xawI/8nCz+dSYoILTyAuvEb6y99yPA4LPxnbbbdObUSTr27js02NdLa1esoIoAIjVhugUGMkV5eXTx9Ck6efwY38kaU4RChEgEmCKhG8SECJEMIIjJxYsX6RRrq86dPE6Y4NJUX8+/bqQrcI9g1//yokK6ev4cnTx2lA1mzvLNiEOEyHRko5Mi5765gQcD8nQPCJzvtUzQ8nA+8nRAuh95XssELQ/nI08HpActT1cmnjyvOrjzEHHmbM8wlbHGNJn40Aax8eShVdVUXZRHudlZ9EEnLQhMz8xRZX6OdhMqPzaK5yc/8ryW0eX19vbyN3d4g3fr6pWkvW0sLSmhlS0tNDM+xgdKWJB6/dpVwg7pEulqIwk/8nA+8nRAuh95XssELQ/nI08HpActD1BlxpPnVYeg5eF8qbsKpPuR57VM0PJwPvJ0QLofeV7LJEsegAhJt27dpLPOy5zxoUFaxdosrD/JFCDgCr6eL0xP8UAsp0+eoKusXZeLsP3YCOdLG6lAuh95XssELQ/nI08HpOvliTw/8nRl4unnlVPQ8uJx8iPPaxmZl42Ogi76AMKkIU+nKCIdIE8VjMU5Qt6skxKBlKcqChlI10UfQBQD5CGUmgrorJOH30KHWE6QgzxddARcH3kqp4g8MyfwdkNy0kWdgD2R54eTzUY2TmYb6TlNTtr8rueEMjYb4ZqImjM0PcffvKcCayuL6WzvGE3MLtCp7hEndekYY3y21ZbF2DVZfk9VXZZ+x9vGSxcv8i8jp9mRR4v84Zfst41YX7OqpZl6OtrpOBs4YYoZAggA8ety2Ib59TvyMrENwyaCmBozNjZG3d3dd2WDU7LaMDcS4RS0373U5Yg873U5aL+nqi4nw+9dnR10jrVFmDrWcfsWNdfV8umwmYrK8nJa09pK/V2dbED2Lo+odudOGw+2ksq6HKTfkbecbZiU57UNQ7qJk5+6bJNn0yGVfjdz8uf3bPyhCwuHCyFPRnFwAwrqhOJckzwQQJ6qJH4iXSdP6qAjjWvo5Zl1sMlDupDnJDiQ8nSOlDrobQR5sY6EU5A3P2+Wp3ICcH2dDpAj5MVyMpWRfsLbJRWQI2OAqxB+13Fa5GVMOkhO53qG4y7eDhKY9iVnU37VmWoWBHDDbags0voJXIPyu63uBV2XIQcPMUTZwdSxo87bxtUtLVSewo3TMPWh0Zn6cOX8OR6S+eyZM9TX26vVW3Ky3e/muhy2YVIHvY1MdVnIW842DA/4L3/5y/SXf/kXdP78efqjP/oC+/ccz4OcZLVhKoSNvPndJM/ud+mn6E4DYKrLNr/H55SZbViQfkfIZExvPXn8BJ1ng5jCnBxqYG2TGnUpE4G1BIigVl1eRjcuX6JTx47xNT7d3T3OGRHY/BTP7/q6fO+1YdivxCTPXEZyCq4fZtPBxAnpOFTY/GSSZ/e79FOwbVjOyy+//Ao6lghv5gY6E6yq805n7MKaLG0INZyHU/PyIC96uQ1fgMM3wImWh79hB10INXFeFt8AR+gTgZAnNglS5QF6TkIewrip8gAZ4i0agpOQp+ek2gh/gxN0UzkJeOcEeSijchLn6TnhNw4zpzyNjbK5TJ3fpZ/UcIBZWSgj9FN1gAzp969ebKOprOBDK69lA4pzfWPOL6LNNSV0rGuEaovzaXRmngcAgH74IrNUzM0v0PTkJH14SwsVFRRG2Qh/B+13wGtdRjGvdXlocIDutLXRJdYRxLqXhtqaZZ0qAVtUsMHT2OgoXb1ymbIYR9i0pLQ0yrZ2G4Gjvi4jHefjOm7gPJwatmHmuoz7HVjONgxTYL74xb+j1157lW7fvkU3b96gAwcepXXr1vHzIVPn96W2YW55+FvYyJvfIQtp3vwOGdBB53d9XUY6RNr8buaUeW0YZOB6Jr/rOOn8jg5VV1cn3bx+jS6cPU35TE+s3cuPsW/mA+sSEfp+enKCbt26xey0SNnMrrChrE/ClmEbJuWhjJsTQiw3NTWzo4nroMrDbxxmTsH2w3Q6CE73ZhtmDbEcIkRQmJydp49+E6GVqylXqYxLxaqKQro1HFk/saGqmK4Mis2gHm2t4ov7Lw6M05kAwi4PT0xScz7RzxzY4qRkNjAVp6e7i65fvUodd9qorqqKythDLZ2AB2tXby8tsAZtw5YtfCfqhoaGqMYzxP0HdB5+53d+mw1kXqMPvPQB+vmP/gLvSIQI4RdYB9jZ0UFXL12g+dlZqq+ujumMSdSyNmhkeJgWFxaotLycBvv6eFpfd7dzxtIAWXiJU4x9X1inLyi5NvQODNDU7BxtYu1sE2tn6+vrjfxDCCQSYjlE8pDz8suffMX5O0SIpOHawAi93zFIlaXBv90fno7+1DgwFfks2TYyRef7WEd9PPbzqx8Mjo7T4VX1tKoqvTr6XoG3jZ2deFhfouNH3qfshXmx7iU/ddP9EgUGK/gqlMce5Ldv3eJ71eDLDB6uhT5DPIfIfGDA0sE6nAjN/cLzz1Nb222qqamh4uJizZu+ECHMGBkZobbbt+jC2bN069pVqmDtTXVlpbEeYYDR2NpKE2Nj/Bz83d/TQw8dOkQ3r1zh51TX1lIJpuKy9mtWM/0nHiALA6OG5mZat3nzXbk1dXVc7sS42NkeAyhM0alm6WgX5bWwwWUV08GdBl2RBp3mNNOYSlh7WpiXS+3td6iH8cGb8FzWzvoNpX8/QHyJaQpfoCwTwkFMiJTgtWud1DE1T6WF6RuKMh7wRWBkbJx+YOsKKi3I3KkFeNuIzSoRJhRTxzB4QYSwdAc+NWOK2eTEBF26eIEPxDDAKcgv0HyGDnGvY2hoiM+tyGOdrNKiQlpgnbKBgX7CSjh01jCYCREiHs6ePUNXLl3i0boKWL3Bupd4U8cwwHj/jTdo2lnEjAEMgAFFT2cnVVRVUQMb2OBfDBbGRyOzADAAKi4tvXtgMKJLW7NxI50/eZJ/gcHfchCzmv1dXlHBn0cYRG3ZtYt/sWldvZrK2cCL68Ly8Lumvp4PQEbYvYKBDgZbtSwNOqGsDphWhJdGszPTdO3qFRphsrHz//DwEN8fRz1GRka5bFznfvw6Hg5ilhc5H/3ox17h8yDZzesGKiUW5yBdrZhIRyQIdY4a5IgFPWKumhs4Hwt7dPKwQGdxcSFGBykP58fqMM9l8jlxrjxRRoRku5842eTpOWGxVrA20unAF4cxW/ztuTYqYp0KdDgyFdOMR+78LH1gU2va+N2LnzD14fr163SBPbRvsIdTJXtY1lZXx8hOdxQVFlINe1j3sof19es3OF90XEtKxbQLibANE8gUTjZ5bk5YD9N+5w5dOH+OrrHO5+qWZr5XBzb2m52epitXLvNpkpgjjrfRmE8tEc9GOh3QhuFIBxvpdIjH6d6sy3KOfQR+Of36r3+WZtlgpIXVIbzMUc/RwT2ocAMDGKBl1Soa6u+ngd5efrixdvNmPtiRB8ro0nCNMTZ4QB3OZYMqKXue8ccAZMf+/VwHDGLaWLvecesW1bABGOyK81Ee6ZWsjUeQGwykdrIyJ9591ziAcQPrZXC0t3fQ6XNn+UsDRAR0H21tbWwg08vyBnmkqFp8+WG2T57f068uYxDT0NBIdfgSZpGn5xR8P0xvo3u3Dcv5j//xZ1+BcHdDD0xPI4TaJBOaww83xsbGGfFZvuDHrQyETkzgEycW70QvEkJEp+npqZhFPVAS8mBgyHMDxp2cnODnq4uOxscn+RsQ6K0aEbuLQxdVno3T+PgEl6dygm0gb3ExlpMMnZebq+cE46thaZGGKFB4wKqcJiYEJyy+cjvMxgnn46HujZOQx8TGvME2cQKk3wuVrynS77iGygl+7xgapu/cHqS6iszeHHKY1bm9jeW0vrI4KX73Upel37Oz4/sdPkWoYny9OHnsCBWw85sbGmLu+UxDKRsUF+Xn8WkgmFKUBVsw28qpD/diG+bF7xL3ShsGGd3Mz9hDCBv2zTA/Ya+OQjaolYCuCNU9NDjIA0Kg8wZehYVFXLbfNkz4PZZTMvyeiudxsvye/Los5DGx/D50w/7sGtNygl6vv/4a7dy1m2aYDVEea1zitY2mQYzEIBvAYGCSzewEPeXUL2Cc6YIBjjww1UuXhmuARx7T+dLp07wsvtjgwBceTCmDDqs3bKCr58/zfAx6VqxZQ4WsbcRAButpmAF5HR1m9wS+1PSyeygeJphfRphOs8wWTa0r6dGDj9KOHTvZsYO2bNl691i5cjVVMV3gxzfffJPWrl1HpaWlSfB7+rZhGMTU1tZRBWt3dPdn8HXZ3obZn133XhuWjfPdhSSgDNLxrw6aItwppjIY6eny8FMnC4AhUAZyY4FrCT3dEHrzv/hvN0SenZOaFSkTG9lK5un0EzrEwqYD0kW56DxRhv/Ff7sBMSYdAJSDHaMhztXpIH2IkIE6IE8FzjXpgGtc7h+ngpjIHJkH3LQ7G6ocfwTnd/gD5dQ8UYb/xX+7EfGTPuIayuEc7J9x4dxZ+j57wHS23aaN7AGXyXscqMDDCRtlFuZk05Hvv8U7tzeuX3MeDjab630l7aorkw5tWCJ+V1UX8qB35rZhCHd7+dIlev+d7/PQ29h4tbGuzjkjFtiUdUVjI+vkXaZ333qT73uEtVQArqUiXhsmyqiczDZajmeXCllXdGWkvKD8Dp1RTs0TZfhf/LcbUj8vdVlcxw8nPSn4vaCgkDZt3kqPP/k0lVRW0cTMLA0MDfEOkgkYCGAwgYEE1uVVKJsAY5Bx7vhx6rx9m7bv2+ekCpSxzq77MKUBZ48do2sXLji/iH99uXz2LN25edNJEcC0MaCO1fn+3l6+lgbTyjAd7Sor33bjBs+Ph2n2jBsaHqbRySnKYQP/hw8+Ro88epB30ktKSqmM8XUfGLBgGtVBdt727Tvo6NEjXE7Qfpe+Tdc2DDDpAKBcLF9xrk6HiI289MPMnCRfVXecqhHFkSltWM4rr3yah1gWBCPASAmjLxxqHtIwclRHUxjhibxYeVIWyrjzuBIsTRduT+qAa8XKE+HYkO8GZMSTh8MkD+e4gfNwvt5GQhbKuvPwt9ABo95oHeSoVscJn9L8cvJnIxsnvd91OkQ46f3+1csdNJOTF3ho5VQCoZVnpibpI9tXUSGzgbBRUH73X5dNfsdbJky5OXvyBLXdvEE17MGIharquQAegAhdnMf0xhxv/J5kg4AggIc5HvIFhYVcdrJQyAYz4Nff30dXLl+mBdaI4k0kHrS6ei5tBzu6kSltmE0eznED56FMJrZhMzPT1NvTTVfYIOT8mVNUyuoR9rdQ5esAuQgfuzA3xwe22MQVb/OwVsb99QaIcDL7Xb1mxEbB+h15Jnk4dPqhDM5xw1aXg/d7aupyRF7inACk63TA7yNH3mcd8O3UjAX06zdQQXERdXR187fXc3OzlONc0w05BQx1K5vlYRE/vr5IYDoZ1qGgTUVdk1PBAHwtcR+mNDmtzA2ZBvl4qYa/8SUGPHrZ3yvXraMbrP3DusEVa9fSIBvQoMwMa3vRKUVbDL1U4E38GGvzx9jgZSErmzazAcnBxx+nMlY2ET8J++bzr1qPPvqoy0/B+B3nyWsk6nf8LXTwVpeFLHG4YeKELzEtLa3U2toa10ZuROTZOHnph8V/duFwA+fpOAFIF/K8c0KeSR4OnX4og3PcSKQNC0Msh0gqesYm6RPfPkGNNdX8YZCpmJiepfXl+fSvH9zgpKQn8JkeIZNv3bhB165c5mtH0Lk3AW8T65qaeOOBKQ03Ll2ix559lt789redM5aGBx97jHq7u/kDFHOyUxEmFJ+lu1mHooA9sDds3srfFGKueIjMAaZ7YPBy5/ZtunThAhUX5FP9En3YNzBAQ6wObtyylVawTiDmsaMDEeL+xm/8xn+jD3zgg7SBDQYk8Jb3xPFjfK+YLNbBLyoooBI2+FU7UumAQy++SK9//evOL+8YZwOeqelpmmfcGpqaad8DD8YM8hMBIrx95jO/TL/0S7/spNwfCEMsLy/CQUyIpOJkex999eIdqivL7EhBUzNz9KGtK2hNdWrX9WAudyLgg4SxUepob6eL589TYW4ONVim2wAYwCBaDaYsuPHg44/T+9/7Hv8b58jPtn4GIIdfeole+9rX+N+PPfccvfmtb/G/VbmYQoH1LHizAshrIWyoM+f1bhpChGLQtcA6FwPOFCEdRpntsO9BUyvz2/r1VFMTvds2rl2SAVHZ7jdg2ldnZyffqwMby2JqWFAbDeKNczeTn8Xq2SY2mGlsbuF7YYS4f/G5z/0WPfXUU3yNhwosZj9+9AgND/RTNmuvilnnPt3CDW9nHeizx487vxIHBi5Y+4IeYFFpKe3d/wDff8svMIj55V/+JXZ8xkm5PxAOYpYXWdPTs4umtwuyk6EC6YApLx3kpYMOQJDyvJYBgpSHdMCLPKSPT88GJg+wXctPGSAReSWusMpByHPDnYeOFiK/IKSlXHSng7sMBjtdHe18vxcs2sf0qng49MIL9Po3vuH8igBTEm5fu8YHFA+wAQ2mH+A67sEO9h5wA4thdWlyEINByo59++j7r77KZW1jjT70xxxuvEXctmcP/42pGUD7rVt8XvcjTz5Jo5j+wMpgfjnmex9gHQ7ohMWvl86c4efbgDfwHT29VN/cTI2NIgwmroUBTXl5GVVWVvGpJBJuu6ow5SEdMOX5kZcOOgBByrOVwTom98artVVVfDpYMoC3z32Dg1RT30DrNmykenbPlJeX++IE+OEbZBkgneWlgw6ALu/3f//36MCBA3zhugopD8FDjh09SvOs41+AKYlsMJOpX/H4onY2eJlm/y7m5NJ2xnvjpk1Ltjmma/7SL/3i3UFMImVULFUHFcmQp6bLQczu3XsCkSdhKwOks7xU6pDz8z//C69gsZQ6Fw0VHaHSUBjz0tzAdA1EDcD8Z7dwvA1GRAMmOmY+HNIhD7LcZaDEzMwsL6vqgM6bWd4sl6fqIOXZOYm5e27E48SNxfLckPK8cbLZyDsnaSMTJ7s8Myecr/O7V07cPiwdDT+O/NwcfuThukxWLvunqCD/bjqOHHbZLKYbzsH6E3deFrMBrqCmR+RlxeTh+pCXzzrlbh1wEOv06+RBDuS5dZAA12T6/dy5s3Ty5AkeDhlzQYeHh3lkEUwVkwcGLRjgINoHFqAifDK+TFSWlfJpewiN6dZNhzXswaWLsIMoNkA+e1CDyxAbTGDutdwwDahngw+so5EHpqLp0mQUH3zxYQpxOVgfA1kIPYq53civb2qiW2zg1H7zJj9n7yOPUEdbGzWtWMEHVJgnvpUNdPD3ui1b+JciuTeDDYhggghVxaVlNMgGPtnMxsJ+o8zu83Tx4kXq6uqkqqpqvn5G3u96P4VtGBB0GwZ/3Llzh66xenDiaGo2XsWXnUo2aBkbHeGhmhGZam5ugdXN6JDMQHr5fTmfx8H6PVl12WQjE6cTJ05QbW0NX9fghrQRrlNRWUmbt2ylOeZXvBSZYnV2nslLpJ1NJ2Ddy8j4BLEeA61YvZoOPfkU1dXXx/F7YnUZf3/ve2/Q008/syx+X666jDUx9fUNPPiBiZNdXvL7YbIue7NR+rRhOhvd5YS3X5OTsQtuEQ4NeThJBULGIU8FSCMdC+JUoKOFPJyjAukIa6cCpJEHo6jA+chj3KIA0iZ5kIM8yFUh5amIcIq1EXgiz8QJdlIBeyIPi/JUSB3AwQ1wNMsTNtJxkn4y2cjGyex3Myeb302cvPvdzknv99TWZZuN4vkd/P7hH/6BNm/eTP/8n/9Levjhh/lUhw996MNRx3PPvUCHDz9JL7zwIv/94//0J+gHPvKDVNXQSKNM5wE2qMF0ARuwEJXv3mzAFNOlm3UuMQBZywY8blTV1UUdpjQJDD7klxwsOIVM7F/gBvY/ANBgoiHDlyDMzcaO1Tj6Ehi0SKAOIUToMGy+mEXbd+2in/7X/+au/Q4fforb9kd+5EeovLyCvvlN8UVqKX73XpfDNgwbr15kg4j33n6L7ly/xkMmY++iVAHrxTax+tjb0c50eJNOnzrFw3W79Te1YQDSvfv93m7D3Ii087HyklWXzTbSc0IHSWdznd937t5NTz37PBVXVvMIXmhn8VUj3YFnASKuiahjhfToE4fogYcevjt9FwBX73VZ73d7Xb73+mFSPx0nUffSox9mspF3v6e6DdPZSHDKxlsn9zxxCUQrQHouXpUrQJ4uogI6H0h33xgSkIU8dUQHCB1iy2Akh3J6/fL5oQJxv015UpY6QgRwfV0ZyUmnA3giT+UEuwgdYsvk5CDetZ0TOLgBMyNdjeMNINY6ZOFfFRF5ToILSNf7SUSJ0PndpDfOhTydD3G+0CFaCckJh4rk+T3WEEHW5SD8fuPGdb5h2M6du+7qgENFhFPE73hb+Dh7OO3cs5fmsnJojN3kw6P44hDbCAEXT5+m9Vu28PUp8nADkXUwDayLDWQqa2qcVAHsW+A+TGk64DqQiQg6mHImgQADyMOABfmIZoY3nvgyg+PWFfO+DG5gqtAwG8DMMNn1LSvoxQ9+kDZsjB6ESb8jROiTTz5JHR0dfDqEH78DSA/bsOi67IZ6v4+OjNBV5s/jR96nsydPUmVJMTU3NlCuhlcqgHDN9dVVdP3SBTr67js8nDPWQwDgKTjp2g+9n+7nNkyFzFMR4RRMXfb77EKYdl0oW3lvqCgrK6WDjz1ODzx8gHKLilk7O01DrD4jPHG6AW0/dBtlbeIc6yPs2LuPnnrmOf6MUSHs6q8Ni73f7/02zA1cG7LSvR+m2giQ+qlIpzZMpwPSeJlwYX+IEOmDr371K6xjXUaHDh1yUvzj7NmzdO3yJaL5OSpgNzzmcauNGNa/YAM0Cfe6F+yBgOlgAAYc7v0KEgX2SFADBzSvWEHVzmJqTIHDXgZYE4M1MDJdlsF0M/m1qIcNNDCYMS1kxdvGSTbwWWANYXF5Be3dt59qlMGXCV/4wv/iX2Z0i3tDBAdM75PR865cusg3pky3fYsw8O/p76c16zfQ6jVrqKGxKe0Wc4cIDl/84t/x6aSHDx92Urzh/LlzdPHCecpy2tkSVld0HfRUAl+X8DJnkt1vi0yX1WvX0R42gNENxIMC3or/5//8afqVX/lVJ+X+QLiwf3kRDmJChEgj/O3f/g2fWxvEIAbAg+XUiePU19NNi2zAUJSfT8Vp2CHDIObciRPOL2/A20Y8rKdm5yibdSJ27d5Na9hD2wt+7/d+lw4ePMg3bAuRHGDj1c72OzxkcvbiAv/6kcxO1VKBKGaTM7O0eetWamUD77r6hmXvnIYIHl/5yj9Qfn4BPffcc06Kd2BwjihmCK6StbDAXxgtVzuLNWYTzsuciuoaHnWs0hJmPyjgWfPpT79Cv/qrn3VS7g+Eg5jlRey3pRAhQtwzQAjhAwcfowceeZTyikv4btR405xuUx90G7DFg3zbOMIenrOURWs2bKQP/cBHPA9gAMhK5w51JgOBKTA9C9O0zp06SVWlJdRUX5/29m6oraWmmmq6cuE8vff9t/ngq9+1oWGIewO5uXnGKbeJAlPSsLP9I489QYVl5XyKGd/1nw1uUgWsOeBTxyanaDEvn/Y//Ag9+fQzKRnAAGH7GWI5kI2FM+oCJgAPdeThXxU432sZW55fHZCnQ5DybGXiyUt3Tn7k+dVBl+dXB+TpEKQ8Wxlb3lJ1UPOXKk8CGz6+8OJLtHn7dpplD5sx1vlHpBr1vOVC240bzl+JAZ0DPLAn5+aprKaOHj90mPbs3Rs1XS6ejdx2xTl4CNvK2PKQHoSfJIKUZysTT95SdMAb4du3btKp48fo7Tdeo/npKb5wPx2/BJqAzukKdu9gRvaRd97mXLD7P946A+AalJ+AIOXZytjygtQBCFKeLONHnqkM2gzszK9C6qCTZ9IB+6w889zztG3Xbr4GBWtREGBEt+A7KEAP7ImFdYB4mYN1jh/88A9Q64qVzhkR2Gzk167I0yFIebYy8eT51UGXh3S9PJFnk6dC6uBHP69lbHl+dUCeDkHKs5WRedlY4a+LPsCnaLARvU4woh+gnCoYiqCMLuID0pCnkoMMyNJFVMC1UUb3lgSfb1FOlYffSEe+inTnBHleOSHSA+TpIj5IG6mcpH46vyNNxwkQnGKjRERspJdn08FmIxsnLzbKtLos32jZOEm/e+W0YuUqOvzUM9S4ajVNs2zsYJ4J0XUkYD90CvCmE28b9zzwID308MNUVBy7aWWm+V3C5vd05wR5iFzT0dFO58+dpbfeeINH/tqwejWPBJapKC8ro3WrVtFwXy+9+dprdObUSWpvv8ODQdhsdL+2YRI2Tn7aMKlfkM+uhQV9dLJ4zy4bp7Xr1vOvwq2r19AMOx9fv/HVOGig7eaRKNkgqaapmZ55/gXatn0H1yHVfpcvgQCb39O/DfPudynPdr+b5AVZl4WNdPL0fctEbJTubVg2COveEkBxpOsIoLDOUPPzi06ZWHkipvMcU0p1pMjTVSYpS0caezzI+NFugLSMH60Ccsz6zTrynAQH0BfnI09FRD+lEAPsozO8za64BsrpKhrywFnF/LywHf5VIcrA5rEVzex3s80FJ53fzXZFmp6T3e9I170d8+N3u82F31X4qcuAmZNZB6ShHDiAlxzE2PwO2wgb6fQz12X4Iicnlx566GE68NjjVFReQZPs/MHhkZROffAK2AadgKGxcZrNyqb1m7fwTkJLS4ulLpttrrZh0u5hGxYB7OO1Devr66NLFy/SkXffpUtnz1B9VSU1KOG2Mxl1NTW0orGBbl29Qu++9RafJtfd1eXkRiDsnb5tmEzX+R2y9HU5sTbMjeDbsOCfXdizQl/P9c8u6SccKtzPY0SdQhjjxw8/RSVVCMk8Sf2DQzz4yFKB6cD4Ej08PkE5hUX00KMHeWRKRFtMhzbM5vd0b8OQ7tXviG4n/a5CltHJw3VwPRURTt7qsiynAtcXnLz5Henp3oblvPzyJ19B6F41ahF+49CFPcNv3KBqKDek4zDLEyHb3PLE3yhTwDpX0WWQJ3RA6LpYeVhkqYbPkzpAb1We0EGGwovOgywRUk7PSacDzpfycI6E+Bsh/HK5ndyADUzy8BsH8tzyxHl6TjhPhLXTyROcdDaCPJ2fIB9p2GTRrQOA3zpOuD7y7PXIm99lqD6dPL9+19VlnGvzu7+6DB2iFwDH87vQIY/Onz/Ho5OtWrXKOc/MyeR3yEqEE9bLrFu/gYdS7urtYYOYGd4IY7NMVeZyAm8bx9gxwxpghGE+wB7YWGgNuG2u6ozfOHR+x293G/b+++/RunXrqK5OrNXw5/f7tw3D15f2O210mQ1grl48T2VFRXxNiVoW4Ndkhwyvjd/qwzCdAX3LWWdxkd0r2Ml9cmqSGQW2Qhj8An6OsHn6tmHcBywtGW2YW544z8zJaxsGWWZO8t7w9uzq7u6i/v4+2rNnj5MqAFk4oF+inHCeygmR7fBlJq+gkNo7O2hWdr5YvmrjeEBHFVOBx1l7iK7lxs1b6fFDh6isvFycwCB0SH0bBk6vvfYaPfvss8559rqcbm2YBPyHNOS55YnzYjlhs8umpmZqbm7WysO1pI3ckPoFWZeRZ/a77X7PvH6Y9HsYnSxEiDTCX//1X/EG8fHHH3dSUgM8gE6fOkltN28SLcxTIWtoECp0OYE3aIg6NjO/QPlMlz379vMHRTLwuc/9Fj399NO0efMWJyVEIkC96e3pprY2NoA5f56KCwuo3hLWGvsAjQ4P879z2QN1fHSUh9Fuv3WLpy0VkN/X3c33NyooLOR/JxvYwX2Q8di0ZSutYFwaGhr5gzpEZgCd0OPHj9O/+lc/7aQkDxisnzx5gm5eu8ZDMvN2trg4plOnA17mIOrYIuu4NTS30L79D/DOZ7oAa+A++cmX6bOf/TUn5f5AGJ1seRE9tAkRIsSyIpGHWTKAtzrYV+Wxw09SWXUNn2M9uEwbuPG3jePjfPoFFsdu3rGTXvrgh5I2gAEy6UtAugCRui5euEDvvv0WXbt4gZrr66wDmLrGRmpsbeWbmOKocPaH2bh9O/8XwCAER1WC+/uo2LF/P/8Xm7PKv/HVR8rF3wD+xj5I+Ne9kSv2TOLXd20GiLd9SCswDOprq6tpLeN158Z1+v73vkcXzp+jnp4eJzdEugNvp3VTjpIBtO/o7D717HNUUVvHp/IiihkGACZgfcEgG/hjHSAinyECGr5Gp9MARiJsR0OkGuEgJkSINIP62TSVqGYdsiefepp2sQHNQk4uf3AmO7qOG3jbiGADCDpQ39JKzz7/Am3ZkpqvI/g8HSIxHD9+jL7/1pt07N3vUwGrr4jglc86gzaoG5923L7N/+111pRgMIFBDo5aNuBxo6a+PuowpUm0Xb/u/CX8KuU2trTwNOiCQRTSEM0J5+BoWb2ap2ET2BxnukYDK4O04uJi/lsHlG3GgKikmM4gGtub36OjR47QmTOnfR2XL1+m28w+CBwQIrnAV7NUtW8S5eXldJi1s/sefoQHKEFYZKxxcQ+moBPa3pGJCZrLyqbtu/fQ8y++RI3KvZEuWK4XcCHub+R89KO/8AoGz2rHaX4eIc/meMVUKycW4WABj/rQxyhcNgaqPCzmwRtWPodNIw9l1TK4hpCHOZnRZZCukyd10MmzcZLyTJzYPxp5dk46GwXNScqzcTLLM3PSyYvPKfP8noy6bLeRnRPWxJSVldPKlSt9c5LyllKXKyuraDPr3M3MzlFvfz9/G4g1DHmsY6deLwjgiw++vsywa+SXlPIFsbg+3pICbhu5r2/nlLjfsSZm/fr1fBAHeYAqL2zDBJD2y7/8y1SQl8v3e8HGfuo5OqzZuJFuXrni/Iqgp7OT/7tizRo+/QvTze5gWqMLqzds4F9O5NHHBj66NFxjoKeHD0AwnQyywX+BcRxjncSte/ZwHVD23PHj1N3RQUUlIrJdcWkpX1vQ1d7Oy6LcBOtEYsBz/PvfpynL23IJ2BD3yODQIJ09d44HOmhn8u7cuXP3wODk9u02HsHNnY7j1q3b7N82GhkZpq6uTl6+hg3uMDc+yDbMr9+FvPSuyzp5Nk79/QN04cIFOnDggJMqYLrfbZykjWyc3PIqKipp0+YtND07Q/0Dg6ydFdGbcC4CmWDw0sQG0E8cfpLq2SDZDT9+j//sWmTy9Jzi+R3nffe73+GbhtpslC5tmJmTN79jOiKmkNY5m/eaOJnlBVeXBSfvftf5yW6jeJy8+d1PXZY2yvkP/+E/skHMYswc3ulphC+b4NNMVMFjY6yzwTod+JzpVgaGQvx8pMnOhwRCoeFAulsZXBtvm6CM+nkUxMbHJ5g8LEiKXvCDdIRlU3XATTg6OsYNgsVAboATFqDm5oq3bm5Ab3TUVHnQC3wBdRETzsdnYGyW5b7xJSfYo7AwmhMcImxk5oTdg92VholjOsBGsZzgB5TD9dWFXhFOhVob6f0uOen8PsZ9Usge8G5EOMX6HaErETovlpN/v+v8FM/vfuoy8nSc4tXlpfgdgxi8pZODGNhc5/dU1eWGxkYeaEBskCnCIALoqAUBbhd2XWzCOcd0XbV2PY+cVlFR4Zwh4K8uJ+739957lzawjm15eaXjp7ANs9Xld999l/bs2c8GubNMxhQfJMDO7uuqwMBBN4iRGOjtpbWbN1MJFs2z608wPhJDbCCNfHnANro0DGImmX2YInevha8v9c3NVMruK8iWg5gbly/z/DnGoZp1QCrYADaf2Q6DGfgXvhsdGuIDpP4408O4vsyOCECxkJ1Da9dvoCefeob27t1PDz74IJ8zL4+NGzfR1q1b6OGHH6Z9bIAk03ft2s0H0jt37qLdu3dzn1y4cJ4GBwdpxYqV3O+oQ0G0YfA72ubkP7uCbcPkvQGY67K3Zxem/p07dzZmHaL52QV5+vvd7/MYIeIRrARrXkZGR2iOpZVWVtGefQ9SE18wjoXSifvdbxsGe6h+T7QNw/333e9+9+4gJt3bMFNd9up3DGJqa+v4y0evfjc/u4LthyXj2aXzUyLPLi9tmPS7jhOuD19lQ5jbURFgJIULxebBCAjTqgPKwNkqoISqOIBzTdeRZVyc7kLmwQnRwJsEPSfIEfI0AvloU6+7qUxE91jAPu7K4oYoE3sh6Ixr6fP0NgJEGR0QDUKXZ7aRtIPuWkjXy7OV0XOK2C7WRja/y2t58Tvy9HpDB3NdhjxdfZD66RCE32VdA0eTXXGKsJGOr/e6LMvoUFlVTY8cOEj72OAimzXE46wxwjQHdGCXAgxesEHbDNOzdfVqvkncetb508NPXfbnd5PtTH7HueI6Oj+Z67LMy8Q2DJHtWle00tPMZ3XNLXwvDCxuR0feBHwpkWtQyquq+KDBDaRfvXCBbl27xr+YuIEIeu7DlAbcZuVxLYktu3bRlXPnqKutzUkR4OtcWEeggXUSMUjp7eykfjYYusZ0wHS0jgSDDSA0OdYsTLIHbnlNLT3x5FO0mw1KRMdTROSJPnJ4hwv+iE4XD2p07vB7IxuQfeADH6TTp0+xTtUk96EOONdrG4Y0k7wg2jCJ4NswcW/YyuiuhXSRp0JEZkIHUIWJEyBk6W1ksivO1+sgOCE8MsIkP3LwMdrF6s/Tzz5HVVWVhjLQIdg2zOR3WUZncmkjtQ3Db1EmthCSTHnwh0l3Uxmca7JRkHUZEGWC9TuuFwt/ddlUJuLD6LyI7WxlnIQoSD+pNrJxEnk6LKUNy/n0p//zK2hsVXJoSDFiUkeVABpalFEVlaNQjJRj5Ylwpqo8nCfKRI/AACgo5amADroRHYwhyug4ievjUBGRF11BI/K8cZI2MnFCvppn4oTzhA5mTiirIj4nf36P5STk6TiJdG+cgvd76uqyyUbQD59SkQ/dMU1EzrF3czp79gxVVlbSihUr4nAS11d1ACLyvNTl+DbC15GNmzbTAms9EJEJb0LwxiWX6a3KswHlRsfHeccXbxsffPgRWr9hA+9M4Pq4nor4nMx+x/oCfOrHWx00unjzhK9Lbr+/9957vNOI88w2MvtdlLl/2jCs28DXwtbWVr6BajnzYw+r03iDiTd4KIN64QamduFLC/yMwQO+igz29zu5YjoZOpOlZWU0OzMT9fUDX0vchykNX1vk9DQJpOGrTgvTF/8ifzWrb1jkj99YT4NBC6aOrVi7lr8RrGQDrOHBQV5foKuMqOYGBvHyK2JWXj6PnodF23hDGpTfEZ73yJEjtJbpVVtbE+MnQPop2W2Y5IR8Nc8LJwmky0NFRF6wbVgsJ+zWP8fv/8OHn3RSBSBHxwkyhA5mTrieivichDy80a9yBvjp8OxKtC7jWfCd7/wjPffc83c53bx5g0+HvH79Gp+q29vby54j5TxP1QGIb6Pk12UpL1G/40sMbwfZMxvyVMTnpKtH/uqyf07Jf3ZJPjhUSE5qXU7E7/xLjJoJIE1VUAIXUi8m4Uce0m3ydIgnT6cDYCqD63uVZ9MhHWwUchJIJSedvNOnT/MONObA3759i0ZGRujKFTGVBcg0G23dvp1H1+Fv4NmDK94beAl0bkdZR3FkYpLmc3Jp19599PQzz7LOWSQSVDI4IaRpV1cXv/4w64xiTwiVEzqrUkY8eTog3S3PDVOZePJ0OgCmMkuxkQ6qjdzAAFxOLQSamproxZc+QFt37OIR5TCtCvtZoN67gYX9V86f51O6rl+65KQKIB3rWbDg/9KZM06qN7gDB0ggbZgNus8ePx6VfzddScNXHEw1Q6cMkAEIJDCIx3qFETYAwsarazduog9/5Adp1arVzhkCQfkJaZgW6cdPOnmAX7/7kYd0mzwdcL5NXpCcMOhU6ymQyZySIU8Htzz87X4zj/S/+Zu/5gOZr371K3TjxnXeDp9h97ZNB1Me0oPm5FUe0r3aKOQUgU2eX07RQ8MQIUIEjj/8w9/nbw3wRhXHO+98n3eodYj9PJuewHQihPl88MBByisu4W+jxbqZ2FCl4HS300dZtIZ1+rDb/po1a50zkot/+k9/gtraREf0yJH3M8bG6Qx8IcB8ZBUbN2/mEZSaWYd+lpkZ0wUTGeCmGu7pZl6AfYsQRWqaDXDqmprpyaefoV27dzu5ITIReAtsao9DLA34ynX16lW+ruHixYv8S/fbb7/p5IYIsXRk44Gue6gjTb6JUmEqA6CMSZ6pTDx5OqSDPKTdazZCWshJwMbJizws2AWw6A4bWQ4NDfHfEmoZ91sHnTyJdLBRfX09vcA6rVt37nTewE/xqWLyzSZfL+B0+irq6unxJ5/inT7Tm5pkccI0H7y16e7upkuXLmnLyJ8oY5KnSwdseUFyApJlIxU2eYWFRfzrgAqcj2kBDzz4ED3y2ON8XwvsOcQ7/myAC797PZIBfJXxAkwxwyB9YnqGrwvb/9Aj9Cjjh3UMJhsF5SdpAz/yUEaXh7Sg5ZnKxJOngx95SPMjD+2CbhBjK2PLSwdO6eKnzZs30zPPPMsGL7V8mll7+x360R/98dBGDkx5SAs5CcSTl4356bOzsYvaMIJGnu4z68zMLD9UwYhAgjK6RXJSnkoCMpAOeSpwbZM8nI88VQebvHicdPKgr0mHiLxYTpDnlRMaUp0Odk5SnndOdr/HVjYzJ7ONcA3kpcrvuodRhFPy67KU58ZP//S/5tf+yZ/8KR7G80d/9Mfo8cefcHKj/Y5DdlokJ1UeEI+TlOeGn7oM6DgBbhthrcxzL7xIzatW8a8tQ6NjNM4GNOMsn/ILaM/+B+jQ4Sf5uhqU0XNKVl0WkbPwxvWf/bP/g15kgy7JyS0Pdvfrd6TrbXRvtmGwp4wW5Ia7LmOaIPb5wf4W86yjOMwGt6nccygIzDPbYVrcEOOKqWMbt26jD3zow9Tc0mL101L8rmvDpDyT33Go8hKpy179bpLn79nlvy4H+eyCzNnZmZhr+Xl2+WnDpLzlfnYhXW+jxPyO9lPqIuX94A/+MP/9b/7N/0lY37Bv334qKyvjeX78buMUXF32YyOp3/LWZaFD8v1u4iTlpbIuZ2NKAP5QAYEIyaYrjDBpeKusAsqhDEKpqUAYPlxLJQCdkY5wcipwbcjTGRjzsVFOdQp+C06R+doSNk64PsopNuT6Ih36qwBPyNM5BfaBnVQshZN7DroEKgvk6SqNlKdyitjI5vdYTuCj5yT8ruOEa+g4JcvvOhvZ/O63LiNvOf1u4xR0XU7U75hbzt/AH3yMcgqLaILlr16/kT704R/gi78B6Xcdp+TV5bANQ3qQbRg6JAj1qULHae269fTCSx+i2sZmPu0Q0wqxID7dgWlw+PoyznRG1DFMHduydauTm9o2DB0dk9/91GW/fg+Sk5+6LOUF/exCGFlVj3jPLr2f/LdhXm3kx+9Bt2FIRzlpI9kJDdrv0FfIC64NM3GSfvLidykvXfthqX52efW7rS4LG5nbsGx8+tdFH0A64jzjjZsKHl2G5amf+hEdAelqfGgA1xDRB9QIDQhxiDLRMaoBfOZFGbxBVSF1UOWhMUI6oi2okBEQIFdFRF40J8g32UjoLcJougG7iLxYHWBPoZ/ORgU8HRzcgA4meYjOIGwU6yeko5ziJiZP2FXv9zxeJjc3drmUsJGOk7S5Xh6upYYETIbfBadYedIOQdZlvQ5L97v7TYTd76mpy4CQl7jfMe/5meeeo/1sQLNj5y4nVQBmFmVi7RB8XRZlEvE77I6/7/c2TNY/PDxEnr4u420qplipMLVh8Om+/fvpkceeoNKqaj7FbGB4WLuGarlxd+oYe+gWlJbRg48coIfZgYh2bqSyDYMclJEPendnRMrz0obJdPV+D6INcwMcTfL81GXoJ2yku9/zaHCwn7dL2LzSDSFPxymin9oBjdzv0frBzCY7+GnDbH6XZYJ8dkFmkG2YlOfWI2i/Qx7KJNKGSfivyyLdi98RTQzpwT27ktUPC87vKKfKS0ZdluVUCL1ZmZmZOWV8GCJEiOXCn//5n/G9Uh566CEnJUQq8Bu/8d/oB3iwgTVOyv0JDGLOnz9P2BwOG7jhzVpVVRVfx4VgDvKBhk0YX331Vfr3//5n+G+vuHXrJp08cQKv+6iAdQCK2ENM93AD3AP7ZGKODQwmp6ZoBm8Kc/No27ZttH7jJid3+fC5z/0WPfPMM7Rp02Ye4QkBMfDm9Nq1a1RZWUGtrSucM0O8/fZbzG/b6Rvf+Drt2LGT1ym8VEGHDKHrTfj4xz9G/+k//XzMJrshEgcG1j/7s/+RfvM3/4eTcn/gf/7Pz/PNarHuMkTqETvMCxEixLIhVR22ECF0wJswRHDr7OykN9/8Hus03+B1sqOjg4cGl8DCft2UgUSBcMQfxqCRDdixhgrrZRDBbrnqP6aO8Q1c2eURWe2Flz6QFgMYFS0trXTq1Cn+9z/+47fp+vXr/O8QAo8+epCOHTtKP/ZjP05f+9pX6a23vkf9/f108WL0lxkVGJzrpgKF8Ibw+RUi1QgHMSFCpBnUT6ohkg88fEO7C/zzf/4v6ODBx/jGdNgPBm9Yy8pKnVwBhFjWzaP2ip27d9Pjh5+k6voGHsEOUcwQ0S5VwHx07LY/xTgWV1bRwcef4Ou6MIUhHQG93nvvHT6N40Mf+hDt3/+AkxNCAj7FvfzUU0+xevw4rVu3Tjv10Y1wELN0hO1niOVANhbZqItzAKQhTzeyxkNNtzgH5/qRh3RdFAabPJyv0wEwybNz0stbGqfYRVlLk2e2ka5M0JzAJ5WcdPLicdLJi8fJJs8fJ282kpxwjipTyPPKyW4jr5xS7Xe9DsFzcsvDOXgI+5WHdBsnnTwTJ8Akz84pWBv91E/9Mx5CGFNycGDnbQDnotOnW4jpx0bl5eX08IFHaS8bPGQVFNL4tFiTgh3xk4VZpgu+vIxOTtECpo7t2sOj58md0t3ww8lm83h+0vtd5OEcRHrCYGbduvXcB+nWhqkQ8rzpEM9GNk4PP/wI/7137z4+PQxlMEXXxgn1Wx3ExLdRrA5Snq7MUjjp5aVXP0y2nxImeXZOwdpI6JCKZ5fISwUn8EkNp8T87oYso5MXj5NNno0Tj06me0uBGxp5uugIiAiAPFUZKC7kxT58cA3kqcpABtJ1UScQkQV5uhB0MtqCKg+/48nTcZLyVE5Sns5G4Ik81WGSE+ykAtdGnu6tj7SRSQe/NlLlSf1sftdVQvDRcZJ+98JJ6uCXk6ke6SJ92OpyJHKIl7ps97tumo3N7zIKTkQH8W8q/W7iBKST371wsvkdfNzy5L92v6dPG+bFRlKeF79LTpWVVfw39jeSgD1xCd0+MUvxe11dA730wQ/R+s1b+J5DI4hYww7VPksB9HBvvLqKdW4/+OEf4NPboEO6tmF4WCNP1mX51hvrPdKzDRMIui5L/Wz3e3m5WNeCr1VNTU18gII0WxuGc1VeyfK7H06JtGESYRsmIDnp/G6ry378Lu/PoP2ucgLAx1aXg+Lkx+9SXir7YXyzS92oDoWhoC5vYQEPseiLAXhbZCoj5anl8FPoEKskzpeHClwD5WLliTS93mZOuL4o6yQ4QJooo9dByIy1hSinu44oY5In9XdDptk44VAxPy9GvWoefpvkRTjp8/Q6SE76MjodWJKjQ7B+1+stZNn0U2Gvy3a/28ro/C7vJ6F/JF+m6eSJ65tspK/LOFfI09tVyIvlhDy9Dt79HtEhtmEU1zdx8lOXhSyT7ignIeVmShuml5e6NgwdQ8hT356ZOOEaSEuE09Zt2+jpZ5+j+uYWHt4YUcyC2PWfb7zKZI2yB3BFbR098eRTtGfvXt6B9VOXQVFwCtsweT+pesg0nTxxfZON4rVh3jghT6+DKIOF/3Nz0X7E+biWql9Eh/RqwySWsw1z/yvk6fS2yUuffpiqH36bOMnz1TJA6vph0kb6MjodWJKjQ+a2YTmvMGBqgBoqDb9lqD51riNueJRRQ+QhXBsOfOpW5UEWDpRzy8PfMoxabJkcLk+nn5Alpjm4IfVGSDm1DGQhz8wJ8tSwevE54VqxnBCeTqe34GTKAx9vnKQ8G6doeVI/m9/N8uD32DJmG0U4xdrI7neE6YvVwe53Gyeb3/GvG7i+mZPN7/E46fWTnE6dOsl3wW9paeHp8jomeV7rssjTydNzAmQZ5LsBGWYb6f1u45SsupxIG/bWW2/Rzp27qKqq8q4OsZyEPJRzyxM62P1usrmtLuttJK6VDm3Y22+/TY88coDpEgmniTzpdzfsnGL9DnutWLGSyisrqae3l6ZnZ2l2Ruz4n8uu4QWYloZ9aabm2EOPXWvv/gf44AX7GklAJ7ONlrcNe//992n9+vW8XciENswNpMvrmOQF1Ya5r6WXZ27Dzp49Q62trczGDU6OKKPzu43TcrZhEri+1EGVB1k4UM4tT+hg97tOPyErYqOvf/3rfDNhqbfeRuJa6dCGmfK8+P3EiePU3NzKntnNXD8zJ+9+N8vT1WWbjZa3DQNkXtBtWLYwRnRBAGl4OKkXA6A4LqgC56KMV3nQQTUGYJMndIiNXw2Y5MXnFCvPP6dYBwPx5HnlBAdDHv5VYeOEdD+c/Pgd19LLs/vdCyfAJM/GyWYjGyezjZZWl9W3ESZ50u9eOSHdO6fU+D2VdVnI887JbKOl+V2FSV58TkHWZXsbhpDL6qZrkOeVk83vGMxjh/ytO3bwKWZjk1M0Oj7OwyHHA97SYbd9PnUsK5vWbdxEH/mhf0Jr1q51zoggno2gu95Gdr97qcuASZ54+KfK76mpy9LvXjkh3TsnyDNzQidJnYYDebiWXp73uhw0JyHPm5/sNlq63zdtikT0M8mLzynIuuy/H6aXZ/K72OskFX6PV5eD4iTlBdeGJcfv0UObECFCLDt0N3mI5AKDx9Du3oAIZbqdo5OBjZs203MvvEjNq1bRLBvn880oLVPMsN8Lzpllfq1raua77W/fudPJDREiGuhA6dYShPCGn/zJn3L+ChEiNQgHMSFCpBHQkdbNDQ2RXISDGO/AdKypqaWvVUkUuB7CHx947HEqrqjkYZERktm9iBQLWOVu+9lFxbTvwYfpUXZ+WVn0bvshQrghBjGxa1xCeAM2xg0RIpXIGhubXMTnIvXzDyIIYHEO0tW5aPKNhfr5B5/vUU4vD2HSEJozek4eOg9ycahe3hzl5GCunKqDWCylk4c8nQ5YWIRFVjZOyEtUnuSE+ZvebAROOTGfyGw2gg5IUuVJTnobYZEcynjh5NfvkId5l0vnFLzfxUI475yi6/LAhOgsQTdcD+luHQCbPPgJNtL5Xcr7qz/7E9q8dRvt2befpyGP3aacrxtikZywkZe6vMjsUFkcuzt6Ovg9Xl0enJihHHYdVR6uhTSVk1j4N2+1kdThv//ar9KP/tOfoIbGJl5OJ8/tJ50OgNnvglM2K1dZJPYg8VeXE2/DxmfmaJr51WYj7idwYnVSlScXOufm6jn95Z/+Ke3eu5d27t7j5MS3EZJUebIuSxu5AR3KC/KpQJnvDnmXLl6k8+fOUjbTB7v+ZzMOU2wQs5iTR+vWr6Nt23cYbRRUXUYeIOWNTM3QHDtX9bsb8C0rbbFRxE94nfG//uB36bEnDtGateu0ddnuJ291GUBeFaujJhv5e3bp2zBbXWZF78qz1WXYCFdEG7a4qL/f49XlV1/9LtXW1NI+1747JhtFdIhfl6VuADihLhcWxNZl8/0ezLNLQvUTbArbSk5AvDbMDdVGkm/ERjpO5meX9BPy9DbXcypmfIqZXb3ZyPv9LupytDzs2L9r1x7auXMH1zv2fk/vfhjyAJM8PSfhdy+c/NRlu40Ep6yurt5FKKK+qRofn+BvuLDJmSp4aGiICSeqrKyIIgBFRkfH+PzS0tISJ1VgbGycvyUrLy+LUgZKDg0NczmQ5wbOR7miomJ2RBaPAiMjo5xEZaVYiCuBG2R4eJgbV+U0OTnNjgmuG3R0AzpAF5UTroFr2TipNopwgo0qnVQBhIUbGxvjUzGKiiILS4FRTH9gDkNse3elgaNgczw4KirKnVSB6ekZvlcA5qdjwZQbw8MjvNLE2mie50FndRM7m98HB4f4v1j87Ib0O+YnlpQUO6kCJr/bOAXvd4QknOR7XmBRnhuJ1uW2oXF681YP9wv0gw3FfNGIn+B3hB6EGPeiYQDnoxweetDRDdgbDUZBQSEdffVb1LhqDa3csMmRN8WvgWu5gXqCBh/6qR0KlEFZ6ODmhGsssrwXN6+gyvLk+h3pyIdv3fr5rcs3unrpjVt9VFhcpHBaZOX82gh+EnN0v/M3f0EPPPkslVZWcT/hfLWNCMLvWcwHH9iygj90k9mGTbKH4OvXumiUPwwXuG9tnFQbJcLpzPffoPrmVlq9ZbuTE12X3ZxkXc7KyuY2dwMP7NnZGcY3n9kp2k9jrF4+0lxJm1saFRuJNgy+u3HjOrXdvMF9Ut/QQGvXb+Rckt2GgZP72TU4MU2v3+imGZau+t0NaaPY+1NTl1kdfesbX6Y1W3ZSdWNjQnVZQurgtS5PMJs/u7aeWutrnVSBpTy7YDfYz414dRk2gp+m5hbo9etdNMLka+sy4w7a0A+dbZ2NZEhaVW9po5HBAW6LSjaQkUB7hI6k/n5PrC7DL3IUMzY2SQ81VdDWFWpdTu6zyw21LsOu3azeJnK/x3t2uTkF1S5LaP3uAFNH15QW0IF1LUy/iI0i96e5HwbdYp9d3vphGMRs376TNmzYoH12pXM/TG3D3MD5y90PS6T/ndXfP8S/xMD4buCCEIAKrVZcOB8XhFD1gigHI6mNBZTHDY501YhQBnJUJeEU3FhwotpYoLODSgW91YrBY0drOEEWZEKWWjGgA3Qxc8phuhc5qQLSRmZOsFF05cTNgRvVxqmYddTcNzfSkGezkY2TyUY2Tia/AyZOXvyeCKfg/e6/Lv/2uxfpbN84FSsNVNAY7+2kvGJ2k5dENwBBYI49CGYmxukXn9pB1TEdiuT4Pai6/NfHr9Kr7cNUWpgc+4903KKSuibKYZ2PZAH1DFOdPvPcXqorLVxiXba3Yee6h+i33rtCpcz+ycLkQC9ls45NQXn0wzRIDLCH8k9ta6VDG1qtbdjAwAB/6GNfkFS1Yeqz6ztXO+hvzndQqfLAXypGu9upsLyK8lhnIhXoHRymjx/cSJua650UgaU8u5ZSly/2DtNvvnOFSoqj/eKGu+1OJ4CDRP/IGP3E1mZ6atNKH/d78P2wcTY4/E/fPE6lyjUzDSOM6wN1JfQvH9houD/N97ufuqw+uzCI2blzJ23evNVal03t/HL2w9Q2zA35PLbZyN+zy09d1tlIcMqamprlgxgdQFDXOMgbU5cHYiZ5pryg5aWDDsmQp5MF2OSZyvkpY+PkRz+/nEx5fsrYOMkyk6xx+Og3T1B9bbXn8K7phGHWuDSzPvrPHNjipEQjXf2O6U6vfOckZReVUpHyBieTMDUzS7MTY/Rfn41MvzLZyJQO2OwKwLZ/fvIaneibpDrli1smATy7+vrp5UPbqLY0djBms1Eq6zKAcr/82hkaz86nsoAHManELOsUDA0O0Gee38faushbaAk/9dJPGUD64y9PXadjvRPWumxw27LDqR6cS0dvH338iW3UUBY7GPVjI1tdTkTeu7d76C/Pt1NzdWavY+noG6B/tWs17WypdlIisNlI1i8dbDZXy2AQs3fvXj6lzGRz07VsfjKVSQYnwKt+pjw/ZZamgyETMBkD6aY8mzxTXtDy0kGHZMgzwSbPjw6mMjZOfvTzUwYw5fkpY+Mky9weGqN5dk4mD2CAialp2t0U29BL2HxryzPBZnMTdGX6J6apf3I2owcwwOjkFO1qiu4wmGxkSgdsdsWBNRnne0YyujMNYNBXU5SnHcAANhvZ6qstz4R4Nse6gtsj41SqvLHMNGAj0O2sjdANYAA/9dJPGQB2xdfjc934ApvZdp2enaOKglztAAbwYyNZ93RIRN7priEqSOKX51RgntUPrIlbU6ufuWCzkSkdsNncBJvN/fjJprctzwQbJ1M5m36mPD9llqKDvqUKESLEXZzpHKI8ZR5upgFvOhbm5mhDbfQ6lEzAhZ7hmHnQmQjM393ZkLypVxI9Y5M0ND1Hhcq0hkzD6FTsoC9dcaUP88CxiZuTkKGYmp6mXQ3Rc+OXE33jUzQ4lfkvMMbY4HBnY/rUZSzov9g7QuXKtKNMw8T0LLVWFFFZQWbXjxD+wQaxC3c/5bjBOz1x8lQkUkaXF6QOQJDyEimjywtSByCd5fkpAwSpAxCkPJmONz2nuwepQpmPmWnAm8Dy/ByqKynwbKMg7Qp4lXeyc4AKk7wWKdmYm18gzAJeWRWZEhOkjQCZhzUEmT7oBuZmZ2l7fUVSbKTCTxlAljnVOUgF+Zn9tWB+YZEHnlhVWWq1g18bqUhE3sWekXuiLs/MsEEMGxwmw0YqEilzZ3icZljRvNzMnl2AzW93NVYa+cazgy1PB3OZ+NfSIV4ZL/L8lAGC1AEIUl4iZbLFYhsRYs0NsUhIRJ5QgQWUyFOBc73KgyJIh0wVWCSEPCzeUYHIIchTyUXkzTgpESTCSZUXNKelyYvlJG2Ef1XYOU150gGAvOA5BeN3qQPedquIx8kmr3tkXExlyvA3PZgmsoM9RMEpdX6fipGXiN/ddXlydp6u9Y9l/HSSccZ3XXUJFbkWNPppw3BPIM9Wl4+1D1BJhttrltWB/CyiuqI8rY1E3UuPNmx0YpIu9Gb+9L1J1nbWFedRYRYiS3mzEdpdm41sddn27DrRNUDFidRlVI90PBjmGL9c9ncDqx/gpK/L/tplv/LOdA5QvhI1LNMA1nOzM7Shukxro0jdC/Z+19VlRLFDXtgPEzoE3Q+zcco2GQQh8JCucwoK6kmLxg/h61SAFPKwEMcN6Ix0yFSByATIQ0QDFUgX8qINgt8yT0UinBQbcn2RrnMKeAp5SiEGpOs44drIgy4qkI7DCyc4Euk6J6OimeXNMP118sw2QpQIPSdhI52fcA2dDon4Hf+qQLpOns1GS6nLZzsH742pTIzLtroKzknnd1tdho3gexWyLpv9jhClJj/pGzkhL+L3W4OjtJB9b6xH2qVMJxF28Hq/2+vy0Ng43Roap5IM/3KF6Tcba8to0WkL9DZKjzasbWCExthgu0CJuJNpGJ2Yot2sjoKT3kZBP7uEn3TtPK4/yOry9YHE1hmh1UrHA0BdxguMrAVbXdbbKFn9sFNdQ4FH0Us1Zlm9KWaPhZqCXMdG0uIRID0VdRkdfaSnQz9M73c9p3Trf6uwcxLyshFTWg0JB6DjhsMdYk4CZdTY3wDCoMlyKvLzC7TysDDHJA96CXmx+sky7vjtgIxLrpMndbNxUhcR4VxRziwPvN3AAiWTDhF5sTYCX6GDaiMzJ4SqE/LMNoq1eQ5P1+mAGOeCU6w8hNnT6SD9rsZHB4Ru+RpO8f2uhuEDZBnV7+CIdJufbH5XF5VJThf7x6iA/ZvJ4IsfWWu1urr8ri1UyHS1LgOwjxpiEUAdQRmT34WfouVJP+FQgTqMcm6/Y2pUbm5m2x9vl9AZX1cdvfhU2sFbGyZsZKrLnRNzlJObSzmKzEzDFHu4b6+vvGuHdG7Dbo9Oa/XINMyzTsbm+grOSWcj+EDaQgXaXZSJ9VP8uqzrf+D83mnW2WHlM70uT6IuN1TdtYOpLvvth5meXSY/TS9kUefYVMa/6BidnGZ2rb7LVX12pbIfFrH58vfDdPJkuqkN08mT/TAbp1T1w3CokOlZMzNzscPXECFC8MWPP//N41RXk1ho5cYS9kDOyaae8RmqKsyjrvHYNws65OdkEf6bno9+qxEUEEe/IXeR/n+P6kMrpysQWvk/f/cULRYWU7GmETNhRXkhtY1EvhytZL9vu37bUM38NjAV+9ZnKcB6pImRYfrMC/uclOThr05dpyM941RfEcw+Q40l4mFUwOrotPOms2dimorYw2V8NvaNWhCA37t6B+gTh7bx/XTSHb/6xlkaXsylcss+Jm7gMY062c/qWR7rBCAC1+hMYrZU63ZQwJqtvv5++rUX97NBQ3RHYrnwN6dv0DtdY9RQmVhdVu/zVez3rQRtVZgLPyzyI0jgBUZnbx997Int1FCWHusqj7T10Z+dvU3N7Lm2VOjaBzz3aovyqG8y2HZURWf/IP2LXStpV3ONk7I8kCGW9+zZ66SESCUy+xVHiBBJxK1Bb6GVP7SxgR5traLKwlza0xgdBawkLyJD/bsiP5eqisTXh0I2CGpggyE8kCVymA743Vwa+3YjEUywQYw6lSkTMDgxwzvMXgYwwI9vbXb+EvjJ7S3OXwImXxSxjsyO+kiHiT2XqaWsgHccJeAfdI7kwzsRYBC5u3npHYZ4QGf4bPcwlQUYcWgvq8c4fmpHy92/81gnd0VZ5Bqom+i0BAUejrYwJyMGMNhD6sbQmKf1MGuriujxldX8fl5XWcz+jfAstrQTwHNrxI7y+C3rorsM6iv8gU65FyD897aGirQZwCDIwOnuITYwTNyu6n2OOuuG6b7H3/XF+VTivMkvYHbFC6noNljUc9jXC2Yw5Yn5Il0GMACmkgUVhELXPgC7GyLPP9jNS3uZCDC7AEEo1tZkXrTNEMEiHMSECGHA+Z4hSnQqU6nzUPyr853UPT5D37jWy39LPNgswpbmsk7C/ibxN/oLG6pK+Hz66TnxFWZXQxntqi+ngyuqeQcF2FRTzDs9DzZ7D8/LpzLNz9PGusxr7DGVTPdZeql4wPEFOt4POL6oLMiletZxGXS9PdxQXcJtfqC18m6HZicb5MAX7od0PGA90s7G5IdW7h+bDjwc7ddZPcbh/htvXMecud+oo7DHlppSbr8gwPfTSUEo6iBwGdMdeWjlxDv/GGT/6dkOujwwQUe7hunSwLiTQ9TKBofo9AKop6iX8m/g2tAE/xftCV6WwPb7nY4jBtuor4+xtqOK5XkBpu/takz+QDtRDPK9oeZYXQ6mTgGyDcbLin1Nwmb4Cr62sohmMPd+QXwNQxuM+9vdBqMt8NMGY8pTKl5gJIrZ+QUesj6oFx269gHomxRrHmG/g61VfHDjfhm0VEyw+po31sca1+C/SobILGRjQZK6OAdA5wcLe9RoAQAW5ugW54gyenlIQ553eXodTPJsOtjkpTMnwA8nnO+Vk8zTyUtnG9l0sMkz6YA3PcfbB6i8JLGGdz17yL1xe8D5FYsddeIN/5aaEmoqLeAPUjw85xYX+JvUykLR8XxqdQ19+0Yf/cW5jrtvEj+wvp7eZLK/fLmb//aCGWaTQja+aiovttrIv5/0ZeLJS8RPPLRyEgYxDzsdkefW1dH2OhHy+NCqGj4NcKvzG3iJ5X/pUjf99fku+ont4uvOYXYe/PzN69GDVBPkG0OErVVhspGwg/e6fLZ7MGXhaJudLzGoo6ibd0an6IOsngaB2ZkZ2uF8OYQNbHXPbCN/dVknz+Qn4HTXAOUHuGEgBqH72MAaLzjWVxXzegk80Cg64PjSK//tYvUVgyF32vHOYfrylW7qHIsNnGECgtcsLszROmcPKbuNUtMun+8JPqAK2mB8UdnLbInBIr64YPA9NjPPv35jiiTwzOpadn9Ht8Ef2iDa4L9n7YEXYFG0fIEhbaTCr4381OW2oVGaYgO2fIdrsrDded7Bfm/fGaRzvaNs8N7E04IAgiXMXTpOx48fpxs3rnO+3m3krS4DZj8hzyzPq59s+vnxu41TkDay6WCTtxRO2ePj49qoAFj5Pz4+wQTHFp6YmGTHRIwyiCQg5OmiGUDeOLtwLGnIgkwVIAwdTNERIE/VAb9NnCAH8iBXhYkT9I3HSY2KYeMER/nlhHB8KiQnnTycb+dk8js46fwOTuJNoBs4F2X0nOx+10W9svkdUSwgz2Qjm991N4nJ7wPj09Q9PpXwVKbx2Tm+nsKEd9qH+IMTU87+5kInfzP1g5sa6WzvmHOGwKxiJ+B83xh/C4ivAfiS4wUjjN8uZ5d+W10WNvLnd13kEFmXTX6PV5exHulKP6bpeO/IqBZSfXttcJzvnt1aVsAHJJjWg8HMpPM1TKJ9LFKXMKUPuDUySQdXVEVNNbFhfHqGVpTmU15WrF/j3e+2uqxrw47e6aXiwuDediYCrONC3YRNgljTJfbTWaRVVaITlM5tGF4QYCPcigTXwiSC3okZbs/VFUX0tas9tLW2hOqK82PaCTcmHZ5/e7GTl11VXpRw/QSmGGd8laxm95q8P4N/dnmry0du91LREheeq3fc23eGuF2fYDbCl3Lc80+vqaEbw9FcdbXY3QYn2gTzFxjMZqtdddlmI3NdDq4fdqqdDQ5TuKAf69tgNxydrvZ0KQBdBKH40HPP0tjYGP3FX/wldXd3cd5uwC7Jqcte+yx+2zCT3++ffljERmZOCFqkFQoCyEP8axUYAanGAJBuLoNRG0hGO0Wcv8j+jZUHpyBZ50joLORFl8NvUSZWB5s8lBN6OAkOoC/SbJz0o0T95j3SRhhBqjBxspWROuv8gfNxY8fqYSsjRsp6vsJGKqQd9Prp/Q6dhLxYG9n8hGsIedF62Pwuy+iuJfVQcaFniAo9dAivDEzwhhpzprFmoDw/ejrHkc5h+rGtjTwqDNraJ1bW3O0Yx8ObbYP8jeuH2QCo2OMbNDQc2AwMsNXliI28+l28XVGB8yEPdc0N2Bt1Ul9XIvXy1pC39Uhu5OZk8UEK/IDpDGon5R+u9HBfXewfpzOsc/hDmxpoeDqWgw5fZWX/4lwn/YQy/94ErEfaWlOmrctBtmFYm3FreCLl++mMzcyxQXkXn0aJTvdSgTesG5i9CpwpVagn6dqGdY2M0zjTzWtoZXTmUC+xbgVfYfFFwA1MLf2hzWgrZphPp+iFdbX0rQS+/DWUFPB2on9yhv7ptuh1YTbwKU/Oiw5A2EjfVppsFK8u68vo6/LU7Dy7ZyeozGNdZlfigzHc9xhstI9Gd8yOdQ3Tc2vrqHsc0y7n6Pl1dZSbYOQz2QbjJVSiL5JQl9dURfaGgg3AV7Wt7X4Puh92qmuASlO4Sz9c+8VL3fTn5zroOzf7ndSlAfvusOE2HXpoH7300ku0cuVKOnXqNOetIsi6bCsjfajzB87314YhT+f34Now6GSyken+BGRdNt3v+rqsr/+A1ENFIv3v7OLiYirS7EaONOTpwv6VlpZQSUlxzDzgPNYgx5MXG2Yui8vCoQJh5lAGoddUmOTht0kHyBHyYt9ESB10IZZN8qQO4O0G7AJZsJMK2BNldB3keJx0NsInd+SZONnkmTkVGf1u42SzkU4HaXMVNr+XlHj3O2yNPC91GYtKiwq8NfY3hibooeZKvlBUN/8Xa2UwPQloG5mkK4PibQrmKU86Dc9tli5xy+l84+0h0MYeyhOaAYMJciqTfBMY3+96G8E+Zr8XefY70u1+z6fz3cNaXRIB7IZODPyAwQo62G5gTQcGOV++LDrdQ2wAgykPQI8ropz7b+mLRie4gvxtAxr0BebX7S212rocz0Y6u5rasOsDo5SXX5C0hdkq3xFn0IepOFibgc742spYn3rF5HT0fjqoJ15tJOya/Dbs8sCY1q/x8KXL3bxewm5YUF7urHuRONMzSl3OW+svXuoSD3H+K+IHtz/uOBG40PYA+KCIQUCiwIaB2+pF2eQ9uxKvyzcHRykrN4+V9bZk9xprT7fUlt697zG4VjHKBt1yWi5seKlfrEfCYFx+BXfbVv69ymmDMW0S62cSwQQbHO5xrYfxX5eD6YeNTs/yKYilhcF/iXHbDMBAEWgfm+JBEvLZYFEu+l8qsHHzTlcbsXv3brp+/Rrn7UYq+2FSnlqXgWT4Pag2DL+hn45T5Hm8fP2wRGwUhlgOEUKBCK18gupqqjJ6k0VExarJnqeffWybk5IZuBtauYA1/pqHQqaAh1YeHabPPJ+a0MpHe8apLqDQysuBu6GVD2+jugTXoi0nEFp5ZDGXygKcTpZq3A2t/NIDfL1IOuCLZ2/Rmx3D1FgZTKd3OYAXGB29ffTxJ7ZRQ9nSB/dBAKGV//xsGzWx51omo6NvgP7F7lW02wmt3NHRQX/0R1+gj33s4/x3qhGGWF5eeHvVESLEfQARWhnTkjJ3AAOIN4HLG0PfDxBauXdyJqMHMIB7PVIyIUMrp3KaSDKAQV8lQitnwABGhlbO9F3PR6emaGt9edoMYBBaGVOeglxntByYnpuj0lyEVk6PAQxwsjP4YAmpxt3QytWZO8ANESyy1TltbvjJS1UZIJ3lpVIHG/yUC7qMH07LKe98D6YyZXZjD04L2IG7TkQ1kvBrIxOSUeZC73Bg+xgsJ+R6JD8291Kmf3yaT4kLMrTycmAMoZU1+xnFqy86BF1GzbvcN8LbCHX6Q6ZhchLT96IH2l7s4IYpz0sZhFbunQg2tPJyYAx21YRWDsJGbiQqD0Eo0K4GuYfUcmByZpZH9yxXgugEbVcT/JQBUnUtP3z9lAHSRV727OycdiEQFuYgT7cIB+k4VOBcpJsW9ejkQQmk6xcH2+QJHVSCNnk2TiZ5UgcvNpI64FBh5yTkeeEk5M164iTkzXriBCAdh4rkcEqN35HulocpLQjtm+mNPR5aRblZ1FQemUsasVGq/D7ryU9C3iydaO+7Z94YrqwosdgomLp8vgcd6swewACzszO0vSF60G230fK1YWe6Mv+tNtq6rIX5u6GVAVvds9somLp8sQ97Q2W2XQHUzV1N0QPy+DbyV5dVeTo/3RmeoBl2WrJDKycboxOTtLclenYBeIKzaiNpVxwqdDaS8PfsQl7YD7PJS4STKs+mg5SXjRB1k5PRi7IAhFBD3uxsbGGk41ABoUJebLg2XAN5OmWEvMiGXxJwMPJ04doQWg15Cmf+G+nIV2HnJOSpiHCKtRF4Is/MKVYero10XchJaSPVyTZOsNHoKDjFhqCTnFQbQT7K2DgF7XddxRXybH6P3evA5HfIR7p3v0dzurtLfIZPZcKGge6IQ4C0UdB12eR31DFTXTb5vW9wmK70j3qOTJRuQGjlNVXFPLQy+Oru96DasBOd/VTkY4F5OgFT4rJZh1qGVpZIxzYMgTgwcCzP8BcdU6wDUFmQQzXKrvjCRrr70/zsknXZdL/r6jKe68hzP7tOdAwsObTycgMvMGhu9m5AFQnT/W5rl708uyR0dfl87xBl+uwCAHtIqbMLYCPUoSD7YbZnl64uo9N+7/bDEn92ybqss1FQdVlC2igbb/DUCAMA0nJzc9m/sZ/Lka5785edne2UiZWHdBw4RwVk5WreEEgdcKjIzc3T6gAIebF5dk45Vk46HaQ8lROmGEBWnib0Jq4tdNDz9coJ14I83bQGoUMey3MSXDDpgHRxxPpJ5qmw+13YSAfBKbZMVpb0u06e3u9ZWdkO39iGWvpJ53f4SNhI5CG0sp+IQ+kGNDzbnYhDbpjsKm2kuz9FGd09GP/eUAEzCz/p63LnxCwtZLOyHiMTpRuwHgnTdCJ1L/G6DCA9kTZskj0Qrg9gbUZmd6gRjnZtZQkVKHVT1pV0asO6R1knh9nda2jldIN40RE7fU/UPV0bYX52od0Vfoq1uakuS19IeQitfJXV5XvhBcaqimIqVGwY737X2RVpwkbxn10Sal3G2+2THYMZ30YgtHIeLdIK1k64AZ6od0H2w5Cng6ku41ooo/oCEDpkXj9M2kFXzlSXl9oPU2HjJOWF0clChHDhN98+T3emFqlKExI0U4DFsf0Dg/RLz+6h4vzYmz+d8bdnbvLIRA0ZHGULnYauvgH62BPbo6bzJQOnOwfoD47doObazI441DM0Sj+8uYkeXR3Mrv/JxDcv3aFv3OijhgyOngV09g/Q//PQxqjpZMuJ892D9NtHrlJLbWqCkSw6b6WzlM7vUtE1MEw/vKWZHlvT4KQsLwYnZ+ij3zpOqxrT/96yYXBsgrZXFdL/sW+9kyIQRie7vxEOYkKEcDA+M0s/+9WjVF9T6Xln/HTC5MwcrSrNp3/HOiiZBEzTefnbx4kKCu9uEJeJ4LvOz83Sp57e5aQkD59//zKd6R+j6tL0iYLkFZiSMDM5Tf/Po5uovjS93xbz8N/fOUUTWdlUksHTnmDzuakJeuXpPWnT1v3xsat0pGuI6spLnZTkYqS3m3Jyc6mkKrhBE15gTE1O0X88sCltIpN990on/d3FtowfdI8zu/6znStpuxKIIhzE3N8IBzEhQjhoGxqn/33qBjUrn6szDTPz8/Ts+mZqKs+sju3o1Az9/nuXqKUyNZ2YZGF2bp4eXFkXM3c7Gfi9dy+xAV9ORi/YRcevubyEDq1NjzfXNsywAepvff881zeTgXUb2xqqojZjXG78AavL+awuq1MKk4Xjr32biktLafMDB5yUpQN1ubG0iJ5c3+SkLD/+/uwtvvmkGtEr01CUm00vbV5BecpU43AQc38ja2pqZhHz+NS5fLgZcejy5OIgdQ6irUyy5KllAMizldHl3YucTPISKaPLS4aNvJaReUHZKBmcAD/yguJkkpdIGV1eMmzktYzMC8pGyeAE+JEXcvIuL5Eyurxk2MhrGZkXlI2SwQnwIy8oTiZ5iZTR5ek4/f3ff4lK2SDmySef8iXPaxmZF5SNluKnoOUtJ6f29va7g5gg5Mm8RDlhEIMBzO7duz3Jk+m2Mrq8pXAyyfNaRuYlaiPAJm9JfpqamqKZmdgoUAjJhjwp3A1EjcLCYQhwA2HmUEYXMg6RDpCnlsFvyNJFopqfX+BRFXTyoLNJno0T5EGuChMnKU8XdSJiI2+cUMYrJ5O8pXDy7nfoEBupAueaOAXtd7+cgvR7KuuySV7QnCAPearfbTrY/O6Hk7SRH07e67JeXtiGCdg4Be33pXAKzu9hGwbgtx9Oqfa7vS5Hy7PpYLvf/XBKht91nACTvPutDUMEK0QHW842DPL8cgrO7/dnG5aNwroLIg15urB1uJguNB2Uk8qomJmZdeRFE4DOkKUrAyVRTkfApB9+mzjZ5MXjhHIqUEbHCTBxws2GMtgTQYWJk6ic3m0kOak3An4LHWJjedv9LvJU2Gxu8rt/TmhgYjnZ/S78p4tdLm2kwuZ3EyfAD6f4fvdXl2NtZONk9ruJk93mop6rOvj3u4mTre7Z6rLd7zr9TH6/39owPzYP2u/4jet4b8NMNrJxCtswANcWnPz43V9djrVRsG3YwoLN5mEbBtg4mfSzcUrERkpf9i4nnd/l9b3UZT82t/k9cm8k7nf8xnXCNszGKX4blvPyyy+/kpdXQDnKPEPxO4vy8wtiPuMgHaHN1JBo8rzCwoKYz0L4nZ2NkHfRuxzLvwsK8mPCqOF85CNPlYcwvAjVho2xdPJ0nCAD+SijyrNxgkidDkJfmw4IXRe9QDk7W3BEGN9EOYnzFnl6rI3MnGA/2AB5bkjZek74DXlmv6ucZFhNL34X55k4mf0ej5PN77C5iZMXv5s4RXTQ+d17XRbnwUax4TclJ69+h3gvfpd/6zgl4nczJ7PfvXICwjYMSE0bZvN7prRhsTYSMsI2TOqgf3YJeX78nn5t2MWLF5mcQlqzZm3gbVhQfjdxErj32jD8xvVRX9zA+RCp02FiYpxOnTpFhw8fNuiQ3DbsxInj1NzczI4mA6ewDQMgQ8gLtg0LF/aHCBEiRIgQIe4riDUxZfT00087KSEyEeHC/vsb0UObECFChAgRIkSIECFChEhzhIOYECFChAgRIkSIECFCZBSyschGt3gIC3aQp0YLABBlQBexAOeijLrYB8A1zPL0OviRJ8t45STlqfArL0gbJaKDTZ6KdOAExNPBizy/nIQ8b5xs8iBLp4NN3lI42eSpSESeiVNQfl8qJz/y1DJAkJwAkw5+5MkyXjlJeSr8yksnv6tIB05APB28yPPLScpTYeNkkwf76HSwyVsKJ5s8FYnIM3HS+Z1J5GVSycmPPC+cpDwvOgAmHfzIk2W8cpLyVMSTh0MnL0gb2XVInY1S5XepQyo4SXkqbJykvOzx8QltVIDp6VkaGxvTCh4fH+eHCiiCMrpIB7gGrqULg4cyExMTTkoEuDbK6KIjTExM8nI6Iwp5k05KBDZOuL5OHvQ122ial1EdBhmwj4kTykAXFfFtFMsJkS2EjYLiNMPLLKff7Zz0fpecJiennJQI4vkdnFR5Nk5B+x06222k8/ssL5PsugyY/O6vLpOFk3+/6zmlRxsm5AXThqXK75Dhpy7Ht1HYhsWry37aMJ08G6eg/e6vDQva797bsIiNYqMpmf0etmESJk52vwfbhiESFg4vfrdxim+jWE4YVKCM3e9OggO738M2DLBxkve7cTrZ4iI2rMmOEWoDBkvxykCuGzhVlHESXJBydKHzIuWiC+K3WZ6ZU0Sek+BA1dcNeS3NINGIiH62Ql44iUQvnFT5bkSupUaPMCMRv6vXNOsmdHD/60aknJonf+vK2P3u/lfCxglpyFP9bpIFyDJ6v8sC0QUjZZwEF9TGyA2cry9nK6PnZIOdk0TsNU2cIM/9rxtIEuXUPI0gBza/m5BIXVb5RnRzElyAHJEXa6NIueiCkTJOgguyLdTpF5HnJDiw+UdeK9l+t3GSXLxwUuW7EbnW/dOG6fSwcUIa8lS/y1M1Re6W0ftdFoguGCnjJLgg9dLrZ7KtRpADEycbUEfEdcxydddcGic1TyPIgc3vJiRSl1UfRnRzElyAHJEXa9hIueiCkTJOggvJacOyPPrdzCmCxDnJc22cYqEVxBG5VtiGmcsIG2VNTk4v4g+EKnMDJ+BzjRp2DZAjXlOeDKXmBjpdIGEqY9MhaHm6MkHLuxdtFHISCG0UQchJwKQDEKS80O8RhJwE4snT6RD6PRKdDKF57xVOEsgLSgcgSHlB2wg79n/hC/+LPvGJl52UCFAGSKaN5I79u3btCoxTOvg9lXU5njydDnf1QyH1YgAK6AQCSLflqRcDcA1bGZsOQcvTIWh5SLflZaKNkG7Lu184BS3vXrRRyCmCIOXdizYKOUUQT54O8eTpdLDJQ7pXeeluI6Tb8kJOZh2AIOUlw0bo5OqAMjZ5wekQtDx7GVte0DqkglM8eTodpLwwOlmIECFChAgRIkSIECEyCtn4JINDB1t60GXuN3k6xCuT7vJ0iFcm3eWZEKS8eGXSXZ4O8cqkuzwd4pW53+TpEK9MusvTIV6ZdJdnQpDy4pVJd3k6xCuT7vJ0iFfmfpOnQ7wy6S5Ph3hl0l2eCcjLRlQHXbQAzENDHuacqUC0AhyqcJxrihJhkgcZkKXTwSYP5+t0sMmzcTLJs+tg54RDRTxOyPPKCVEavHDCb1xHF6bPZiPJSZVn42SSZ+OEc8HJZCM7p2D9rrNRPL+bOKGMiRPydJxM8iDHq99tOphsJHXAocLOScjzwgnyUuV3yUmVtxQbmTiZ5Nk4meTZOJnk2XUI2u9hGwbg3LANC97vNh1MNpI64FCBefhmTkKeF064drq0YV7ujXicUMYrJ5M8GyeTPJsOSFtYwJG43+NxQp43TsLvXjjhN65zr7VhJnk2TiZ5kpOtDeMhlicnY0PGyZBss7OxhRHeDaHNVOBclNGFjJMhGFWDQGfIQp4KGYpPF/5QhnhTDYLfSNeFwYMcwSk2rN7YmJ4T9EUZXci4qSnBSWdgwSk2DJ7dRpM8T+VksxE4gauOE85HOaVe3OUE/VWki9/BSed3nK/jBJshz16X/fg9Vp70k8oJgCzIVGGryya/x6vLfv2ur8tmv0OW17os74308Pvy1mWk6ziBK8p59bvgFLZhQofMa8NsfocsXV1emt/DNgyydHV5bk7YXOf3TG3DcC+jjO7eMNVlALK8+t1Wl5Fu8rvgFFQbNs1koeOcuN+DbsOk3/3U5XutDUN68H43t2HZeXl5lJeX7yRHkJeXy448ys2NXTaTn5/PjjxSF9vgXCEv10mJQKTnkboACwt6kA6ZKrBoR+iQ56REgOsjD1EQ3MBvIS+2DOQgT7eACNcX8qI5QV+k41AhdcjJUXXI4nk6TnYbSR1UecJ+enmJcHISHEA/oUMsp1T53cbJ7ncTJ6mDri6LMrm5sfpF5EULtPldpsdy8leXTX6XOvivy06CAzsnvd/912Vpo2j9oBPSvdrIxMnu97ANA2x+lzpkWhuGeiV0SLwuA5AXlN9tnBLxe6w8qYNfGyXud5keq8P91Yah3gt5904bJjnpbC6uE5zfZV2Ovd+X6vfE6zKugfzlbMNycoSfvNXle7cNS4XfZXrWzMycMj4MESJEiBAhQoS4dyFDLD/99NNOSohMREdHB/3RH32BPvaxjzspqQVCLO/du5eHWQ6ResQO80KECBEiRIgQIUKESFNgOtGFC+fp4sWL1NvbS2fOnOb/hri/EA5iQoQIESJEiBAhQmQMhoaG6Nd+7bP0X/7Lp+nVV79LP/dzP0cnT550ckPcL8jGQhx1cQ6AKAFYVKNGCwBsZZBuKxO0PB2ClGcr41dePLvq8lDGJM9UBunqQi5AljHJ8+P3VHKylQlanq5M0PJMZQC/8u5Fv6eKE9JtZYKWp0OQ8mSZIOXdi35PJSdbmaDl6coELU+WCVJeKvzOSqXU76ngFE+HeHkqEpGnQ5DyZBl3XlNTE23duo1/kRkeHqbq6irav3+/kytgkxes30U5k7xU+T1YTunjd10ZmZeNCjAzExstQEYmQOg4FYimoIuosLCwyCsUwp6pwDWQpyqD30JebBlcG2UQeUIFrmGSZ9IBcpCn5zTD9VDl2TkJHXCOCpONcG1TFAubjVBGZyOEpkMZXUg7nI9yZhvpdfDq9/l5oZ9Xv/vhlM5+hwxho9gyQdfl4P0uysCXKsx+T++6HLZhAhF5er8jL2zDwjYMgAxho9gyQdfl4P3upw0TPgzbsMxpw+Zn2b/jPTQ5eI0+/Ox+2rd9NZUU5dI//+FDVLjYR9Mjt2l2cpAW5mcdTslvw+bnl9/v92sblg3BOiURrg4jND2BWX6ogHKQp6vskIN0dbQFnYU8vRFN+qGMTh5+I12nn13eDC+j2NDKSabrnCI46XUQdo0dmUv9dJxEGZ28eV5GJ292VsQMVzlJG+nsIPVD3HUVJk5SP8hUYeIEnUQZnd/NnHB9vTwZE375/A4ZwkapqMvB+h3pwu/ROgCCU9B12ZvfUfd1+tk4QY64lt7mOk73YhtmsxHScYRtWNiGAZAhbOStLkNn5MV2Qmx1OVi/I134PfG6jDqCMjodJN+g/B62YQJ2eeY2bGK4i8Z7z9Lone/R8IUv0MjJX6Hirv9Fj6y4Sc/vL6Lthd+goRO/RMOnf5OGr/0djXe+T2O9l2hqfNCREgGu7dXv+C3KmG2uk+evDfPud6kfZKowcfJbl1Pl90TasJyXX/7UKzJEnRv4jaOgIN8Y9kwNlYZQozgXZfTyRMg2tzz8LeTlM3lqmRyer9MP10a+GspNnGfTIZuHc4vlBN1ySQ3Da+MkdIA8c2g41Ub4beKE3zobiXShd2wZYT+dvNzcHM5H5QTZJh3gA3mtRDktxe/6MmZO6ex3ySk1dTlov6d3Xca1wAfy3LBxwm8csF+inBLxu6kup2sbhvNweKnLANKX2+9hGyaA30Je2IbZdYjlBCBd9TsWhBcVFdLateu08vA7aL+DD+S5YeOE3zhwrUQ4AYn43cQpHduw2akhmh2+StN3vkbTN/6MqO91Kpl4j0qzuqg8t5d2ryF68YECKs0bpeLFbiqcvU4LgydorOP7tDh6gbKymd65RewopOwcoSf0NnES+iXehp04cZyam5vZ0aKV56cuy2sF5Xch795sw8IQyyFChAgRIkSI+wphiOX0x/TwLRpvf50mrv0FVeYPUmnhAuUqgywbZmbnaWiqmKYLNlDJ6h+mosYHKa+4xskNBmGI5eVF4rUhRIgQIUKECBEiRIgkY7L/Ag2d+nXKvv37tLJigCpLyNMABsjPy6H6smmqp1M0d/mzNHr1f9P0SJuTG+JeQDiICREiRIgQIUKECJEWmOw7RwPvv0yV029Rbekcn1a0FBTks8FM6RjldPwpDZ7+HM2MdTo5ITIdfGE/FvaokAt01IV6ABbm6BbnyIWJ6mIfQC448iJP6mCShzKqPPxGuo2TTp5JB8lJJ88PJynPi40kJ90CK8Fp1sDJbCMTJ2kjtQyQWk4mP2Wm3206QB7KmDgFaSMTJynPCycpz8RJJw+/7Zwyry4DJnlSB5M8Eyek2zjp5Jl0kJx08vxwkvK82Ehyupf8jt92TiY/ZabfbTpAHsqYOAVpIxMnKc8LJybRykknLz4n73UZ6UFxwrleOQEmeVIHkzyU8cNJJw9lxnrPswHMJ6ip8AaPOhYkatiAqHj0VRq+8HmaGO7wZCPJSe932Dxsw6Q8P363cdLJk5yyR0dHeYg1FdPTM4Q8neCJiQmWNxZDAOeiDMqqmJqa5nmqMpABWZCpQsrTRTqAziinhojEbyEvlhPkeOUEfVEG+quQnFR5iXDS2UhwGo3hBJVM8gSnsTicnAQHktPkZGyYPpvfx8bGHHnRAm2ccA3kxfrdzEnK0/tdz2k5/J7sumyzUWKcnAQHfvwuOcH3KiQne12ObrBsnIS8MR9+D9swwMQpkbqsykuEk93v0TpAJZM8wclfG+bV72EbJhC2YQJSnr0up6IN0/vdVpcj8qIFSj/pOKV7GzbSe5X63/80NRbe5lPBkoHqsiwq7P8H6jv3pzQ+0u+kRhDxezSnRPxu95OT4EDWPa9+99OGmf2e+W1YNqIBKIECHCzy1f+Li7GZiBagRkYAcK5IV5gxmMoASFejFUgIHXTyRF7stYTeOnGQY9LBj374xGnKM6XbbYRIFnjzEJtnlrcYE9FBwsYJZdRoDwJmvyNdJ8/GCdcw6YcyOk6A0EFnIxOn1PndTxkAed7qskjXfUr3yynd/Y4yXv2OMnpxZk4meTZONrsi3cRJ6ODF76mry5nahiEdZXR5uDbSl7suCx10NjL5KXV+91MGQJ63uizSwzbMn99tnEzybJxsdhU66DkJHbz43czJ5PeFuUkau/xHVJ9/k0//SiaqSrOodPhrNHLrO05KBNBZ+D2Wr8lG4GSqKyabIx1ldHnSfkHV5eD9bpLn3e+AH/1kmaypqdlF03xDjIJ0gqEMeOnKmcoApjyM3qCjTlE/OgQtL1WcAJTzyslUJp6NdOmAzUZAKjjZdLBxClKejZMpL905mXwB2OQBqfC7qUwyOJnk2TiZ8myc/OgQtLxUcQJM/rDJM5VJht+BVHCy6WDjFKQ8GydTXrpzMvkCsMkD3DrI6GSHDx822sh0LRsnU5nQ7xHo5A3dfI0mT3+KVlTHfmVLBhaY4tf6qqjl2T+j/JJ6J1XA5EMdJxmdbNeuPb78rksHbDYHvPgJSFe/A0upy9kmAwKmglDOVM5UBjDlQZaOMOBHh6DlpYoT4IeTqUw8G5lgs1GqONl0SJU8GydTXrpzMqUDNnledQD8cDKVSQYnUzkbJ1OejZMfHYKWlypOgB9OpjLxbGSCzUap4mTTIVXybJxMeenOyZQO2OR51QHww8lUJh4nr/rZ5Nk4mfKC1sGLvPmZcRq5+HmqLRl3UpKPbKZbXfEQDVz6W9aBjp4y6IeTqUw8G5lgs3midnUjHf0uYZMXj1MYnSxEiBAhQoQIESLEsmC08ygVzV6logJzhzUZQNjm6Y5/pJnxPiclRKYhW3zGEZ+n3JDptjwdklHGlqdDvDK2PB2SUcaWp0O8MrY8HeKVseXpkIwytjwd4pWx5emQjDK2PB3ilbHl6ZCMMrY8HeKVseXpEK+MLU+HZJSx5ekQr4wtT4dklLHl6RCvjC1Ph3hlbHk6JKOMLU+HeGVseToko4wtT4d4ZWx5OgRZhuUY88xl4utgy9MhXhlbng7JKGPL0yFeGXfe8I2vU1lB7IL0VKCUumis44jzyy+n+Hx1iFfGlqdDMsrY8nSIV8aWp0O8MtnT09OkC6+GuWbI04VDm5mZ4YcKnGuShzTkqcrgdzx50EUFQquZ5CEd+SoS4aTKS4STHxvpONlshHQ9JykvcU5Sno5TOvjdximd/W7jJOUFV5eD9buJE+CHU6r9ruOUrLqsyrNxstkonesy4IeTlOeNk9nvJk5Sno5Tsvyu08Ekbyl1eTn9buMk5QVXl4P1u4kTYOIE8UKH5ff7/7+9MwGW7brK8+rxDm/Se5osa9aTsC3bGEywPIDlxDYEcJiSAlIKUKHAQxJKNlCkPMh6TspJqoxJoAoThoQMJAECcYVIHhIgSqikHFwELCnGgC1jrJEnveHOt++U85/dW929zlr7DHf3uafvXV+5/V7v3es/619r99Y9ut1bkqdpreWD7ftkDjtb6zR49vdpcV7+Yvy0OT63SatP/s/hs3DfJU84AMJ7irWWp9V3KQdNbz9ruUjfx/E5cL0into4qnBjQz6uEHPb4nFo6+IRatvbu2kMhDm4Bub4GwE5Q0s6MhHXdnrZAq+vuxheEDzHOOY5IU8YRx6shkFPGHN62aboNdI9aTUKecLZ5JjDnxyMS56gj7mm9j3sKdz3jY2D63udazl+3+tZy7H7fjBr+eD6XtdaBnqNbA8Dsdeyr5HtYVX7Xm4tHzt2PK01Ysqs5dh9P5i1fHB9h87Kyurzntae+xNa7K6p34mYNvhv0Wxf/hPa2Xben3jiCVpdXcv0XfMEH91uL52Lt5Znew/T+o45yRPGpRoV2cM6733v+87hmDd+PJxfUP1+P73THAd3S3h9r9cbjjjw5RzM9fu9zJdxMA4d6I1/6cfHdLsdRY9obi6bA9D0cDoCtMp66nS6ae7j+PwkTwDzyG88B+A8aTWSPYVqpHnyL0N+RT0lUc/nV7ZGuqeYfXd/Sp6ApOc9HWTfw54wF28t+5dJNdI8JVHD/LJ9B7heHWtZr5H7s0rfJU+2hzl8fpIngPk6+m572AhJz3s6yL6HPWHu8OxhuObv/u7v0qtedRfNz8+JOWie9Bq5P6v0XfJ0WPcw3Cg8+eSTdOrUKVp/9lHqnX+Qji/yXtfHxdUWta66m554+gI9+OCDdPvtd9DJk6dyPeG/U/KJT3yC3vKWtyRjvbTmUp+Oyh4m1cgzrT2sNRhsJ8vTMAzDMAzj6PCBD5yje+75W3T69OnkRmY+/YHJmD443voXfuHn6T3veR+9oP9FumHpZ+jaKxeGs/XzB19aoKdOvpV+44GH6PHHn6D777+f7rzzpcPZLPjheXV1lR5++GF66qkn6Xu/9/uGM0bd2E2MYRiGYRhHji9+8Yv0K7/yH+jGG29MHjeJ3w0w4vPQQ/+dfvmX/y1dffXV9LJb5ugDf2OZzt6wOJytn5/+L1v0sUfO0Ocf+zIdP36c3vGOv0M33XTzcDYLftPw2GNfoEuXLtEP/dBb6cSJE8MZo26yvyMyDMMwDMM45Nx666307ne/h+6669XEP99vTJeFhYX0sbnTpY2tg/136ddf2aHTV5yiM2fOiB+d4uA3MW9+8zfQj/zIj9oNzAHTWl/f3ENDpM+o4U2NccyPg3H3Gbbs5+60mNAcvmxUNQc+52Oq6jXRE9iPXixPTg//gaHiOYTmpuEptp4UE5o7jH3Hl0AxVCaHsJ71Hfgc+JyPqapna7k+PVvLDp9DbL14nmwPA6G5mH33MZrer/3ar9LHP/5xes1rXkNveFmXrn7up+iaMwf3cbIvPnecTr/un9MDv/X79MlPfjK9sb3jjjui1ihWn2LrzfxaXltbE7/5jxMJcEIDXsTBSQeIg8g4eC1ipNMM8GtapzcZAw1oSSc04BQDTQ85Szl4vZAn6XQE3dNeGiP9mnlUo+KeQjWq6glzkidND/liPOypnr5Lnpre9zxPB72WNb2QJ6/H+x7ylNf3sp7gBXOxa1TXWj7ovldZy6MaFfcUqlFVT5grs5a9XtiT7WGIkWqU5+mg17KmV2wtH+weNo0a1bWW6+r72bO30z333ENve9vb6aoXnqXdvckfeOtme6dFvflT9D3f8zfpfe+7j6677rrSnjBXZi17PfSEU3ffJU91vt91T/l7WBv/hkISxTnPu7s76V0aZzDYSsazxcVrESOdEe318OBAC5ocnAON18tnRG+ncbzJeK55CulpnnzOkifEYE6qkeYpVKM8T1qN/IPjPWX1XM7S4szvu+RV96T1Pc8TXl/OU3191zyBKp60vqOuTq+aJ6nveIQ8af2VPIX67nLAvNwnrUb+wdE96X0PefJ6nJAnr4cHJ+QJr5c85b3f61jLiMGcVCPNU6hGeZ60GvkHx3uS9eR1WVff8zzh9eU92R4G9Brle5L6rq2VUN9dDpiX+1S2Rronve8hT16PE/Lk9fDgVPGU937X1vLZs2fp677u9enz+ZM30MbO8cwPsHWxgx/sF2+g7vwV6fNrrrkm6EmrkX9wwn23PQxonnzOIU+tlZX1PRx9xo9Dwx3Q9vYW4QtM/Nc4SBDz/Dg0LEL8YIyj5vxxap6QHgxIOYT0tByApndYPeGuF0dElvWEX93xX9+FPCEmCbW+H0FPGMLcOPmedkvXaGNjk+bmcNyppGd9P6yequ5h+JiB9d08gTxPGMLcOPmeyu9h1ndHGU9/8p++nb7izOPJa+v/jczSyhZdPH0PXX/Xj6XPq3qyPcxR91q208kMwzAMwzCMA+Gp3/sJOvHcv6MrTmR/KJ42T17oUP+V/5SuuOHVwxFjljjYDyIahmEYhmEYR5YTt3wTrWwdS//tep3s7LZoMHcHHb/mzuGIMWvYTYxhGIZhGIZxIBy/5qU0OPU6Wtus9ybm/HKP5m/5Vur2Tw5HjFmjjc+iSV8ewmdBMYfPpHHwxRzpyzl4raaHMUnPxchfYHKfecNn5eQvMel6YU/S3b7T2ymlp+UA8mpU3pNWI+9J0yvnyevxGJDnSfuyWXxPzey7i6l7Lcfpu/8yHo8B0MKD4/XKe5qFtSzVqIqnqjXK63vWk9OzPczr8RiQ58n2sJAnpxffU5y+2x7mCOlV81S1Rnl9n4y56uVvpefWzyQxWa/TYGunRRd3z9KZ2799OOKoVqMm9b2utRyn78DpVdvD2ktLy7S2tj4cHrG+vkGYk04FWF5eTh8ciCIGsRxcA3NSMtBaWloZPhuBayMGX/bl4Gg1zDHP6XOMY54DHcxJnnD9sp58jTRPkp73FKoRXzTO01LiaXU4MgJfenKesqdLLC+vpHEc6CMm1HcsDo7mCa91nrJ6mieA3JAjJ+RJ6zveGBhvQt/rWMvx++76VKbvda5lvB5x2b7nr2Wp75qnUN+9p4Ps+37WcqhGmidJr86+2x7mmJU9jP+AElrL8ftezx4GqvXd9jCgreXFM2dp55pvoctrnSSeCUYGHyM7v34lnXrx91O7M/kFdK3vzlO9e1iZvh/VPayN06n4f5QG4CQAfnKVRzrVyqPrtXP0sjE4wABz/CQDkKcn5QAdpzccGAPXL6uX7ymkV96TVIeRp7g1kvYQjJfV208O5Ty5/1BSWG84MMZ0+i7l4OZi9ymWXr6nkF75HBIH7skYIU9+TsLlIHkKx5TXa1LfhwNj2B7m8Hq2h1X3VH0tZ4uu5VCtRvvxFNKLk0PIk5+T0PSO2h52xZ0/QOc7r6a1wfRuZLZ3dunixgnauPI76MQNrxmOjsjzFOptrBrV3Xcpppqn+vew4OlkWESSAWN/VKlr1V7Uda06PRn5HMa+13ktI8xh7Hudnox8DmPf67zWrLK7s0lPPnQvXdv+DM11tpMfVuN5x6ewLq7P0da1301Xf9XfPXR9P4rry45YNgzDMAzDMBoBbmS+9Ds/Ste2/pAWe5vU7ezvh2z8oL6926VLm6do48pvouu+5t7hjDHr2E2MYRiGYRiG0Sie+F/naHH903Si8xx129vJzUz2Y0Uh0puXHaLB7hwt0a3Uuf6v0ZkXfddw1jgMtDY2Bnv4VRL/dRKa73/NJM2BsjHaHL5sVDbGz0mflYupVyRGmwNlY/CYtidQVQ+UjdHmDmPfD6MnjIOyMXhM2xOoqgfKxmhz1neHn7O+1+tJ0isSI80dRk8YB2Vj8Ji2J1BVD5SN0eaa2vcLj/03WvrTX6MzncdosbNGndYutVs71Gon8cn8uIaLx7X3aLfVp53dNl0anKb1+ZfRlXd+Hx27+iVjrzs4Tx7ru0PTKxSzubkpnj6A485wmgAS4gwGA0IcBMbBaxEjHf+GMSkGzzEOTY7Xk46M03II6UGnrCevp3lyeuU9SXroQxVPmIvvSdfjhDxhLJSDViPMVem7tJar9j3kCXNaDponxEiemtz3Ip40vVAOmh7mYvVd8wQ0vWl40vqe50nSq7qWMa55cnrlPUl6s7KHcb2QJ4yFctBqhLlYa7lq30OeMKfloHlCjOTJ9jAH9DAXq++aJ6Dp4b0c25PW9zxPkl7ZtXzmtjfTDW/4Z7Ry9d+mP9/8Snpm8ya6PDhJq1vztL7VpdVBl84vtWlju0treL59jC4OztBTW3fSk63XUeuOd9FNd//j529gQKjvtoc5oIe5g+o7wPOQJ8y1cUzZxkb2+DIIYlwKxnFt0pFnTnQjjeVgHDH8aD/kjEQkvcFgK42TCuLyQ4En9fAc41IO0HF62c0CnhDHgV6VGiFGOjqvSo384pRrNEjHJU8u7+yiqeopZt/DnrbScanvLu+qnrJH+4X6jhhJz49zTwBaUt9DaxnjoRpJ+dXZd8TUuZa3tmL3Pesp5lq2PWwExqUaFel7HWs5Zt/DnvQ9DDFlPVXtO2IkPT/OPQFoSX33a7lKjaT86uw7YupZy9P6Z1fWU8y1DJBbqO+SJ5df/D2M/SxLe+0+zd/4LXTVaz9EJ175D2jjuh+k5+a+gZ7Y+Uv0yHMvpl986CT92cZX0dN7d9HlU99Ju7f9CJ352vvp5CveTZ3TrxyqjIjfd9vDwH77znF6co38eOe9773v3NxcP3O8mfu1Tovm5uYyv8ZJllTy+i71+73hcwdicOc0Pz+X+bWQ/3VQvz+ph78jptvtUq83eV63P5UC+Ul6GOv3+4IepePck3sdPGX1AF7PPbVazpOmhwevkcthL/XT65WtUTvNb1zPx0h9ctciUQ/P8UDcJC4/eC3Td8S4Pu2/7z5G8oS++zmuh+d4cE+uDroePKGHXA/g9VrfNT3Jk88B9Sm7lqW+Oz0Xw3Pwc2X6HlrLTiPmWnbX4+9PHxPyJNUIz/HIenL5SXpOw/awUN+hh8dR2cNi9t3HSJ7Ce5jve29CD38P1ch5Kt93LT/Jk8/B9jDEueuV2cPCfa93D5P0oIFHzL5jrK49DHVYOHktHbvm5XTyprvp9Nlvpu0TL6f//QdP0Hf84IfT58dfeBctnrmdevOnhp5sD3Oe6trDptF3OT9o2hf7DcMwDMMwjJnj/Pnz9JGP/Azdf/+54YhxlMjeDhmGYRiGYRhGw8G/1ecfazKODnYTYxiGYRiGYcwc7iNM9oGio0obX5yR7mKxKDAnLQ6M48HxMfykG4BrhPXK5aDpjXIo68npcUJ68KnrhWskxTTBU1jvMPY9z5PU9zxPs9f3utYywHhZT/FrdBjXcnP7HsohpGd7mCOk53Kwvtse5hjplfc0i3sYvmeh6x38WvZ6nKp6GA/rFfcEnN5B9z3PU1bPv9/bq6uryskEA8KcJLy6upY+OBBFzOamfIoF5niBkSS01tayeltb22mMdpoB5nhBnN5qOs/xnuRTqpwnrjfylD05AT4xV8YT6okY6cQH9CGsl/WE4wARIx3PmOcp1Hdp0UALD86oRlU8SX0PeULfs56cHjzpfZfWcn7fpbWc1/dsDuG+h9ayrIf3BGLwHuFU6bvmCUALD069a1nue8gT8sLcQe5h2GsQI9XIebI9LNz38mvZ1+jo7GHh94a8lvP6ns0h9h4Wu++aJwAtPDhYI7qnZu9h+e93qe917mFyjbynWHsYTuXCOPcEoIUHp949rHrfD3YPy/v5O+vJ6dW7h7XxIh4IsDAwJ98B7YrjSM7FZJPEnZ40h0vn6UmmvZ5URBej60l+fQ58CvlqeqO5bH7QkmNc3tLReT73vb3JODcu6/k66NfKeoK+u062Dr7vmic8OL6uUt91TyE93ZObg6fJ3J2WqxMntJa9HmfkKTvnr8VrFPLkY6S++zkeF+57fp9YiZLn7jpS3/PWMs8NuPFya9lrSdep0vcia1nPXa+rtJZ9fnwOl9b0fB1CfrOefIyen+TX58CnRr2V6hDuuxzj8i7Tdzduexhwc/H2MBeXrdHIkxQj1yjkyY3H3MNcjDTn9Mr1PW8t89yAr1GZtey1pOuEPLm5bN+LrGU597AnaS37/PgcLu19cXwdQn6znlzOch1cfpJfnwOfGvU2q5dcLY2R8vN6HDdezx7m/GbzKNL3Mp58XaW+657y9aQcnN9m7GGttbWNvXa7kx5XNo5Lfjs9NnT8CDXgTfEjz2AId9c4/k3Sw0Whx8HdK76cJenhWhjnOYT0kIPkKaTnirWbOYoPaHpNr5F5clTxBEJ6mqejVCPzNML2MIf13dEET8Bq5DBPjtiemlCjlZVVOnfu/fShD/1EI2tUxVPT+16XJ5CnZ0csG4ZhGIZhGDMH/oOH9933vvQmxjh62OlkhmEYhmEYxsyB3yL4f5NvHD3a+JWRhjaH8dCcRp16GqGYw6ZXJQY0Wa9KDDhKelViQJP1qsSAWdbTCMUcNr0qMaDJelViwFHSqxIDmqxXJQbMsp5GKKasHm5i8NEmiSp6IBRTVq9KDGiyXpUYMA29Nr5sI93FYgyflcPnzjiYQxwXx3PEaHpajJYDFqabk790VFYPOpiTFnw1PVejMjGop6tRsz1pfZdiRp5kvbI5TK/vsqfyek3yNN2+hz1Np+91rWVNbzbWctwalYmJ3fe61jLwepxpreX4fdc9ldOr4snPNXst8xrleZpG3+tcy5LebKzlOHpubrtUzGHoO2danuL3XfdUTs/FtJeXl2llZWU4PAJHsuELU9IRrsvLK8ljefhsBBYSYqQj43CEGmLwGo7LYXX4bAQagjl85pGDnDHHFw2eO72sJ+hgDrqckCeMS8fq+RppnqDJQT0RU8YT+opxqUYhT3g95ti6eL5GIU9633VPZfoe8hTqO47UC3kK973cWsa4VKO8tSzXqPxa9jWCZ06VvhdZy3KNwms51Pcya9nXqMpalvqev5ZtD/M1KreW9RrlrWWpRlXWsq9R+bUs16jIWuY1KrKWpb7P7h7m9MqsZV+jo7aHbWxkjwLWPIX6XmUto0Z5nrS+hz0V73uxtaz3nRPqO47axfG9ZdeyVqO8tRyqUZm17GtUfi3LfS+ylnmNiq3lrF6T9rA2Tgro9frD4RH9fi89RaDTmTwRAHS7HfGEATx3MdkTBnwMfvXHcTHZcX9ignQCAnJ2OUzG4TnGJU/QgZ6cg8uPg9diHPMcaLkc5DpIMbi0yy97Ld2Tj5HqoHvCnNMbDoyBcalPob7j9VIMXosYxHK0voc8hfre7br8OOG+O69CiZIYuYehvuueQn33nor3HTi9OH0PedL6HvIU6jtywxwn1Hf4R5xUB81TqO+2hzlCffd90upQtu+6J73vIU9a3wHGpT6F+u79ckKetL6HPIX6Prt7mKuf7WF63+Ffi9M8hfoeWsu+h9p7F3lwtL4DF5Mdx2td36Uext3DcH3EcUJ9d1rZ8ap91z3l953HAK3vAONSn0J9x+sxxwl50voe8hTqe5P2MDudzDAMwzAMw5hJ3vnOe+nDH/7J9Idk42gh3BMZhmEYhmEYRvPBv7HnH/8yjgZ2E2MYhmEYhmHMJHYTc3Rpo/H8RACAsbw5TpEYaS5mDiCmXpEYaW4/OcTW4xSJkeYwHluvbIyfk4ipVyRGmouZA4ipVyRGmsN4bL2yMX6OUySmDr2YOYCYekVipLn95BBbj1MkRprDeGy9sjF+TiKmXpEYaS5mDiCmXpEYaQ7jsfXKxvg5TpGYOvRi5gBi6uXFAOkEK8RIp2Hl6WlzVWL8HKdIjDSH8dh6ZWP8nERMvSIxbZwYgJMdODgVAHOS8ObmZjK3mRHGYkGMdPoAxjDHY/AcWtDk4NqIkU6dwIkUUg4jvTienF7YE3+TVPWEPmCuiie5RmFPZfsOLTw4ob7ne4rb9zrXcty+17eWpRppngC08ODkeyrXd+9J0gv33fYwkNf3+tay7WH76Xudazlu36utZekI1yp91zwBaOHB2d9azup5T5JeuO+2h4G8vmueMI/jdsfxOeDB2V/fdU9yjcqv5VCNdE96jaqs5f30vc613EYyg0H2WDiMaXMIlExjESFGmsMY5vjdMnL2Bjg+B8mALzzXw/M8PdmT02M1HOqFPfE3D3A5ZI+mC+Xg53iTQ558zaUcNjZc3lwPz7UcMK7pDQZYnHoOUo00T9PqeygHye9+1jKvURFPUg5Or9xaRm10T06Pr+Vw32VPIL/v2Q3L+5XXHjxJm5zTk3LQ+h7y5HOQa2R7GMAY5qSauxxsD9M82R42wulV28OkY2l9jWwPm07feQ6zvofhh19JD3ODge1hmqdp9T2Ug+R3P2u5c9997z+HI9n4qQ7tdit9zM3Ni8ee4Sg8fvQaxvHSubm59O/jOD3E9Cf03N/30hgpB8wjv6yeywFx47jX6Xq6Jxwf3M4cT4cj4/DSfr+f0cProYe5op7w3OvJNeqkOYzr5XlCjqEa4VrjOG1X16ye9zQ3kQPAHHouxeClyC+bg+wpVCPnqVzfvTbylvTwiLWWY/fdHc/o+jSu514n6+F1Pgeup69laMt91zwB6If7Xt9alvsue3I52B5me9gIzNke1qQ9TOu77WHA5WB7WN4e9tBDD9HrX/96WliYH456T6632Rjbw4D7e7y+e+069zA7YtkwDMMwDMOYKfARJfx24dy5++nee99JV111VeaHZ+NwM3lrYxiGYRiGYRgN53Of+yP61Kc+Rc888zT93u/9H/rsZ//fcMY4KthvYgzDMAzDMIyZAd+Def/776NPf/rT9KUv/RmdOnWK3vjGN9EHP/iPhq8wjgKt9fXN5CamlX6+bBz8ig6LxH0mbfLza/7LPPzXdng94vB6/vm1/em5z76N4040yer5GNnTXjK/O8OedL1QDpqe5gl1Qu3KeypeoyKerO/N94Tc4aeo3siTnl8oB13P9rDZ8BS375on28OqeQLT6bvtYT4HXW+297C9JH4n/SI6+hryFK/vjz7yCP3Sv/lX9MCDD9Jtt95GP/ezP0s33XTzcHb/nsbzS2OwVrod6s+PvnsDvF7Ik6gneAIYx3xIL0bffQyIVqNUr773e+uZZ57dw5dpjh8/Npxy4LSA9fWNdJx/2WZpaSkVwJ3veDL4fOLy8grNJw0e/4IVWF1dIxy7duLEcep2u8NRl+Tly5eTBDt08uSJ4agDr0fcwsJiojn5paiVldX0VJOTJ09OFAvFRX6yp0HiaY2OHVsk/iWrpaXlxNOO6gmvR9w4qA/qpHtqp/mNg5yR+8LCQuJp8ktRmic0H3q4Bq41jq+R5gmLA57GF6GvkeQJftbW1tPrSH0Huqf5tPfjaH2Hp6Wl8n1fXl5NerKVeDo5sajDfd9MerVeaS1LNcpfy7H6vpvoLSXX6CXXmu5aznu/A8kT9BYX4Unuu7aWsVlpfZc84TrIX1vLct9tDwO2h40IrWXnyfYw28McvkbSWs7ru+QJ1zlMe9hgbY2WLl6iDdRvrk+D5SVav3A5EdtJa7SWzOMafK0MBtvJYzMdH88B4H2LH3QXFxcnPGEPQB0kvf/8yU/Sv//YA/Sdf+VN9N3f9m3DUecJOeCHcPR3HJx6hdqiR/ji+jh4r6GGyGG8T6kn1OGKU3TljddTp9enblLjTvJoJRpa36vuYVXW8lHcw1p/8RfP7eENeuLEpAEsJrwAjeRNxqYEYHr8gjg6DYsGCUoXRJExPm4ARVxeXk7/joKMg+sjD5wugY1zHMSgYGjK+N0bFgtMS55QQBzJhgXNF5r3hJjxhYackXvIE68R3jxYuEDzhOvzN5bmyS20pXSx8IWGhY6j5nB6A9+wkANy4Z6wMLDYsZj5QivS96wn13e8HnHj5Pe9lehl3zxa390/3Mr1feRJ7ztfy0X6zj3F7rv3JPc97lpG/9DHan3PesL6wjrD+uKbJvyi1mXXMvqOjXvyHwRF+m57WN5atj3M9jBge9iIvD1M6vtR2MP2Eg+r55+lZz7zMF34/Bdo9fNfpMGlS9RLPJ2cX0hqtpWsI6wl92/kx70CrDE8kPN43gD1AeM/GINQzFbSo9/4wh/Tt972FbQ45glU0UMtklck4/iNgRvzJK+m9cTfZnIT1Dt+nI7fejOdOHsbnX7pS6hz4iQdS2pne1jeWo67h6UfJ0ODeSMBijz+5vW4JmNhZGNgQtJDE2F63LAnpKflENLTcgBHyRP0kv+V8gQwV9bTrNbIPDmqeoKeFJOnh8uX8WR9H3GUPEEv+V8pTwBzZT3Nao3Mk6OqJ+hJMVajET6HQfID7/KTT9Ef/+p/pIVnL1D7wiVa6CU3gMkPmbjeUWI9+QF6fWtAm0ldnuu26ex3/XV6wVe+nI5dc/XwFQ7UPPlfqT6BJvWd06S1bF/sNwzDMAzDMFTw25fHf+ch+vLHPkE3trt0Ym7yNw5HGfxA/aX1Neq/6Czd/r330KkbrqfWEbupOyjsJsYwDMMwDMMQwQ3MZ//lv6a9z36ObliY/OiTMeLC2io92e/Q1/zYO+nMi14k/jbCiEvb/aorex+jjYMqc1VigDZXVwzQ5qrEAG2urhigzVWJAdpclRigzdUVA7S5KjFAm6srBmhzVWKANlclBmhzdcUAba5KDNDm6ooB2lyVGKDN1RUDtLkqMUCbqxIDtLm6YoA2VyUGaHN1xQBtrkoM0OaqxABtrq4YoM1ViRksr9DDv/hL1P7Mo3YDk8OZxWP0knafPvUP/wktffnxdKxKzavEAG2uSgzQ5uqKAdqcH2/jizE4qYGDL+nhSzj4zBkHr0ccF8bn2hCDz7BxMIY5HoPnWg64dtkcQnpVPOF5nif/eT5PEU/IhVPF035qJHvyepMxwOtxRn3P5jCrfS+ylmex72U9AT2HcN/r8qTpTavvB+mpql6ep1lcyxiXPXm9yRjg9Th5axlzdXmS9Ka1lmex72U9AT2HcN/r8qTpTavvRXPA+Od/8wGiRz5L1508NRw1QnTabTrbm6PP/PRHaHNpObfvcp983ydjgNfjxOw7mJW13MbpCDglhIPj0Py3/zkrKyvpqQqcra3tNAbHw3Fwagfm8MWecZAztKDJwbWd3uZwZMTqKmJWMwXBc4xjnlPEE6thmi9ikD8HPp3epCdQxRP6gDjesJAnnO6SVyPuCfoYx2kRnJAnnGKBOE6o77gG5rinafV9ba1a3zkhT7H7jpxDnmKtZfQAMWX7Di1/cs04eX1HnNb3kCesaU7eWrY9TO+77WEjbA9zxO677WEO7+mw7GGXv/w4/dlHf5NuthuYUuCUtrnHn6TPP/AArQz3HK3vtodVW8u+Ru1er0vjR655cEwb5qTTB3A8Gub45/263XY6zo9PAziRAHP8BAucRoBxHEnIwWsxJ+WHY99kPReDeU7IE67v9CY9eT3pRAVfB/geB3XBuFQHXNvNZT1hHA+c2T1OyJOPwYMz6tNwYAj0XT9Cfc9+lhM1kj15v5Inp5f1FLfvOA7R5VCu76MaFV/LPiZW30c5FF/Lo7pOxgBtLfv85L7LngDmpD7l9R1rjPcdZXYxkqdqa9nFSJ7i9r0Je1iVvns928NsD/P4mFnbw8Lvd9kTwJzUJ9vDHNJa3kpueB75F79EZ49PHpVrFOPGK07Tlx/8JA0uXBj2aTgxJPYeFur76L12+PYw+2K/YRiGYRiG8TyP/98/pD//uV+kW1rZGzKjGJfW1mj1da+ir33bDw5HjNhk/5WFYRiGYRiGcWS58Eefo+7l7EfwjOLM93p0/uFHiX/Xw4iH3cQYhmEYhmEYz3PxkUfpmPAxHqM4uIkZPPMMDYTvTxlxaOOLONJdIsby5jhFYqS5JuQQW28/OcTW4xSJ0eaqxGhzVXPAHKdITB16+8khth6nSIw2VyVGm6uaA+Y4RWLq0GtCDrH19pNDbD1OkRhtrkqMNlc1B8xxisTUobefHGLrcYrEaHNVYrS5qjlgjlMkpg69ifHkz+Wnn6HFfva7EgeK8H0KT+fK08O/NYuFnT269ORTw2cjqvYJY1ViCvV9jCJ6nCIxsfXaa2s4SSN7WgBOBcCcdMQbTtHAaQdcGK9FjHT6wGCwJepBA1rS6QM4SQEx/CQNgNM/MMdzcHry6SDQwRw/oQHg+iFPyJ8Dn5jTPEmnjXi9Kp42NrKefI1kT9DLevJ6sifUaD3jCcBPyJN0kkbsvjtP1fqueQr1vcparqPv8ddyuEa6p/Vg32VP6HuVtRzqe9ZT3X23PSzPU9W+2x5W91qO2/c697AqfW/KHnbwffdreX1pCWZoTjgM5CDpvfAF1H3Btenf24sL1Ool+Q1vbK7/4H3pn03jeFLD8194TO173LV8OPcwqUbeUxuGt7ayFxwMBmkxtrezwUhQeoO4s563RQNeb3d38s2NnKElHePmcnMPzmCwmY7zzQJ3ZhjHPCekh+sjD1bDNF+nl/Xk6oAaZTcsaIXqIDfFeeJ3pN7T5mZ2oWHcPzh4PfLQ9CRPLj+c8y33XfKE14b1tpO6SjnINfJ+8OBsbpbvO2rt5rLXcj3MevV9D/WQr2UQs+/w6HKY/lr2+ZXv+1ZQT157qFGVtay/N+Q9zPXd9rCm7GFV+97MPcz3XdLzfvDg2B7mwLh/cKrvYVX63ow9LNT3uvew9UuX6fj8fPr3pnHtu96R/nniTXdT/7Zb0hsb0GrYDZcHHynbuHQx0PeYazmkp/dd0sPr/YNT9x4W8tS5//77z+GoMn5UWrfbS487w9Fr2WPPcDRcP/1znE6nneogJqvXSY9Ww3Ft43r4O459w5Ft/Og1p9+i+eTNxHPAazHPj17DdXFsnJRDp+OOcJuf1z31epM5OL2wJxwdV4cn5J311El1pD45vewReS6/dnodWc/55XruKEip751UB365nq8R7zte52rUS+fHCdUIc6EayX3K77u75gin14y1LPc97lpGDnggB64X6rvzJOm109fLfUefsjXCc7xWWnvoodcbx+tJa9n3XdaT+257mGN6nsr13ek1cw9zOdgeBvDakKe69rAqfXeeJL1697BQ32U9ue8x9rDewjw9+tHfpOsSfX7dg6R9bJEuf/RB9/dkHe4ur9Du6hrtrW/Q8de+ipZ/63+kc03iqaUluuYb30hX3XLLcMTham57GHB61fYwO2LZMAzDMAzDeJ6Pv/2H6Y7BDi2yH1SNcvzh+afptT/9k3TF9S8cjhgxmby1MQzDMAzDMI40p265mVaFj+kaxdnd26ONXo9ODr/HY8THbmIMwzAMwzCM57n6q19Ba8KXuo3irA0GdPLmm6jNPqplxKO9s7Ob+cIRwBi+tMNPCwCYk2LwWsSU0XMxYT0tB8TVo1fOE8BcKAddry5Psp6LOVqeEMfxOZTVy/Ok61nfvZ6WQzM8ZfVCOXg9LYf6alR+LWMulIOudxj73mxPiOP4HMrq5XnS9azvXk/LoRmesnpSDqfvuJ12Tp+iHUHHyAc1Xd7apOvuelVa2yI192h9ApiTYpze0dvD2pcvX6bV1bXh8Ij19Q26fHkp/fY/Z2lpKZ3jyeAINYzjqDQOxjCHi3KQw9JS9r8Mi9MKECOdbLKyspLG8XrgSDaMr6xk/+NC0HGesqcg4PqI4yDfPE/8CDrUBeOoEwf1xBzqy0EfkEP2GDxXI3jm4MQH6Eknxug12k3HQ32XjtXDOB4c3/ewp+wixHi472U86X3PX8vQmxSsspZd3+GpXN+RM+LK9B21cZ7KruXLpdYywDgenCp9D3ma1lq2Pcz2MA/G8eBUWcsA47O8h8l9b/4edpB9D3mqtpZdzUOeDmIPu+q2W+nEV72Cnl5ZzlzDyGewu0NPzc/RjW/6y2lts32vbw9zfb9c8Z9dzd7D2vjGPz8pALhTC9qZJAHmpBig6QGnlxXUYvBazPGN0YO5LC4Gf3Kgo+Xg/XJ8DhJaDMCc7Cnkd3eoJ9dIRvfrryWh5QAwJ/zzOhmH32wMXqtdJ1QjLYdR37NvOCDr6XXwOQhtT+bc6RcSGA/VSF/LWb1Q30O5u/EsqI2Wg1bzqmt5Gn2XehGqg6+fBMaluvocpGthTooBmh5wellBLWa0lkXD6VwWvQ6zvocJaSfE7TvAnO1hen75nrJzob6HcteuU2UPA3oObq6uvku9CNXB1y+Li+FHeAOfg9z36e9hr3jrD9BfLMzRpvDDr6GD3149trpCX/v2twb6nt+nWGsZYK5o38Gs7GGtjY2tPakgACY0c0Cbk8ZBSK9sDGiyHsZBWT33Q0qcGKDFVYlpuqeQXpW5umJAFT3ru6NOTyG9sjGgyXoYB2X1DmPf6/IU0qsyV1cMqKJnfXfU6SmkJ42ff/gRevSnPkK3tbvUs+925ILfsDy9sUb9N3w9feUPfH86ptX2MK7lkF6VudwYO2LZMAzDMAzDkHjsv/42PfErv0439XrUJf03QEed7eQGZmlnm5676Tq6+/77hqPGNLGbGMMwDMMwDEPlC7/9O/TlX/8o3ZD8yNhvtamrfPznKIKjlHED88zuNu285EV01zv/HnW63eGsMU1am5tb6U0Mv7PGr2k82lyVGBBTj4+DmHpFYkBMPT4OmqzXhBxATL0iMSCmHh8HMfWKxICYenwcNFmvSAyIqcfHQUy9IjEgph4fB03Wa0IOIKZekRgQU4+PgybrNSEHEFOvSAyoonfpscfo9z/y83T64mW6uj9Pezs71E5ejxhE8djDCm5aUJf0kXhe29uhJzotuuWb/yrd/q1vGb7KodUVFKm5NlclBsTU4+Mgpl6RmM6P//jfPyd9qQbHnW1vb6XjPBinFuCUg/Q/+T82B1F30kj2C3HQ29oaiDGDwSD9E3Pj4PN4mJPyw6kFuJak508C4no+h3a7kzwmPUEPDy2/MjXyMfhsJM8Bc1qNQp7yalTWE2pUpe9lPU2j7yFPgOvledLWspZDnqc6+u5zmPZaBnX3va61bHuYXiMfY3vYdPoe8gS4npYDQN5HaQ+bhb5X8QS4Xp6n2HuYVKPxtXzsqivptm98M11YX6PzFy7Q8uoKDZIctvd2k6u1aGt3J/2hPvn/Q/vYTmq1nnhe3t2mi8nNy6W5Hq3eeD294l0/TC/46q8u3Xfbw/a5h91777vOIXhubm445cDxZRsbG6lol/1azB2TtkULC/MTFxwMtml1dTUt8NxcfzjqWFlZS831er0Jc0mOtLy8/LzeOLi+Py6u3++lf3pwhBvM4Trj5uAFczhRgXuCFjSRM/IYB0fM4VjE+flJT2gUjsBDwbgnjG9sbCZ+ekmNJhvm9RYWFoYjDuSMODSn3+d6q0mNBqnXcU+o5/LySpoL8hvH1yjkSauR3HfvSe572NNuxhOuI3mq2nfUoWzfq65l1KLMWgZ19T32Wh71PbuWY/bdewr1Pd5atj0MNGkPq6fvh28PW1/HWtY9aWtZ28PgFWv5IP/ZVWUtj/oe2sOm2/dprWXXp4Pew7ZVT8Cv5Wte9lI6fueLaff662g90VnpdeipnW360wvnafuKK+hit03nk9dd6LTpchJzMVlj/vFcYv3ZJF/8/VKvOzH3bGsvmW8lMRgfzUHn2cSipIdxxEBrUs/l4PQmYy50WmkcXnMpqcX4XEjvQuL1qSTHwZlT1L31Zrry7q+n69/yzXTLm99EODi4St/r2cNc3zE+nkPT9zD/z67QHta6cOHyXi9pFL8gBHHBY8eOJUmORAHeWNjIjh1bHI44cOeGN0+/P5foTZrGWdO4a1pcXMzowTQKsbg42RQUBNeCMW4ayeMNhxzGTSMvmJM8oSBoCq4z/gYGuA4Kdfz4seGIA56woHq9vuhpMJBrhByQl+Zpfn4us9g1TwA1Qs58oXlPUo0wjuvpnsr1HZ6A1veQJ63vkqdQ372nMn33nrS+a2s51HdtLcfsu/cU6nustdyEvk9rLZftu+1hjphrGRzWPaxs372nmH23PWx297BQ3+vcw/L6LnnifX/i4c/QqeuuT/NCDDzxH6hRI3iCHveEGqHvkif8EIwe8R+o8QM9fqCWPCEH5MX7BE+41vx8P/HE9QbDvi9MrGWAGi1ecYpOJI9xmr+Hxf1nl/fk++4JreVp7WH2xX7DMAzDMAzDMGaK0e+BDMMwDMMwDMMwZgC7iTEMwzAMwzAMY6Zo4/OH+CwaB2PaHMbx4IRi6tKrEgMwjgdnlvWqxDRdz8fwuVBMET1OE/T8eFm9KjFN16sSM6t6VWIAxvHgzLJelZim6/kYPheKKaLHaYKeHy+rVyWm6XpVYmZVr0oMwDgenFnWqxLTdD0fw+dCMUX0OEX02vhSD76cxcEXi1ZWVpIXZYPxJRx82YYL47WIwRduOBjDtbgeNDAOTQ6+OAQ9fCGIgy89IY7n4PUkT9CBHnQ5uL6k5zxBT/OUrRE0UJ+QJ9SXg5xDnvClKI73JNUIrw97Ktt3eHJfKhvH6Wmewn2XPIX6rnnyeiFPWt/1tRzqu+yp7r7HWsvx++48STXK83Twfbc9DBp1r+UyfR95Ovg9rGzfq6zlvL7raznUd9vDnJ7tYdDI67vkKa/vVdaypOc8hday7WFO7+jtYW0IDgaD4fAInPiAYwxxVjUHRcLpDZzt7Z1AzCBNHkevjYOcMS4VCteAnnQtHH2IuKzp3XRc8hTSw/Wd3nBgCPLFOPLnwKfzm20KriEtJmhpOSBnzPM7Uu9J0hvVXMrBnb3N9XAEn9OTcgj1HZ6k2rkYxHK0voc84Rpajdxctb5jnhNey1iXxT0BaMXqOzxiXIrxnuTcy6/l+H33OUx3LU+n71od5L6jzhi3Pexo7WFV++7myvXde8I8J7yWbQ8DzpN0nVDffQ5HYw+DVtm1nPd+D3mScy/fd99Duea2h4FZ3cNCffeeWsvL63vdbjtz5BnugHZ2ttOj1fgxczCM5PkxbhjDXKfTzRzjBj0k2e9n9WAAR7zxHKCHM89xXBvXQ/Lb2zg7ejIHgDs0zZOWA/TQAMmTlkOoRvCEMX40XahGIU95NSrjCaBGZT35hV7G0zT6HvIUcy2H+h7yhLFp9z2UQ+y1vJ++17WWbQ+L3/e61rLPr0rf61zLMfteZS1rOYTWcqjvIU8Ym3bfQznEXsv76ftR2sMwJtUotJZtD9tf3+tcy1rfZ3kPsyOWDcMwDMMwDMOYKex0MsMwDMMwDMMwZoo2fl2joc1hPDSnETMGNFkP47H1NOrSw3hsPY1Z1WtCDiCmHsZj62nUpYfx2Hoas6qH8dh6GnXpYTy2nsas6jUhBxBTD+Ox9TTq0sN4bD2NWdXDeGw9jbr0MB5bT2MW9Nr4og0+28bBGOYkAW0Oz8vqhWJi62kxIKZeKGZaejwGVNHTYgDmQjmU0QvFxNbTYgDGY+n5GDw4+9ErEwOmoSfFVNELxfg5LYeyeloMiKkXiomtp8WAmHqhmGnp8RhQRU+LAZgL5VBGLxQTW0+LARiPpedj8ODsR69MDJiGnhRTRS8U4+e0HMrqaTEgpl4oJraeFgNi6oVipqXHY0AVPS0GYC6UQxm9UExsPS0GYLyqXntpaYlWV7PHteEINczhSzWcpaXldI6DL+dgXDquDdfAnP9S0jgYhyYHJxxgTjrSbnnZ5cDrgecYxzxnP56kGsEn5sp5cnqSJ18j3rCQJ18j6TQI74nXCPoYD3nSa6R7CvVdWoQYl/XK9917Kt935FBuLef3PasX6rv3VKbvI0963zlF+i57itd37ynU91hrOdx3uUahvntP5d7v09rDivfdeyrfd82Tvpbz+i55it1370nvu+6pzFoGGJf1bA8Dsddykb7LnuL13XsK9T3WWg73Xa5RqO/eU7n3u+1hIOQpdt+9J73v2RyK9J17AhiXazQbe1gbJwjgZAIOxtxjODBGp+NOHuAnDOC5j+P46+hzk1rAv77bnTzlALTbnczpBx6nl52DjtMcDoyB60t6PofQnFQHvB514uDaPo7jr9NqaTWS/HotOcbpDQfGcHradZCH3g8OXuti5BpJ48BdK9T37MkXWt9RM4zjZA6O10v+l6HKWvbjsfqOnF0O0pzcd9RG09PWMnD5yX3Cg3sC2nWq9B3yWg5J1PA6ch3wENJLx6X8MOYew4ExZn8Pk/w2dw+DvOYpiRpqZfVcDuX67sdtDzu8e5icgxvnnoB2HdvDRrg5vXZHbQ/jQF7zlEQNtbJ6Lofp72G+74jlaOPAXSvU94bvYcldEbuXMgzDMAzDMAzDaC7CPZFhGIZhGIZhGEZzsZsYwzAMwzAMwzBmitbm5lb6cTL+WbTxUwK0uSoxIKYeHwcx9YrEgJh6fBzE1CsSA5qsx8dBTL0iMSCmHh8HMfWKxIAm6/FxEFOvSAyIqcfHQUy9IjEgph4fBzH1isSAJuvxcRBTr0gMiKnHx0FMvSIxoMl6fBzE1CsSA2Lq8XEQU69IDIipx8dBTL0iMaDJenwcxNQrEtPe2Nigra2t9Mk4OBVgfX19QsSDUws2Nzczc3gOPemUCIxhToqBlnSqw+7uXpoDjlHjIGdNT/MEHehBlzMLnkJ6mqeQXtm+wxMeHLwWMWVrlOfJ+l7dU0hP8wQ9HgOq9D3PU6hGVTxZ3+v3tL29MxwZ0YS+wxP0eAyAJzw4eK3zZH1viqeQnuYJejwGVOl7nqdQjap4sr7X78n2sNnvexvHnuEvnM1NFH5TTAZHm0lHnm1t7SRJQi9bYIxhbmdnctEgZ00PphAnNWxtbUPUw3PdU0jP5cBqOKane4JvjubJLWjkkM0POUuecGwdxvHghDz5GH6sntdDjzmhvms5uAWNHLJ6vkaxPFXru+uf9EbV+lRlLYOYffee4JkTrtF6GldmLcfuO8YQo609SS/kycdwvSb0/ajuYYOBpCd7it13r6etPehNew+rt+/1rGWg6dke5oi9lpvQ96prOa/vsqdw3/GwPcz2MFCk7533vve+c/3+XOb4vPToslab5ubmMr/GAd1ul/r9yaPXEIM7p/n5ucyRaDjCDTq41rge/o5Czs31U81xvAbmuB5ygyauNY7T20uvk/WE67oYKT8c8cY94TrQQw78SDl3dF8rUyPvqdfrJY9JT9BwetkckizSPHCtcT28Dnpan4DkqdVyxwtCbxxfI8kTNPL6zj35IwelPml9L+JJ0qvWd2ggZl71FHMtx+w7/q0FYsqtZdf3MmsZGtPou+QJNYq9lpvQd+R2VPYwIHlKskjzwNy4Hl4Hvdh9lzxBYxpr+WD7Do361rLtYS4/6EieUKPYa7kJfUduZdZyMptq8ho5PdvDgO1hDqdRbi2H3+/Okx2xbBiGYRiGYRjGTDF5e2UYhmEYhmEYhtFw7CbGMAzDMAzDMIyZorWxMUg/TsY/84bPoeGRfuaMfX7Nf0GpSsy09XwMiOkJHFSNfAxoco1CMdPW8zFg2p5i69XtCUy7RtPyFFsvRg6gSTXSYsBB1cjHgCbXKBQzbT0fA6btKbZe3Z7AtGs0LU+x9WLkAJpUIy0GHFSNfAxoco1CMdPW8zFg2p7c3B79f6krq/a1HJjrAAAAAElFTkSuQmCC;" vertex="1" parent="1">
          <mxGeometry width="817" height="567" as="geometry" />
        </mxCell>
      </root>
    </mxGraphModel>
  </diagram>
</mxfile>
